<svg width="27" height="27" viewBox="0 0 27 27" fill="none" xmlns="http://www.w3.org/2000/svg">
<g clip-path="url(#clip0_0_117)">
<path d="M14.8617 7.29297H12.1406V9.75878H14.8617V7.29297Z" fill="#1A2E56"/>
<path d="M14.8617 10.7788H12.1406L12.1406 19.707H14.8617V10.7788Z" fill="#1A2E56"/>
<path d="M23.046 3.95403C20.4961 1.40421 17.106 0 13.5 0C9.89403 0 6.5039 1.40421 3.95403 3.95403C1.40421 6.5039 0 9.89403 0 13.5C0 17.106 1.40421 20.4961 3.95403 23.046C6.5039 25.5958 9.89403 27 13.5 27C17.106 27 20.4961 25.5958 23.046 23.046C25.5958 20.4961 27 17.106 27 13.5C27 9.89403 25.5958 6.5039 23.046 3.95403ZM13.5 25.2391C7.02707 25.2391 1.76085 19.973 1.76085 13.5C1.76085 7.02701 7.02707 1.76085 13.5 1.76085C19.9729 1.76085 25.2391 7.02707 25.2391 13.5C25.2391 19.9729 19.9729 25.2391 13.5 25.2391Z" fill="#1A2E56"/>
</g>
<defs>
<clipPath id="clip0_0_117">
<rect width="27" height="27" fill="white"/>
</clipPath>
</defs>
</svg>
