<svg width="278" height="209" viewBox="0 0 278 209" fill="none" xmlns="http://www.w3.org/2000/svg">
<path d="M20.1623 168.981V169.136C21.4756 169.29 22.3254 169.831 22.7117 170.526C23.0979 171.299 23.5615 173.076 24.025 175.934C24.1795 176.784 24.334 177.479 24.4112 178.02H19.6988C19.5443 177.325 19.3898 176.32 19.2353 175.162C18.9262 173.153 18.6172 171.84 18.3855 171.376C18.1537 170.835 17.6902 170.604 16.9949 170.604H16.2224C16.2224 171.299 16.2224 171.84 16.1451 172.303L15.3726 178.02H10.8147L11.6644 172.149C11.7417 171.608 11.8962 171.067 12.0507 170.604H11.3554C10.5829 170.604 9.96487 170.99 9.4241 171.762C8.96058 172.535 7.95628 174.621 6.33396 178.02H1.3125C1.77602 176.861 2.16229 176.011 2.39405 175.471C2.62581 174.93 2.93482 174.312 3.24383 173.539C3.55285 172.767 3.86186 172.303 4.01637 171.994C4.17087 171.685 4.40264 171.299 4.71165 170.913C5.02066 170.526 5.25242 170.217 5.48418 170.063C5.71594 169.908 5.9477 169.754 6.25672 169.599C6.56573 169.445 6.87474 169.29 7.18375 169.213C7.49277 169.136 7.87903 169.059 8.2653 168.981V168.827C7.80178 168.75 7.33826 168.595 7.02925 168.518C6.72024 168.363 6.41122 168.209 6.17946 167.977C5.9477 167.745 5.71594 167.436 5.56143 167.205C5.40692 166.895 5.25242 166.509 5.09792 165.968C4.94341 165.428 4.86616 164.887 4.71165 164.346C4.6344 163.805 4.47989 163.033 4.32539 162.106C4.24813 161.565 4.17088 161.101 4.09362 160.792H8.72882C8.80607 161.256 8.88332 161.874 9.03783 162.724C9.34684 164.732 9.5786 166.046 9.81036 166.664C10.0421 167.282 10.5056 167.591 11.2009 167.591H12.2825C12.2052 166.895 12.2052 166.123 12.3597 165.35L12.9778 160.87H17.4584L16.7632 165.582C16.6087 166.355 16.5314 167.05 16.2996 167.668H16.7632C17.5357 167.668 18.1537 167.359 18.6172 166.741C19.0808 166.123 19.776 164.732 20.7031 162.569C21.0121 161.874 21.2438 161.333 21.3984 160.947H26.2653C26.0336 161.411 25.8018 161.951 25.4928 162.647C25.1838 163.342 24.952 163.805 24.8748 164.114C24.7202 164.423 24.5657 164.81 24.334 165.35C24.1022 165.814 23.9477 166.2 23.7932 166.432C23.6387 166.664 23.4842 166.895 23.3297 167.205C23.0979 167.514 22.9434 167.745 22.7889 167.9C22.6344 168.054 22.4799 168.209 22.2481 168.363C22.0164 168.518 21.7846 168.672 21.5529 168.75C21.3211 168.827 21.0893 168.904 20.7803 168.981C20.8576 168.827 20.5486 168.904 20.1623 168.981Z" fill="#989898"/>
<path d="M41.3309 178.02H36.8502L38.0862 169.29C38.2407 168.286 38.4725 167.359 38.7815 166.432H38.627C38.009 167.668 37.5455 168.518 37.2365 168.904L30.9789 178.02H26.3438L28.7386 160.715H33.2965L32.0605 169.136C31.9832 169.908 31.6742 170.913 31.288 172.226H31.5197C31.906 171.222 32.4468 170.372 32.9103 169.599L39.0905 160.715H43.6485L41.3309 178.02Z" fill="#989898"/>
<path d="M44.5742 178.02L46.9691 160.715C48.5141 160.561 50.7545 160.483 53.6901 160.483C56.0077 160.483 57.63 160.792 58.4798 161.488C59.4069 162.183 59.7159 163.419 59.4841 165.196C59.3296 166.432 58.9433 167.359 58.4798 167.977C57.9391 168.595 57.0893 168.904 56.0077 168.981V169.136C58.4798 169.368 59.5614 170.913 59.0978 173.925C58.8661 175.625 58.2481 176.784 57.321 177.325C56.394 177.865 54.7717 178.252 52.6086 178.252C48.9777 178.174 46.351 178.097 44.5742 178.02ZM49.5957 174.775H51.6815C52.6086 174.775 53.3038 174.621 53.6129 174.312C53.9991 174.003 54.2309 173.385 54.3081 172.535C54.4626 171.685 54.3854 171.144 54.1536 170.913C53.9219 170.681 53.3811 170.526 52.6086 170.526H50.2137L49.5957 174.775ZM50.6 167.513H52.6858C53.4584 167.513 53.9991 167.359 54.3081 167.127C54.6171 166.895 54.8489 166.277 54.9262 165.505C55.0034 164.887 54.9262 164.423 54.7717 164.192C54.5399 163.96 54.1536 163.883 53.4584 163.883H51.0635L50.6 167.513Z" fill="#989898"/>
<path d="M69.9889 160.329C72.8473 160.329 74.7786 161.024 75.8602 162.337C76.9417 163.651 77.2507 166.046 76.7872 169.522C76.5555 171.299 76.2464 172.689 75.7829 173.848C75.3194 175.007 74.7786 175.857 74.0834 176.552C73.3881 177.247 72.5383 177.711 71.6113 177.943C70.6842 178.174 69.5254 178.329 68.1349 178.329C65.2765 178.329 63.2679 177.634 62.2636 176.32C61.2593 175.007 60.9503 172.612 61.4138 169.136C61.8774 165.737 62.7271 163.419 63.9632 162.183C65.2765 160.947 67.2851 160.329 69.9889 160.329ZM69.9117 163.96C68.8301 163.96 68.0576 164.346 67.5941 165.041C67.1306 165.737 66.7443 167.282 66.358 169.522C66.049 171.608 66.049 172.998 66.2808 173.694C66.5125 174.389 67.2078 174.698 68.2894 174.698C69.3709 174.698 70.2207 174.312 70.6842 173.616C71.1477 172.921 71.534 171.376 71.9203 169.136C72.2293 166.973 72.2293 165.582 71.9975 164.964C71.6885 164.269 70.9932 163.96 69.9117 163.96Z" fill="#989898"/>
<path d="M93.0892 164.346H88.1449L86.2136 178.02H81.5012L83.4325 164.346H78.4883L78.9518 160.715H93.5527L93.0892 164.346Z" fill="#989898"/>
<path d="M109.93 160.715L107.535 178.02H102.746L103.827 170.604H98.8057L97.7242 178.02H93.0117L95.4066 160.715H100.119L99.2692 167.127H104.213L105.14 160.715H109.93Z" fill="#989898"/>
<path d="M119.817 160.329C122.675 160.329 124.607 161.024 125.688 162.337C126.77 163.651 127.079 166.046 126.615 169.522C126.384 171.299 126.075 172.689 125.611 173.848C125.148 175.007 124.607 175.857 123.911 176.552C123.216 177.247 122.366 177.711 121.439 177.943C120.512 178.174 119.354 178.329 117.963 178.329C115.105 178.329 113.096 177.634 112.092 176.32C111.087 175.007 110.778 172.612 111.242 169.136C111.705 165.737 112.555 163.419 113.791 162.183C115.105 160.947 117.113 160.329 119.817 160.329ZM119.74 163.96C118.658 163.96 117.886 164.346 117.422 165.041C116.959 165.737 116.572 167.282 116.186 169.522C115.877 171.608 115.877 172.998 116.109 173.694C116.341 174.389 117.036 174.698 118.117 174.698C119.199 174.698 120.049 174.312 120.512 173.616C120.976 172.921 121.362 171.376 121.748 169.136C122.057 166.973 122.057 165.582 121.826 164.964C121.517 164.269 120.821 163.96 119.74 163.96Z" fill="#989898"/>
<path d="M127.93 178.02L130.325 160.715C131.87 160.561 134.11 160.483 137.046 160.483C139.363 160.483 140.986 160.792 141.835 161.488C142.762 162.183 143.071 163.419 142.84 165.196C142.685 166.432 142.299 167.359 141.835 167.977C141.295 168.595 140.445 168.904 139.363 168.981V169.136C141.835 169.368 142.917 170.913 142.453 173.925C142.222 175.625 141.604 176.784 140.676 177.325C139.749 177.865 138.127 178.252 135.964 178.252C132.41 178.174 129.707 178.097 127.93 178.02ZM132.951 174.775H135.037C135.964 174.775 136.659 174.621 136.968 174.312C137.355 174.003 137.586 173.385 137.664 172.535C137.818 171.685 137.741 171.144 137.509 170.913C137.277 170.681 136.737 170.526 135.964 170.526H133.569L132.951 174.775ZM134.033 167.513H136.119C136.891 167.513 137.432 167.359 137.741 167.127C138.05 166.895 138.282 166.277 138.359 165.505C138.436 164.887 138.359 164.423 138.204 164.192C137.973 163.96 137.586 163.883 136.891 163.883H134.496L134.033 167.513Z" fill="#989898"/>
<path d="M153.423 160.329C156.281 160.329 158.212 161.024 159.294 162.337C160.375 163.651 160.684 166.046 160.221 169.522C159.989 171.299 159.68 172.689 159.216 173.848C158.753 175.007 158.212 175.857 157.517 176.552C156.822 177.247 155.972 177.711 155.045 177.943C154.118 178.174 152.959 178.329 151.568 178.329C148.71 178.329 146.702 177.634 145.697 176.32C144.693 175.007 144.384 172.612 144.847 169.136C145.311 165.737 146.161 163.419 147.397 162.183C148.71 160.947 150.641 160.329 153.423 160.329ZM153.345 163.96C152.264 163.96 151.491 164.346 151.028 165.041C150.564 165.737 150.178 167.282 149.792 169.522C149.483 171.608 149.483 172.998 149.714 173.694C149.946 174.389 150.641 174.698 151.723 174.698C152.804 174.698 153.654 174.312 154.118 173.616C154.581 172.921 154.968 171.376 155.354 169.136C155.663 166.973 155.663 165.582 155.431 164.964C155.045 164.269 154.427 163.96 153.345 163.96Z" fill="#989898"/>
<path d="M178.301 177.788L177.76 181.728H174.284L174.438 177.943H163.623L162.773 181.728H159.297L159.838 177.943L160.301 174.698H162.078C163.391 172.071 164.627 168.595 165.786 164.192C166.404 161.797 167.949 160.638 170.421 160.638H178.456L176.447 174.698H178.765L178.301 177.788ZM171.657 174.775L173.202 163.883H171.889C171.426 163.883 171.039 163.96 170.73 164.192C170.421 164.423 170.267 164.81 170.112 165.35C169.185 169.368 168.181 172.535 167.022 174.698H171.657V174.775Z" fill="#989898"/>
<path d="M195.603 160.715L193.208 178.02H188.495L189.423 171.144C187.646 171.994 186.023 172.38 184.556 172.38C182.933 172.38 181.697 171.994 181.002 171.299C180.307 170.526 180.075 169.445 180.229 167.977L181.234 160.792H185.946L185.019 167.204C184.942 167.745 184.942 168.131 185.174 168.286C185.405 168.44 185.792 168.595 186.332 168.595C187.414 168.595 188.573 168.363 189.732 167.822L190.736 160.792H195.603V160.715Z" fill="#989898"/>
<path d="M210.284 164.269H204.026C203.563 164.269 203.254 164.346 203.099 164.501C202.945 164.655 202.79 164.964 202.713 165.428L202.404 167.513H208.893L208.507 170.758H201.94L201.554 173.385C201.477 173.771 201.554 174.08 201.709 174.235C201.863 174.389 202.172 174.466 202.558 174.466H208.739L208.661 177.865C207.271 178.02 204.567 178.097 200.627 178.097C199.237 178.097 198.155 177.711 197.537 176.861C196.842 176.089 196.61 175.007 196.765 173.616L198.078 164.269C198.232 163.11 198.696 162.26 199.468 161.565C200.241 160.947 201.168 160.638 202.404 160.638C206.421 160.638 209.202 160.715 210.747 160.947L210.284 164.269Z" fill="#989898"/>
<path d="M223.569 174.08L223.724 177.556C222.101 178.02 220.17 178.329 217.93 178.329C215.148 178.329 213.217 177.634 212.213 176.243C211.209 174.853 210.9 172.535 211.363 169.213C211.827 165.814 212.676 163.496 213.912 162.26C215.148 161.024 217.157 160.406 219.938 160.406C222.024 160.406 223.801 160.638 225.346 161.024L224.805 164.423C223.028 164.346 221.329 164.346 219.706 164.346C218.934 164.346 218.393 164.501 218.007 164.732C217.621 164.964 217.312 165.428 217.003 166.2C216.694 166.973 216.462 168.054 216.307 169.522C215.998 171.453 215.998 172.69 216.23 173.308C216.462 173.926 217.08 174.235 218.161 174.235C220.324 174.312 222.101 174.235 223.569 174.08Z" fill="#989898"/>
<path d="M235.697 168.981V169.136C236.161 169.213 236.624 169.29 236.933 169.445C237.242 169.599 237.551 169.677 237.86 169.831C238.092 169.986 238.324 170.217 238.555 170.526C238.71 170.835 238.864 171.144 239.019 171.531C239.173 171.84 239.328 172.38 239.405 172.998C239.56 173.617 239.637 174.235 239.791 174.853C239.946 175.471 240.023 176.243 240.178 177.247C240.255 177.634 240.255 177.865 240.332 178.02H235.543C235.079 174.775 234.77 172.921 234.693 172.458C234.461 171.531 234.075 170.99 233.457 170.835C233.148 170.758 232.761 170.681 232.298 170.681H231.294C231.371 171.299 231.371 171.84 231.294 172.38L230.521 178.097H225.809L228.203 160.792H232.916L232.221 165.505C232.066 166.355 231.912 167.05 231.757 167.591H232.53C233.611 167.591 234.461 167.127 235.002 166.355C235.543 165.505 236.392 163.728 237.397 160.87H242.264C241.027 163.883 240.178 165.737 239.869 166.355C239.251 167.514 238.478 168.286 237.551 168.672C237.01 168.672 236.392 168.827 235.697 168.981Z" fill="#989898"/>
<path d="M257.097 178.02H252.616L253.852 169.29C254.006 168.286 254.238 167.359 254.547 166.432H254.393C253.775 167.668 253.311 168.518 253.002 168.904L246.745 178.02H242.109L244.504 160.715H249.062L247.826 169.136C247.749 169.908 247.44 170.913 247.054 172.226H247.285C247.672 171.222 248.212 170.372 248.676 169.599L254.856 160.715H259.414L257.097 178.02Z" fill="#989898"/>
<path d="M275.175 178.02H270.694L271.93 169.29C272.084 168.286 272.316 167.359 272.625 166.432H272.471C271.853 167.668 271.389 168.518 271.08 168.904L264.823 178.02H260.188L262.66 160.715H267.218L265.981 169.136C265.904 169.908 265.595 170.913 265.209 172.226H265.441C265.827 171.222 266.368 170.372 266.831 169.599L273.012 160.715H277.569L275.175 178.02ZM272.239 155.385H275.02C275.02 156.544 274.557 157.548 273.707 158.32C272.857 159.093 271.775 159.479 270.385 159.479C268.917 159.479 267.758 159.093 266.986 158.32C266.213 157.548 266.059 156.544 266.368 155.385H269.303C269.072 156.157 269.149 156.621 269.303 156.93C269.458 157.239 269.921 157.393 270.462 157.393C271.621 157.316 272.239 156.698 272.239 155.385Z" fill="#989898"/>
<path d="M18.927 168.054V168.209C20.2403 168.363 21.0901 168.904 21.4764 169.599C21.8627 170.372 22.3262 172.149 22.7897 175.007C22.9442 175.857 23.0987 176.552 23.176 177.093H18.4635C18.309 176.398 18.1545 175.393 18 174.235C17.691 172.226 17.382 170.913 17.1502 170.449C16.9185 169.908 16.4549 169.677 15.7597 169.677H14.9099C14.9099 170.372 14.9099 170.913 14.8326 171.376L14.0601 177.093H9.5794L10.4292 171.222C10.5064 170.681 10.6609 170.14 10.8155 169.677H10.0429C9.27039 169.677 8.65236 170.063 8.11159 170.835C7.64807 171.608 6.64378 173.694 5.02146 177.093H0C0.463519 175.934 0.849781 175.084 1.08154 174.544C1.3133 174.003 1.62232 173.385 1.93133 172.612C2.24034 171.84 2.54936 171.376 2.70386 171.067C2.85837 170.758 3.09012 170.372 3.39914 169.986C3.70815 169.599 3.93991 169.29 4.17167 169.136C4.40343 168.981 4.63519 168.827 4.9442 168.672C5.25321 168.518 5.56224 168.363 5.87125 168.286C6.18026 168.209 6.56652 168.132 6.95279 168.054V167.9C6.48927 167.823 6.02575 167.668 5.71673 167.591C5.40772 167.436 5.09872 167.282 4.86696 167.05C4.6352 166.818 4.40343 166.509 4.24893 166.277C4.09442 165.968 3.93991 165.582 3.7854 165.041C3.6309 164.501 3.55364 163.96 3.39914 163.419C3.32188 162.878 3.16738 162.106 3.01287 161.179C2.93562 160.638 2.85837 160.174 2.78112 159.865H7.41631C7.49357 160.329 7.57082 160.947 7.72532 161.797C8.03434 163.805 8.2661 165.119 8.49786 165.737C8.72962 166.355 9.19314 166.664 9.88842 166.664H10.97C10.8927 165.968 10.8927 165.196 11.0472 164.423L11.6652 159.943H16.1459L15.4506 164.655C15.2961 165.428 15.2189 166.123 14.9871 166.741H15.4506C16.2232 166.741 16.8412 166.432 17.3047 165.814C17.7682 165.196 18.4635 163.805 19.3906 161.642C19.6996 160.947 19.9313 160.406 20.0858 160.02H24.9528C24.721 160.484 24.4893 161.024 24.1803 161.72C23.8713 162.415 23.6395 162.878 23.5622 163.187C23.4077 163.496 23.2532 163.883 23.0215 164.423C22.7897 164.887 22.6352 165.273 22.4807 165.505C22.3262 165.737 22.1717 165.968 22.0172 166.277C21.7854 166.587 21.6309 166.818 21.4764 166.973C21.3219 167.127 21.1674 167.282 20.9356 167.436C20.7039 167.591 20.4721 167.745 20.2403 167.823C20.0086 167.9 19.7768 167.977 19.4678 168.054C19.6223 167.9 19.3133 167.977 18.927 168.054Z" fill="#00497E"/>
<path d="M40.0965 177.093H35.6158L36.8519 168.363C37.0064 167.359 37.2381 166.432 37.5471 165.505H37.3926C36.7746 166.741 36.3111 167.591 36.0021 167.977L29.7446 177.093H25.1094L27.5042 159.788H32.0622L30.8261 168.209C30.7489 168.981 30.4398 169.986 30.0536 171.299H30.2854C30.6716 170.295 31.2124 169.445 31.6759 168.672L37.8562 159.788H42.4141L40.0965 177.093Z" fill="#00497E"/>
<path d="M43.2617 177.093L45.6566 159.788C47.2016 159.634 49.442 159.556 52.3776 159.556C54.6952 159.556 56.3175 159.865 57.1673 160.561C58.0944 161.256 58.4034 162.492 58.1716 164.269C58.0171 165.505 57.6308 166.432 57.1673 167.05C56.6266 167.668 55.7768 167.977 54.6952 168.054V168.209C57.1673 168.441 58.2489 169.986 57.7853 172.998C57.5536 174.698 56.9356 175.857 56.0085 176.398C55.0815 176.938 53.4592 177.325 51.2961 177.325C47.7424 177.247 45.0385 177.17 43.2617 177.093ZM48.3604 173.848H50.4463C51.3733 173.848 52.0686 173.694 52.3776 173.385C52.7639 173.076 52.9957 172.458 53.0729 171.608C53.2274 170.758 53.1502 170.217 52.9184 169.986C52.6866 169.754 52.1459 169.599 51.3733 169.599H48.9785L48.3604 173.848ZM49.3647 166.586H51.4506C52.2231 166.586 52.7639 166.432 53.0729 166.2C53.3819 165.968 53.6137 165.35 53.6909 164.578C53.7682 163.96 53.6909 163.496 53.5364 163.265C53.3046 163.033 52.9184 162.956 52.2231 162.956H49.8283L49.3647 166.586Z" fill="#00497E"/>
<path d="M68.7546 159.402C71.613 159.402 73.5443 160.097 74.6258 161.41C75.7074 162.724 76.0164 165.119 75.5529 168.595C75.3211 170.372 75.0121 171.762 74.5486 172.921C74.0851 174.08 73.5443 174.93 72.849 175.625C72.1537 176.32 71.3039 176.784 70.3769 177.016C69.4499 177.247 68.2911 177.402 66.9005 177.402C64.0421 177.402 62.0335 176.707 61.0293 175.393C60.025 174.08 59.7159 171.685 60.1795 168.209C60.643 164.81 61.4928 162.492 62.7288 161.256C64.0421 160.02 66.0507 159.402 68.7546 159.402ZM68.6773 163.033C67.5958 163.033 66.8232 163.419 66.3597 164.114C65.8962 164.81 65.5099 166.355 65.1237 168.595C64.8147 170.681 64.8147 172.071 65.0464 172.767C65.2782 173.462 65.9735 173.771 67.055 173.771C68.1365 173.771 68.9863 173.385 69.4499 172.689C69.9134 171.994 70.2996 170.449 70.6859 168.209C70.9949 166.046 70.9949 164.655 70.7632 164.037C70.4542 163.342 69.7589 163.033 68.6773 163.033Z" fill="#00497E"/>
<path d="M91.8548 163.419H86.9106L84.9793 177.093H80.2668L82.1981 163.419H77.2539L77.7174 159.788H92.3183L91.8548 163.419Z" fill="#00497E"/>
<path d="M108.697 159.788L106.302 177.093H101.589L102.671 169.677H97.6495L96.5679 177.093H91.8555L94.2503 159.788H98.9628L98.113 166.2H103.057L103.984 159.788H108.697Z" fill="#00497E"/>
<path d="M118.583 159.402C121.441 159.402 123.372 160.097 124.454 161.41C125.536 162.724 125.845 165.119 125.381 168.595C125.149 170.372 124.84 171.762 124.377 172.921C123.913 174.08 123.372 174.93 122.677 175.625C121.982 176.32 121.132 176.784 120.205 177.016C119.278 177.247 118.119 177.402 116.729 177.402C113.87 177.402 111.862 176.707 110.857 175.393C109.853 174.08 109.544 171.685 110.008 168.209C110.471 164.81 111.321 162.492 112.557 161.256C113.87 160.02 115.802 159.402 118.583 159.402ZM118.505 163.033C117.424 163.033 116.651 163.419 116.188 164.114C115.724 164.81 115.338 166.355 114.952 168.595C114.643 170.681 114.643 172.071 114.875 172.767C115.106 173.462 115.802 173.771 116.883 173.771C117.965 173.771 118.814 173.385 119.278 172.689C119.742 171.994 120.128 170.449 120.514 168.209C120.823 166.046 120.823 164.655 120.591 164.037C120.205 163.342 119.587 163.033 118.505 163.033Z" fill="#00497E"/>
<path d="M126.695 177.093L129.09 159.788C130.635 159.634 132.876 159.556 135.811 159.556C138.129 159.556 139.751 159.865 140.601 160.561C141.528 161.256 141.837 162.492 141.605 164.269C141.451 165.505 141.064 166.432 140.601 167.05C140.06 167.668 139.21 167.977 138.129 168.054V168.209C140.601 168.441 141.682 169.986 141.219 172.998C140.987 174.698 140.369 175.857 139.442 176.398C138.515 176.938 136.893 177.325 134.73 177.325C131.099 177.247 128.472 177.17 126.695 177.093ZM131.717 173.848H133.803C134.73 173.848 135.425 173.694 135.734 173.385C136.12 173.076 136.352 172.458 136.429 171.608C136.584 170.758 136.506 170.217 136.275 169.986C136.043 169.754 135.502 169.599 134.73 169.599H132.335L131.717 173.848ZM132.798 166.586H134.884C135.657 166.586 136.197 166.432 136.506 166.2C136.815 165.968 137.047 165.35 137.124 164.578C137.202 163.96 137.124 163.496 136.97 163.265C136.738 163.033 136.352 162.956 135.657 162.956H133.262L132.798 166.586Z" fill="#00497E"/>
<path d="M152.188 159.402C155.047 159.402 156.978 160.097 158.059 161.41C159.141 162.724 159.45 165.119 158.986 168.595C158.755 170.372 158.446 171.762 157.982 172.921C157.519 174.08 156.978 174.93 156.283 175.625C155.587 176.32 154.738 176.784 153.811 177.016C152.883 177.247 151.725 177.402 150.334 177.402C147.476 177.402 145.467 176.707 144.463 175.393C143.459 174.08 143.15 171.685 143.613 168.209C144.077 164.81 144.926 162.492 146.162 161.256C147.476 160.02 149.407 159.402 152.188 159.402ZM152.111 163.033C151.029 163.033 150.257 163.419 149.793 164.114C149.33 164.81 148.944 166.355 148.557 168.595C148.248 170.681 148.248 172.071 148.48 172.767C148.712 173.462 149.407 173.771 150.489 173.771C151.57 173.771 152.42 173.385 152.883 172.689C153.347 171.994 153.733 170.449 154.12 168.209C154.429 166.046 154.429 164.655 154.197 164.037C153.811 163.342 153.192 163.033 152.111 163.033Z" fill="#00497E"/>
<path d="M177.067 176.861L176.526 180.801H173.05L173.204 177.016H162.389L161.539 180.801H158.062L158.603 177.016L159.067 173.771H160.844C162.157 171.144 163.393 167.668 164.552 163.265C165.17 160.87 166.715 159.711 169.187 159.711H177.221L175.213 173.771H177.53L177.067 176.861ZM170.423 173.848L171.968 162.956H170.655C170.191 162.956 169.805 163.033 169.496 163.265C169.187 163.496 169.032 163.883 168.878 164.423C167.951 168.441 166.947 171.608 165.788 173.771H170.423V173.848Z" fill="#00497E"/>
<path d="M194.368 159.788L191.973 177.093H187.261L188.188 170.218C186.411 171.067 184.789 171.454 183.321 171.454C181.699 171.454 180.463 171.067 179.768 170.372C179.072 169.599 178.84 168.518 178.995 167.05L179.999 159.866H184.712L183.785 166.278C183.707 166.818 183.707 167.205 183.939 167.359C184.171 167.514 184.557 167.668 185.098 167.668C186.18 167.668 187.338 167.436 188.497 166.896L189.501 159.866H194.368V159.788Z" fill="#00497E"/>
<path d="M209.049 163.342H202.792C202.328 163.342 202.019 163.419 201.865 163.574C201.71 163.728 201.556 164.037 201.479 164.501L201.17 166.586H207.659L207.273 169.831H200.706L200.32 172.458C200.243 172.844 200.32 173.153 200.474 173.308C200.629 173.462 200.938 173.539 201.324 173.539H207.504L207.427 176.938C206.037 177.093 203.333 177.17 199.393 177.17C198.002 177.17 196.921 176.784 196.303 175.934C195.607 175.162 195.376 174.08 195.53 172.689L196.843 163.342C196.998 162.183 197.461 161.333 198.234 160.638C199.007 160.02 199.934 159.711 201.17 159.711C205.187 159.711 207.968 159.788 209.513 160.02L209.049 163.342Z" fill="#00497E"/>
<path d="M222.335 173.153L222.489 176.629C220.867 177.093 218.936 177.402 216.695 177.402C213.914 177.402 211.983 176.707 210.978 175.316C209.974 173.926 209.665 171.608 210.129 168.286C210.592 164.887 211.442 162.569 212.678 161.333C213.914 160.097 215.923 159.479 218.704 159.479C220.79 159.479 222.566 159.711 224.111 160.097L223.571 163.496C221.794 163.419 220.094 163.419 218.472 163.419C217.699 163.419 217.159 163.574 216.772 163.805C216.386 164.037 216.077 164.501 215.768 165.273C215.459 166.046 215.227 167.127 215.073 168.595C214.764 170.526 214.764 171.763 214.996 172.381C215.227 172.999 215.845 173.308 216.927 173.308C219.09 173.385 220.867 173.308 222.335 173.153Z" fill="#00497E"/>
<path d="M234.388 168.054V168.209C234.852 168.286 235.315 168.363 235.624 168.518C235.933 168.672 236.242 168.75 236.551 168.904C236.783 169.059 237.015 169.29 237.247 169.599C237.401 169.908 237.556 170.217 237.71 170.604C237.865 170.913 238.019 171.453 238.097 172.071C238.251 172.69 238.328 173.308 238.483 173.926C238.637 174.544 238.715 175.316 238.869 176.32C238.946 176.707 238.946 176.938 239.024 177.093H234.234C233.77 173.848 233.461 171.994 233.384 171.531C233.152 170.604 232.766 170.063 232.148 169.908C231.839 169.831 231.453 169.754 230.989 169.754H229.985C230.062 170.372 230.062 170.913 229.985 171.453L229.212 177.17H224.5L226.895 159.865H231.607L230.912 164.578C230.757 165.428 230.603 166.123 230.448 166.664H231.221C232.303 166.664 233.152 166.2 233.693 165.428C234.234 164.578 235.084 162.801 236.088 159.943H240.955C239.719 162.956 238.869 164.81 238.56 165.428C237.942 166.587 237.169 167.359 236.242 167.745C235.779 167.745 235.161 167.9 234.388 168.054Z" fill="#00497E"/>
<path d="M255.784 177.093H251.303L252.539 168.363C252.694 167.359 252.926 166.432 253.235 165.505H253.08C252.462 166.741 251.999 167.591 251.69 167.977L245.432 177.093H240.797L243.192 159.788H247.75L246.514 168.209C246.436 168.981 246.127 169.986 245.741 171.299H245.973C246.359 170.295 246.9 169.445 247.363 168.672L253.544 159.788H258.102L255.784 177.093Z" fill="#00497E"/>
<path d="M273.94 177.093H269.459L270.696 168.363C270.85 167.359 271.082 166.432 271.391 165.505H271.236C270.618 166.741 270.155 167.591 269.846 167.977L263.588 177.093H258.953L261.348 159.788H265.906L264.67 168.209C264.593 168.981 264.284 169.986 263.897 171.299H264.129C264.515 170.295 265.056 169.445 265.52 168.672L271.7 159.788H276.258L273.94 177.093ZM271.005 154.458H273.786C273.786 155.617 273.322 156.621 272.472 157.393C271.623 158.166 270.541 158.552 269.151 158.552C267.683 158.552 266.524 158.166 265.751 157.393C264.979 156.621 264.824 155.617 265.133 154.458H268.069C267.837 155.23 267.914 155.694 268.069 156.003C268.223 156.312 268.687 156.466 269.228 156.466C270.387 156.389 271.005 155.771 271.005 154.458Z" fill="#00497E"/>
<path d="M82.7478 199.033V199.187C83.2113 199.265 83.6748 199.342 83.9838 199.496C84.2929 199.651 84.6019 199.728 84.9109 199.883C85.1426 200.037 85.3744 200.269 85.6062 200.578C85.7607 200.887 85.9152 201.196 86.0697 201.582C86.2242 201.891 86.3787 202.432 86.4559 203.05C86.6104 203.668 86.6877 204.286 86.8422 204.904C86.9195 205.522 87.074 206.295 87.2285 207.299C87.3057 207.685 87.3057 207.917 87.383 208.071H82.5933C82.1298 204.827 81.8207 202.973 81.7435 202.509C81.5117 201.582 81.1255 201.041 80.5074 200.887C80.1984 200.81 79.8122 200.732 79.3487 200.732H78.3444C78.4216 201.35 78.4216 201.891 78.3444 202.432L77.5718 208.149H72.8594L75.2542 190.844H79.9667L79.2714 195.556C79.1169 196.406 78.9624 197.102 78.8079 197.642H79.5804C80.6619 197.642 81.5117 197.179 82.0525 196.406C82.5933 195.556 83.4431 193.78 84.4474 190.921H89.3143C88.0783 193.934 87.2285 195.788 86.9195 196.406C86.3014 197.565 85.5289 198.338 84.6019 198.724C84.0611 198.801 83.4431 198.878 82.7478 199.033Z" fill="#989898"/>
<path d="M98.1218 190.458C100.98 190.458 102.911 191.153 103.993 192.466C105.075 193.78 105.384 196.174 104.92 199.651C104.688 201.428 104.379 202.818 103.916 203.977C103.452 205.136 102.911 205.986 102.216 206.681C101.521 207.376 100.671 207.84 99.7441 208.071C98.817 208.303 97.6582 208.458 96.2677 208.458C93.4093 208.458 91.4007 207.762 90.3964 206.449C89.3921 205.136 89.0831 202.741 89.5467 199.265C90.0102 195.865 90.86 193.548 92.096 192.312C93.4093 191.076 95.4179 190.458 98.1218 190.458ZM98.0445 194.011C96.963 194.011 96.1904 194.398 95.7269 195.093C95.2634 195.788 94.8771 197.333 94.4909 199.574C94.1818 201.659 94.1819 203.05 94.4136 203.745C94.6454 204.441 95.3406 204.75 96.4222 204.75C97.5037 204.75 98.3535 204.363 98.817 203.668C99.2805 202.973 99.6668 201.428 100.053 199.187C100.362 197.024 100.362 195.634 100.13 195.016C99.8213 194.398 99.126 194.011 98.0445 194.011Z" fill="#989898"/>
<path d="M122.454 190.767H126.78C127.321 190.767 127.707 190.921 128.016 191.23C128.325 191.539 128.403 192.003 128.325 192.544L126.78 208.072H122.531L123.922 194.398H123.536L120.059 204.132C119.75 205.059 119.132 205.522 118.128 205.522H115.579C115.115 205.522 114.651 205.368 114.342 205.136C114.033 204.827 113.879 204.518 113.879 203.977L113.106 194.398H112.643L110.248 208.072H105.922L108.78 192.389C108.858 191.848 109.089 191.462 109.321 191.153C109.553 190.844 110.016 190.767 110.557 190.767H114.729C115.192 190.767 115.579 190.921 115.888 191.153C116.197 191.462 116.351 191.771 116.351 192.312L116.969 199.96C117.046 200.733 117.046 201.582 116.969 202.509H117.278C117.433 201.891 117.664 201.042 117.973 200.037L120.6 192.157C120.832 191.23 121.45 190.767 122.454 190.767Z" fill="#989898"/>
<path d="M146.561 190.767L144.166 208.072H139.454L141.462 194.011H136.518L134.509 208.072H129.797L132.192 190.767H146.561Z" fill="#989898"/>
<path d="M163.94 190.767L161.545 208.072H156.833L158.841 194.011H157.528C156.987 194.011 156.601 194.089 156.369 194.32C156.138 194.552 155.906 194.939 155.829 195.479C154.824 200.037 153.897 202.973 153.279 204.363C152.429 205.986 151.502 207.145 150.344 207.685C149.185 208.226 147.871 208.381 146.326 208.149L146.172 204.518C147.022 204.363 147.64 204.209 147.949 203.977C148.335 203.745 148.721 203.282 148.953 202.741C149.648 201.428 150.498 198.647 151.348 194.32C151.889 192.003 153.356 190.767 155.829 190.767H163.94Z" fill="#989898"/>
<path d="M178.62 194.32H172.362C171.899 194.32 171.59 194.398 171.435 194.552C171.281 194.707 171.126 195.016 171.049 195.479L170.74 197.565H177.229L176.843 200.81H170.276L169.89 203.436C169.813 203.822 169.89 204.132 170.045 204.286C170.199 204.441 170.508 204.518 170.894 204.518H177.075L176.997 207.917C175.607 208.071 172.903 208.149 168.963 208.149C167.573 208.149 166.491 207.762 165.873 206.913C165.178 206.14 164.946 205.059 165.1 203.668L166.414 194.32C166.568 193.162 167.032 192.312 167.804 191.616C168.577 190.998 169.504 190.689 170.74 190.689C174.757 190.689 177.538 190.767 179.083 190.998L178.62 194.32Z" fill="#989898"/>
<path d="M189.279 199.033V199.187C189.743 199.265 190.206 199.342 190.515 199.496C190.824 199.651 191.133 199.728 191.442 199.883C191.674 200.037 191.906 200.269 192.137 200.578C192.292 200.887 192.446 201.196 192.601 201.582C192.755 201.891 192.91 202.432 192.987 203.05C193.142 203.668 193.219 204.286 193.373 204.904C193.528 205.522 193.605 206.295 193.76 207.299C193.837 207.685 193.837 207.917 193.914 208.071H189.125C188.661 204.827 188.352 202.973 188.275 202.509C188.043 201.582 187.657 201.041 187.039 200.887C186.73 200.81 186.343 200.732 185.88 200.732H184.876C184.953 201.35 184.953 201.891 184.876 202.432L184.103 208.149H179.391L181.785 190.844H186.498L185.803 195.556C185.648 196.406 185.494 197.102 185.339 197.642H186.112C187.193 197.642 188.043 197.179 188.584 196.406C189.125 195.556 189.974 193.78 190.979 190.921H195.846C194.609 193.934 193.76 195.788 193.451 196.406C192.833 197.565 192.06 198.338 191.133 198.724C190.67 198.801 190.052 198.878 189.279 199.033Z" fill="#989898"/>
<path d="M208.284 204.132L208.438 207.608C206.816 208.071 204.885 208.381 202.644 208.381C199.863 208.381 197.932 207.685 196.928 206.295C195.923 204.904 195.614 202.587 196.078 199.265C196.541 195.865 197.391 193.548 198.627 192.312C199.863 191.076 201.872 190.458 204.653 190.458C206.739 190.458 208.516 190.69 210.061 191.076L209.52 194.475C207.743 194.398 206.044 194.398 204.421 194.398C203.649 194.398 203.108 194.552 202.722 194.784C202.335 195.016 202.026 195.479 201.717 196.252C201.408 197.024 201.177 198.106 201.022 199.574C200.713 201.505 200.713 202.741 200.945 203.359C201.177 203.977 201.795 204.286 202.876 204.286C205.117 204.363 206.893 204.286 208.284 204.132Z" fill="#989898"/>
<path d="M81.5095 198.106V198.26C81.973 198.338 82.4365 198.415 82.7456 198.569C83.0546 198.724 83.3636 198.801 83.6726 198.956C83.9044 199.11 84.1361 199.342 84.3679 199.651C84.5224 199.96 84.6769 200.269 84.8314 200.655C84.9859 200.964 85.1404 201.505 85.2177 202.123C85.3722 202.741 85.4494 203.359 85.6039 203.977C85.6812 204.595 85.8357 205.368 85.9902 206.372C86.0674 206.758 86.0674 206.99 86.1447 207.144H81.355C80.8915 203.9 80.5825 202.046 80.5052 201.582C80.2735 200.655 79.8872 200.114 79.2692 199.96C78.9601 199.883 78.5739 199.805 78.1104 199.805H77.1061C77.1833 200.423 77.1833 200.964 77.1061 201.505L76.3335 207.222H71.6211L74.0159 189.917H78.7284L78.0331 194.629C77.8786 195.479 77.7241 196.175 77.5696 196.715H78.3421C79.4237 196.715 80.2735 196.252 80.8142 195.479C81.355 194.629 82.2048 192.853 83.2091 189.994H88.076C86.84 193.007 85.9902 194.861 85.6812 195.479C85.0632 196.638 84.2906 197.411 83.3636 197.797C82.8228 197.874 82.2048 197.951 81.5095 198.106Z" fill="#00497E"/>
<path d="M96.8835 189.531C99.7418 189.531 101.673 190.226 102.755 191.539C103.836 192.853 104.145 195.247 103.682 198.724C103.45 200.501 103.141 201.891 102.677 203.05C102.214 204.209 101.673 205.059 100.978 205.754C100.283 206.449 99.4328 206.913 98.5058 207.144C97.5787 207.376 96.4199 207.531 95.0294 207.531C92.171 207.531 90.1625 206.835 89.1582 205.522C88.1539 204.209 87.8449 201.814 88.3084 198.338C88.7719 194.938 89.6217 192.621 90.8577 191.385C92.171 190.149 94.1796 189.531 96.8835 189.531ZM96.8062 193.084C95.7247 193.084 94.9521 193.471 94.4886 194.166C94.0251 194.861 93.6388 196.406 93.2526 198.647C92.9436 200.732 92.9436 202.123 93.1753 202.818C93.4071 203.514 94.1024 203.823 95.1839 203.823C96.2655 203.823 97.1152 203.436 97.5788 202.741C98.0423 202.046 98.4285 200.501 98.8148 198.26C99.1238 196.097 99.1238 194.707 98.892 194.089C98.583 193.471 97.8878 193.084 96.8062 193.084Z" fill="#00497E"/>
<path d="M121.219 189.84H125.545C126.086 189.84 126.472 189.994 126.781 190.303C127.09 190.612 127.167 191.076 127.09 191.617L125.545 207.145H121.296L122.687 193.471H122.3L118.824 203.205C118.515 204.132 117.897 204.595 116.893 204.595H114.266C113.803 204.595 113.339 204.441 113.03 204.209C112.721 203.9 112.566 203.591 112.566 203.05L111.794 193.471H111.33L108.936 207.145H104.609L107.468 191.462C107.545 190.921 107.777 190.535 108.009 190.226C108.24 189.917 108.704 189.84 109.245 189.84H113.416C113.88 189.84 114.266 189.994 114.575 190.226C114.884 190.535 115.039 190.844 115.039 191.385L115.657 199.033C115.734 199.806 115.734 200.655 115.657 201.582H115.966C116.12 200.964 116.352 200.115 116.661 199.11L119.287 191.23C119.597 190.303 120.215 189.84 121.219 189.84Z" fill="#00497E"/>
<path d="M145.319 189.84L142.924 207.145H138.211L140.22 193.084H135.276L133.267 207.145H128.555L130.95 189.84H145.319Z" fill="#00497E"/>
<path d="M162.702 189.84L160.307 207.145H155.595L157.603 193.084H156.29C155.749 193.084 155.363 193.162 155.131 193.393C154.899 193.625 154.667 194.012 154.59 194.552C153.586 199.11 152.659 202.046 152.041 203.436C151.191 205.059 150.264 206.218 149.105 206.758C147.946 207.299 146.633 207.454 145.088 207.222L144.934 203.591C145.783 203.436 146.401 203.282 146.71 203.05C147.097 202.818 147.483 202.355 147.715 201.814C148.41 200.501 149.26 197.72 150.11 193.393C150.65 191.076 152.118 189.84 154.59 189.84H162.702Z" fill="#00497E"/>
<path d="M177.381 193.393H171.124C170.66 193.393 170.351 193.471 170.197 193.625C170.042 193.78 169.888 194.089 169.811 194.552L169.502 196.638H175.991L175.605 199.883H169.038L168.652 202.509C168.575 202.896 168.652 203.205 168.806 203.359C168.961 203.514 169.27 203.591 169.656 203.591H175.836L175.759 206.99C174.369 207.144 171.665 207.222 167.725 207.222C166.334 207.222 165.253 206.835 164.635 205.986C163.939 205.213 163.708 204.132 163.862 202.741L165.175 193.393C165.33 192.235 165.793 191.385 166.566 190.689C167.339 190.071 168.266 189.762 169.502 189.762C173.519 189.762 176.3 189.84 177.845 190.071L177.381 193.393Z" fill="#00497E"/>
<path d="M188.044 198.106V198.26C188.507 198.338 188.971 198.415 189.28 198.569C189.589 198.724 189.898 198.801 190.207 198.956C190.439 199.11 190.67 199.342 190.902 199.651C191.057 199.96 191.211 200.269 191.366 200.655C191.52 200.964 191.675 201.505 191.752 202.123C191.906 202.741 191.984 203.359 192.138 203.977C192.293 204.595 192.37 205.368 192.524 206.372C192.602 206.758 192.602 206.99 192.679 207.144H187.889C187.426 203.9 187.117 202.046 187.04 201.582C186.808 200.655 186.421 200.114 185.803 199.96C185.494 199.883 185.108 199.805 184.645 199.805H183.563C183.64 200.423 183.64 200.964 183.563 201.505L182.791 207.222H178.078L180.473 189.917H185.185L184.49 194.629C184.336 195.479 184.181 196.175 184.027 196.715H184.799C185.881 196.715 186.73 196.252 187.271 195.479C187.812 194.629 188.662 192.853 189.666 189.994H194.533C193.297 193.007 192.447 194.861 192.138 195.479C191.52 196.638 190.748 197.411 189.821 197.797C189.434 197.874 188.816 197.951 188.044 198.106Z" fill="#00497E"/>
<path d="M207.046 203.205L207.2 206.681C205.578 207.145 203.646 207.454 201.406 207.454C198.625 207.454 196.694 206.758 195.689 205.368C194.685 203.977 194.376 201.66 194.84 198.338C195.303 194.938 196.153 192.621 197.389 191.385C198.625 190.149 200.634 189.531 203.415 189.531C205.501 189.531 207.277 189.763 208.822 190.149L208.282 193.548C206.505 193.471 204.805 193.471 203.183 193.471C202.41 193.471 201.87 193.625 201.483 193.857C201.097 194.089 200.788 194.552 200.479 195.325C200.17 196.097 199.938 197.179 199.784 198.647C199.475 200.578 199.475 201.814 199.707 202.432C199.938 203.05 200.556 203.359 201.638 203.359C203.801 203.436 205.655 203.359 207.046 203.205Z" fill="#00497E"/>
<g opacity="0.9">
<path opacity="0.9" d="M157.208 82.2924C157.288 76.8383 156.165 71.7051 154.481 66.5718C153.599 63.8448 151.834 58.7918 150.791 56.1449C137.878 61.1178 142.209 51.5731 132.183 51.6533C127.692 52.3752 126.248 55.1824 126.489 55.022C125.767 57.348 125.045 59.674 124.323 62C122.398 68.0958 119.751 74.0311 119.992 80.6883C120.232 86.7038 120.072 92.7995 120.072 98.815C120.072 105.793 120.072 112.851 120.072 119.829C120.072 122.396 120.152 122.476 122.799 122.476C133.306 122.476 143.813 122.476 154.32 122.476C157.208 122.476 157.208 122.476 157.208 119.589C157.128 107.157 157.047 94.7245 157.208 82.2924Z" fill="#003C68"/>
<path opacity="0.9" d="M139.002 0C98.5781 0 65.7734 32.8046 65.7734 73.2289C65.7734 113.653 98.5781 146.458 139.002 146.458C179.427 146.458 212.231 113.653 212.231 73.2289C212.231 32.8046 179.507 0 139.002 0ZM123.282 18.3674C123.202 15.8008 124.405 14.5175 126.971 14.4372C129.698 14.357 132.506 14.4372 135.233 14.357C139.885 14.357 144.617 14.357 149.269 14.357C152.798 14.357 153.921 15.4799 153.841 18.9288C153.841 21.1746 154.562 23.661 152.317 25.5058H124.806C122.48 23.5808 123.362 20.8538 123.282 18.3674ZM162.503 119.99C162.503 125.203 159.936 127.85 154.643 127.85C143.895 127.85 133.227 127.85 122.48 127.85C117.186 127.85 114.619 125.283 114.619 119.99C114.619 113.012 114.619 106.114 114.619 99.1358C114.619 92.8796 114.7 86.6235 114.619 80.3673C114.539 75.7955 115.422 71.3842 116.865 67.053C119.191 60.075 121.758 53.2574 123.843 46.1992C125.447 40.8253 124.966 35.291 124.886 29.7568H152.236C152.156 35.9327 151.755 42.1888 153.68 48.2044C155.685 54.5407 158.252 60.7167 160.097 67.053C161.3 71.3842 162.262 75.8758 162.343 80.3673C162.663 93.6015 162.503 106.836 162.503 119.99Z" fill="#003C68"/>
</g>
</svg>
