<svg width="150" height="53" viewBox="0 0 150 53" fill="none" xmlns="http://www.w3.org/2000/svg">
<path fill-rule="evenodd" clip-rule="evenodd" d="M20.425 35.0339C19.5879 35.0792 18.6112 34.162 19.9129 33.3371C21.1224 32.5574 29.7707 29.3475 32.7465 29.0723C33.4914 28.9808 33.4914 34.2543 33.1189 34.7125C32.6077 35.2168 21.2612 34.9877 20.425 35.0339ZM25.7724 28.3841C22.6569 29.5766 20.3319 30.9059 20.0526 30.5853C19.3086 29.898 21.8198 26.3205 22.8422 25.4495C24.0517 24.4407 32.2819 21.3685 32.8862 21.8728C33.3983 22.2857 33.2586 25.0827 32.8862 25.6332C32.5612 26.0914 29.0267 27.1463 25.7724 28.3841ZM20.425 23.9364C19.9595 23.9364 18.5646 19.1672 16.612 14.5357C15.6353 12.1977 13.6362 9.49218 13.6819 8.57494C13.7284 7.47476 16.8439 4.21868 18.0069 3.98958C19.1224 3.76049 24.4698 16.6455 23.912 18.9835C23.4939 20.635 21.3086 23.8902 20.425 23.9364ZM12.1008 6.87808C11.2646 6.87808 9.31119 3.48438 9.31119 2.79708C9.31119 2.20126 16.1474 1.926 16.612 2.61415C17.0767 3.30144 12.9379 6.87808 12.1017 6.87808H12.1008ZM9.31119 10.2718C8.61377 11.0052 7.96291 10.1342 7.5905 8.8955C7.21895 7.6577 5.96291 3.25613 6.38188 3.07234C6.79998 2.88855 7.91636 4.63157 8.61377 5.82407C9.35774 7.06187 10.0086 9.58365 9.31205 10.2718H9.31119ZM6.38188 19.1672C5.73101 19.4425 1.54567 16.4164 0.801704 15.7282C0.290498 15.1786 0.104291 12.9774 0.104291 12.1977C0.104291 11.4181 0.197394 4.5401 0.290498 3.98958C0.383601 3.43907 0.756015 2.65946 1.68533 2.61329C2.6155 2.56799 3.82412 3.80579 4.28877 5.68644C4.75429 7.56623 6.66119 15.9573 6.70774 17.1045C6.79998 18.2962 7.03274 18.892 6.38188 19.1672ZM9.6836 32.1446C10.381 32.878 9.86895 34.8963 9.86895 34.8963C9.86895 34.8963 1.08101 35.4006 0.337049 34.5749C-0.220709 33.979 -0.0353645 29.3475 0.523256 28.7508C1.35946 27.7883 8.93964 31.4111 9.6836 32.1446ZM4.66119 27.1925C2.75515 26.5505 1.17412 26.3667 0.662049 25.8162C0.058601 25.1751 0.104291 19.7639 0.662049 18.9843C1.31377 18.1585 7.21895 22.6986 7.7767 23.5697C8.33446 24.4869 9.7767 28.4303 9.17153 28.7055C8.52067 28.9808 6.80084 27.9259 4.66119 27.1925ZM11.2181 11.4634C12.3336 11.7849 14.6586 16.9669 15.2164 18.8005C16.1931 21.919 17.4948 25.358 17.4491 27.6968C17.4491 28.9808 15.8215 31.824 15.2164 31.9616C14.5655 32.0984 12.8457 31.594 11.9146 30.4485C11.45 29.898 11.45 26.5958 10.8922 23.1115C10.2879 19.3972 9.12498 15.4991 9.17153 14.7657C9.21808 13.2979 10.1948 11.189 11.2181 11.4643V11.4634Z" fill="#00A217"/>
<path fill-rule="evenodd" clip-rule="evenodd" d="M31.8647 8.94178C31.5854 8.94178 31.3527 7.38255 30.8415 5.86949C30.3303 4.44789 29.5863 3.02629 29.819 2.7972C30.2837 2.339 32.5156 2.29284 32.9337 2.7972C33.3527 3.30155 33.8173 6.14475 33.4458 6.74057C33.0268 7.29109 32.3768 8.94178 31.8647 8.94178ZM26.657 15.7745C25.8665 15.683 25.3553 11.9226 23.8665 8.75884C22.4716 5.77802 20.5647 3.43918 20.7509 3.11862C21.1699 2.47663 25.913 2.47663 26.6561 2.93483C28.0053 3.85207 29.8647 10.2719 29.4466 11.6473C29.0751 12.7022 27.3544 15.8207 26.657 15.7745ZM33.0734 15.7745C33.5389 16.0951 33.5389 18.021 33.2596 18.6639C33.0734 19.0759 31.1208 19.7179 29.1216 20.3599C27.4009 20.9104 25.8665 21.7362 25.494 21.3686C25.1225 21.048 28.5165 16.8294 29.4932 16.4165C30.3294 16.0489 32.469 15.3616 33.0734 15.7745Z" fill="#FFA700"/>
<path d="M42.7461 16.1871V3.53038C44.215 3.4039 45.6889 3.34286 47.1633 3.34745C48.6978 3.34745 49.7668 3.62271 50.372 4.17237C50.9763 4.72288 51.2556 5.77776 51.2556 7.29082C51.2556 8.80388 50.9763 9.85876 50.372 10.4093C49.8142 10.9589 48.7909 11.2342 47.303 11.2342C46.3263 11.2342 45.303 11.1889 44.3271 11.0513V16.0948H42.7461V16.1871ZM44.3737 9.90406H47.1168C48.0935 9.90406 48.7444 9.72113 49.0702 9.3544C49.4418 8.98682 49.5814 8.34569 49.5814 7.33698C49.5814 6.32827 49.3952 5.64013 49.0237 5.31956C48.6513 4.95198 48.0004 4.76905 47.0702 4.76905H44.3271V9.90492H44.3737V9.90406ZM54.1849 4.72374C54.9289 3.76034 56.2306 3.30129 58.1375 3.30129C60.0435 3.30129 61.3461 3.76034 62.0901 4.72288C62.834 5.68629 63.2056 7.38229 63.2056 9.85876C63.2056 12.3352 62.834 14.0312 62.0901 14.9946C61.3461 15.9572 60.0435 16.4162 58.1375 16.4162C56.2306 16.4162 54.9289 15.9572 54.1849 14.9946C53.4409 14.0312 53.0694 12.3352 53.0694 9.85876C53.0228 7.38229 53.4409 5.68629 54.1849 4.72288V4.72374ZM60.7409 5.86922C60.2763 5.13577 59.3926 4.76905 58.1375 4.76905C56.8823 4.76905 55.9987 5.13577 55.534 5.86922C55.0685 6.60267 54.7892 7.9328 54.7892 9.85876C54.7892 11.7847 55.022 13.1148 55.5332 13.8483C55.9987 14.5817 56.8823 14.9485 58.1366 14.9485C59.3926 14.9485 60.2763 14.5817 60.7418 13.8483C61.2064 13.1148 61.4849 11.7847 61.4849 9.85876C61.4849 7.9328 61.2064 6.60267 60.7418 5.86922H60.7409ZM73.7607 14.7655L73.947 15.9572C72.9245 16.2324 71.6685 16.3701 70.1806 16.3701C68.3211 16.3701 67.0185 15.8657 66.2754 14.9032C65.5306 13.9398 65.159 12.2429 65.159 9.81259C65.159 7.38229 65.5306 5.73159 66.2745 4.72288C67.0185 3.76119 68.3211 3.25684 70.1806 3.25684C71.5289 3.25684 72.6918 3.39361 73.6685 3.62356L73.4823 4.86137C72.3659 4.7699 71.2495 4.67758 70.134 4.67758C68.8788 4.67758 67.9961 5.04516 67.5306 5.77861C67.0651 6.51206 66.8323 7.84219 66.8323 9.76814C66.8323 11.6941 67.0651 13.0234 67.5306 13.7577C67.9961 14.4911 68.8788 14.8579 70.134 14.8579C71.622 14.9946 72.8314 14.904 73.7607 14.7664V14.7655ZM85.1073 4.95198H80.9694V16.1871H79.3409V4.95198H75.203V3.53038H85.1073V4.95198Z" fill="#00A217"/>
<path d="M94.9167 3.53048V16.1872H93.2891V4.86061H90.7314C89.8943 4.86061 89.4296 5.2735 89.3365 6.14458C89.1969 7.9329 89.0572 9.17071 88.9641 9.81269C88.8719 10.4547 88.7788 11.1428 88.5926 11.8763C88.4671 12.5452 88.2481 13.1934 87.9417 13.8022C87.1977 15.4076 86.1279 16.1872 84.6865 16.1872L84.5469 14.9486C85.3839 14.6733 86.0348 14.169 86.4072 13.344C86.7322 12.5644 87.0115 11.7386 87.1512 10.7761C87.2908 9.85885 87.4762 8.20816 87.6624 5.82402C87.8021 4.26479 88.6391 3.53048 90.2202 3.53048H94.9167ZM104.868 12.243H99.5667L98.3107 16.1872H96.6365L100.775 3.98868C100.868 3.71427 101.055 3.53048 101.38 3.53048H103.1C103.426 3.53048 103.658 3.66811 103.705 3.98953L107.843 16.1872H106.169L104.868 12.243ZM104.449 10.8223L102.821 5.77785C102.728 5.45644 102.589 5.13587 102.496 4.76915H101.984L101.659 5.77785L100.031 10.8214H104.449V10.8223ZM119.189 16.1872H117.608V6.97035C117.608 6.37368 117.655 5.91548 117.701 5.5026H117.608C117.468 5.91548 117.237 6.37453 116.957 6.87889L111.237 16.1872H109.564V3.53048H111.145V12.6559C111.145 13.1149 111.099 13.6193 111.052 14.169H111.145C111.33 13.7569 111.563 13.2979 111.889 12.7935L117.515 3.53048H119.189V16.1872ZM115.98 0H117.19C117.237 0.733452 117.004 1.33013 116.493 1.83448C115.981 2.29268 115.283 2.56794 114.399 2.56794C113.516 2.56794 112.818 2.33884 112.307 1.83448C111.796 1.37544 111.563 0.733452 111.61 0H112.818C112.818 0.504355 112.958 0.917242 113.237 1.23781C113.516 1.51306 113.888 1.65069 114.399 1.65069C114.912 1.65069 115.283 1.51392 115.562 1.23781C115.887 0.917242 115.98 0.504355 115.98 0ZM131.093 3.53048V16.1872H129.466V10.1341H123.56V16.1864H121.932V3.53048H123.56V8.71252H129.466V3.53048H131.093Z" fill="#FFA700"/>
<path d="M49.5317 30.586H44.2317L42.9765 34.5286H41.3007L45.4386 22.3317C45.5326 22.0565 45.7179 21.8727 46.0438 21.8727H47.7645C48.0895 21.8727 48.3222 22.0103 48.3679 22.3317L52.5067 34.5286H50.8351L49.5334 30.5852L49.5317 30.586ZM49.1136 29.1636L47.486 24.12C47.3929 23.7986 47.2532 23.4781 47.161 23.1113H46.6489L46.3239 24.12L44.6963 29.1636H49.1136ZM54.2282 34.5286V24.2577C54.2282 23.5695 54.461 22.9737 54.8791 22.5608C55.2981 22.1018 55.9024 21.8727 56.5532 21.8727C58.9713 21.8727 60.7386 21.9188 61.855 22.0103L61.761 23.2481H57.0653C56.5998 23.2481 56.2748 23.3404 56.0886 23.5695C55.9024 23.7533 55.8093 24.12 55.8093 24.5782V34.5286H54.2282ZM63.7145 34.5286V21.8727C65.1834 21.7462 66.6573 21.6851 68.1317 21.6897C69.6662 21.6897 70.7351 21.965 71.3403 22.5147C71.9446 23.0652 72.2239 24.12 72.2239 25.6331C72.2239 27.1462 71.9446 28.201 71.3403 28.7507C70.7826 29.3012 69.7593 29.5765 68.2714 29.5765C67.2946 29.5765 66.2714 29.5303 65.2955 29.3935V34.4371H63.7145V34.5286ZM65.342 28.2463H68.0852C69.0619 28.2463 69.7127 28.0634 70.0386 27.6967C70.4101 27.3291 70.5498 26.688 70.5498 25.6793C70.5498 24.6706 70.3636 23.9824 69.992 23.6618C69.6196 23.2943 68.9688 23.1113 68.0386 23.1113H65.2955V28.2472H65.342V28.2463ZM75.1533 23.0652C75.8972 22.1018 77.1989 21.6436 79.1058 21.6436C81.0119 21.6436 82.3145 22.1018 83.0584 23.0652C83.8024 24.0277 84.1739 25.7246 84.1739 28.201C84.1739 30.6767 83.8024 32.3735 83.0584 33.3369C82.3145 34.2995 81.0119 34.7585 79.1058 34.7585C77.1989 34.7585 75.8972 34.2995 75.1533 33.3369C74.4093 32.3735 74.0369 30.6775 74.0369 28.201C74.0369 25.7246 74.4093 24.0277 75.1533 23.0652ZM81.7093 24.2115C81.2446 23.4781 80.361 23.1113 79.1058 23.1113C77.8507 23.1113 76.967 23.4781 76.5024 24.2115C76.0369 24.945 75.7576 26.2751 75.7576 28.201C75.7576 30.127 75.9903 31.4563 76.5015 32.1906C76.967 32.924 77.8507 33.2908 79.105 33.2908C80.361 33.2908 81.2446 32.9232 81.7093 32.1906C82.1748 31.4563 82.4533 30.127 82.4533 28.201C82.4533 26.2751 82.2205 24.945 81.7093 24.2115ZM94.7291 33.1078L94.9153 34.2995C93.8929 34.5747 92.6369 34.7123 91.1489 34.7123C89.2895 34.7123 87.9869 34.208 87.2429 33.2446C86.4989 32.282 86.1274 30.586 86.1274 28.1549C86.1274 25.7246 86.4989 24.0739 87.2429 23.0652C87.9869 22.1018 89.2895 21.5974 91.1489 21.5974C92.4972 21.5974 93.6601 21.735 94.6369 21.965L94.4507 23.2028C93.3343 23.1113 92.2188 23.019 91.1024 23.019C89.8472 23.019 88.9636 23.3866 88.4989 24.12C88.0334 24.8535 87.8007 26.1836 87.8007 28.1087C87.8007 30.0355 88.0334 31.3657 88.4989 32.0983C88.9636 32.8326 89.8472 33.1993 91.1024 33.1993C92.5903 33.3361 93.7998 33.2446 94.7291 33.107V33.1078ZM104.634 33.1993L104.727 34.4371C103.564 34.5286 101.751 34.5286 99.2403 34.5286C98.4498 34.5286 97.8446 34.3456 97.4265 33.9327C97.0076 33.5198 96.7757 33.0155 96.7757 32.3282V24.0277C96.7757 23.3404 97.0076 22.8361 97.4265 22.4232C97.8912 22.0103 98.4964 21.8274 99.2403 21.8274C101.751 21.8274 103.564 21.8727 104.727 21.9188L104.634 23.2028H99.4722C99.1007 23.2028 98.8214 23.2943 98.6351 23.4781C98.4498 23.661 98.3567 23.9824 98.3567 24.3953V27.1462H103.89V28.4301H98.3567V31.9153C98.3567 32.3282 98.4498 32.6488 98.6351 32.8326C98.8214 33.0155 99.1007 33.1078 99.4722 33.1078H104.634V33.1993ZM106.773 34.5286V21.8727C108.242 21.7462 109.716 21.6851 111.19 21.6897C112.725 21.6897 113.795 21.965 114.399 22.5147C115.003 23.0652 115.283 24.12 115.283 25.6331C115.283 27.1462 115.003 28.201 114.399 28.7507C113.841 29.3012 112.818 29.5765 111.33 29.5765C110.353 29.5765 109.33 29.5303 108.354 29.3935V34.4371H106.773V34.5286ZM108.401 28.2463H111.144C112.12 28.2463 112.771 28.0634 113.096 27.6967C113.469 27.3291 113.608 26.688 113.608 25.6793C113.608 24.6706 113.422 23.9824 113.051 23.6618C112.678 23.2943 112.027 23.1113 111.097 23.1113H108.354V28.2472H108.401V28.2463ZM123.606 27.9258V28.0173C124.536 28.1096 125.187 28.4301 125.605 28.9807C125.977 29.5303 126.209 30.3561 126.209 31.411C126.209 32.6949 125.884 33.5652 125.28 34.0242C124.675 34.4832 123.606 34.7123 122.118 34.7123C120.071 34.7123 118.49 34.6662 117.375 34.5747V21.9188C118.352 21.8274 119.746 21.7812 121.559 21.7812C123.14 21.7812 124.257 22.0103 124.908 22.4693C125.512 22.9275 125.838 23.7986 125.838 25.0826C125.838 25.9998 125.652 26.688 125.327 27.1462C124.954 27.5591 124.396 27.8343 123.606 27.9258ZM118.956 27.3753H121.699C122.676 27.3753 123.327 27.1923 123.652 26.9171C124.024 26.6418 124.21 26.0451 124.21 25.2202C124.21 24.3953 124.024 23.7986 123.606 23.5234C123.233 23.2481 122.489 23.1113 121.42 23.1113H118.909V27.3753H118.956ZM118.956 28.5678V33.2446H121.839C122.862 33.2446 123.606 33.1078 123.977 32.7864C124.35 32.5111 124.536 31.9145 124.536 31.0442C124.536 30.0808 124.35 29.4388 123.931 29.0721C123.513 28.7507 122.815 28.5678 121.745 28.5216H118.956V28.5678ZM138.02 34.5286H136.439V25.3117C136.439 24.7159 136.486 24.2577 136.533 23.8448H136.439C136.3 24.2577 136.068 24.7159 135.789 25.2211L130.115 34.5286H128.441V21.8727H130.022V30.9981C130.022 31.4563 129.976 31.9615 129.93 32.5111H130.022C130.208 32.0983 130.441 31.6401 130.766 31.1348L136.393 21.8727H138.067V34.5286H138.02ZM148.948 33.107L149.133 34.2995C148.111 34.5747 146.855 34.7123 145.367 34.7123C143.508 34.7123 142.206 34.208 141.461 33.2446C140.717 32.282 140.345 30.586 140.345 28.1549C140.345 25.7246 140.717 24.0739 141.461 23.0652C142.206 22.1018 143.508 21.5974 145.367 21.5974C146.716 21.5974 147.878 21.735 148.855 21.965L148.669 23.2028C147.553 23.1113 146.437 23.019 145.32 23.019C144.065 23.019 143.182 23.3866 142.717 24.12C142.252 24.8535 142.02 26.1836 142.02 28.1087C142.02 30.0355 142.252 31.3657 142.717 32.0983C143.182 32.8326 144.065 33.1993 145.32 33.1993C146.809 33.3361 147.971 33.2446 148.948 33.107ZM3.82825 43.4693C3.08428 43.4693 2.49635 43.7155 2.06445 44.2087C1.63514 44.6986 1.42049 45.3705 1.42049 46.2245C1.42049 47.1024 1.62739 47.782 2.04118 48.2633C2.45756 48.7402 3.0498 48.9788 3.81876 48.9788C4.29118 48.9788 4.82997 48.895 5.43514 48.7266V49.4104C4.96532 49.5848 4.38687 49.672 3.69894 49.672C2.70152 49.672 1.9317 49.3728 1.38859 48.7727C0.848075 48.1726 0.578247 47.3195 0.578247 46.2151C0.578247 45.5226 0.707557 44.9174 0.966178 44.3968C1.21325 43.8929 1.6069 43.474 2.09635 43.1941C2.59032 42.912 3.17049 42.7718 3.83773 42.7718C4.54721 42.7718 5.1679 42.9 5.69894 43.1564L5.36532 43.8275C4.88614 43.5964 4.36107 43.4741 3.82825 43.4693ZM9.36618 42.8684L6.84204 49.5806H6.07394L8.59721 42.8684H9.36618ZM14.8989 49.5806H14.0058L12.186 46.6279L10.3334 49.5806H9.50066L11.7507 46.0732L9.65325 42.8675H10.5239L12.205 45.5261L13.8989 42.8675H14.7369L12.6395 46.0449L14.8989 49.5806ZM20.4136 49.5806H19.6265V43.5616H17.4826V42.8675H22.5576V43.5616H20.4136V49.5806ZM27.3541 49.5806H23.5808V42.8684H27.3541V43.5608H24.3679V45.7235H27.1739V46.4125H24.3679V48.883H27.3541V49.5806ZM33.3645 49.5806H32.4705L30.6515 46.6279L28.7989 49.5806H27.9653L30.2153 46.0732L28.1188 42.8675H28.9895L30.6705 45.5261L32.3645 42.8675H33.2024L31.105 46.0449L33.3645 49.5806ZM39.4722 49.5806H38.6851V46.4219H35.1196V49.5806H34.3326V42.8684H35.1196V45.7235H38.6851V42.8684H39.4722V49.5806ZM41.3429 42.8684H42.0782V46.6006C42.0782 47.2896 42.0567 47.9119 42.0136 48.4693H42.0507L45.8481 42.8675H46.7093V49.5806H45.9679V45.8842C45.9679 45.2687 45.9938 44.6233 46.0472 43.9472H46.005L42.2032 49.5806H41.3429V42.8684ZM53.436 49.5806H52.4817L49.3524 46.1783V49.5806H48.5644V42.8684H49.3515V46.1185L52.4032 42.8675H53.3058L50.3101 46.1279L53.4369 49.5806H53.436ZM58.6257 49.5806L57.7834 47.4452H55.0705L54.2377 49.5806H53.4412L56.1179 42.8402H56.78L59.442 49.5806H58.6274H58.6257ZM57.5386 46.7425L56.7515 44.6635C56.6489 44.4002 56.5446 44.0771 56.436 43.6941C56.3679 43.9882 56.2714 44.3113 56.1446 44.6635L55.3481 46.7433H57.5377L57.5386 46.7425ZM62.8446 42.8684H63.5808V46.6006C63.5808 47.2896 63.5593 47.9119 63.5162 48.4693H63.5532L67.3498 42.8675H68.211V49.5806H67.4696V45.8842C67.4696 45.2687 67.4964 44.6233 67.5489 43.9472H67.5076L63.7058 49.5806H62.8438V42.8684H62.8446ZM78.4067 46.2151C78.4067 47.2896 78.1317 48.1342 77.5826 48.7497C77.036 49.3651 76.2757 49.6729 75.2998 49.6729C74.3032 49.6729 73.5326 49.3711 72.9895 48.7676C72.4489 48.1615 72.1791 47.3075 72.1791 46.2057C72.1791 45.1132 72.4507 44.2669 72.9938 43.6668C73.5369 43.0641 74.3093 42.7624 75.3093 42.7624C76.2817 42.7624 77.0412 43.0684 77.5869 43.6805C78.1334 44.2925 78.4067 45.138 78.4067 46.2151ZM73.0127 46.2151C73.0127 47.1238 73.2067 47.8136 73.5964 48.2855C73.9877 48.7539 74.5558 48.9882 75.2998 48.9882C76.0498 48.9882 76.6162 48.7539 76.9989 48.2855C77.3817 47.8179 77.5731 47.1272 77.5731 46.2151C77.5731 45.3123 77.3817 44.6276 76.9989 44.1634C76.6196 43.6941 76.0558 43.4599 75.3093 43.4599C74.5593 43.4599 73.9877 43.6958 73.5964 44.1669C73.2067 44.6353 73.0127 45.3183 73.0127 46.2151ZM84.3102 47.6247C84.3102 48.2915 84.1093 48.7847 83.7084 49.1036C83.3101 49.4216 82.7084 49.5806 81.9024 49.5806H79.9213V42.8684H83.9127V43.5608H80.7093V45.7338H81.7601C82.355 45.7338 82.8403 45.8022 83.2136 45.9407C83.5877 46.0749 83.8636 46.2757 84.0429 46.5416C84.2214 46.8083 84.311 47.1691 84.311 47.6255L84.3102 47.6247ZM80.7084 48.9052H81.8145C82.4007 48.9052 82.8274 48.8061 83.0929 48.6069C83.361 48.4086 83.4955 48.0803 83.4955 47.6238C83.4955 47.1896 83.3593 46.8801 83.0877 46.6972C82.8162 46.5134 82.342 46.4219 81.6662 46.4219H80.7084V48.9052ZM91.6119 46.2151C91.6119 47.2896 91.3377 48.1342 90.7877 48.7497C90.242 49.3651 89.4808 49.6729 88.505 49.6729C87.5084 49.6729 86.7377 49.3711 86.1946 48.7676C85.655 48.1615 85.3843 47.3075 85.3843 46.2057C85.3843 45.1132 85.6558 44.2669 86.1998 43.6668C86.7429 43.0641 87.5145 42.7624 88.5145 42.7624C89.4869 42.7624 90.2464 43.0684 90.7929 43.6805C91.3395 44.2925 91.6119 45.138 91.6119 46.2151ZM86.2179 46.2151C86.2179 47.1238 86.4127 47.8136 86.8015 48.2855C87.1938 48.7539 87.7619 48.9882 88.505 48.9882C89.2558 48.9882 89.8222 48.7539 90.205 48.2855C90.5877 47.8179 90.7791 47.1272 90.7791 46.2151C90.7791 45.3123 90.5877 44.6276 90.205 44.1634C89.8248 43.6941 89.2619 43.4599 88.5145 43.4599C87.7645 43.4599 87.1938 43.6958 86.8015 44.1669C86.4127 44.6353 86.2179 45.3183 86.2179 46.2151ZM97.4188 44.8234C97.4188 45.503 97.1843 46.027 96.7145 46.3937C96.2489 46.7587 95.58 46.9408 94.7101 46.9408H93.9136V49.5806H93.1265V42.8684H94.8808C96.5731 42.8684 97.4188 43.5198 97.4188 44.8234ZM93.9136 46.2698H94.6222C95.3196 46.2698 95.8239 46.1586 96.136 45.9347C96.4481 45.7116 96.6032 45.3534 96.6032 44.8601C96.6032 44.4165 96.4567 44.0865 96.1636 43.8685C95.8705 43.6514 95.4136 43.5428 94.7929 43.5428H93.9136V46.2698ZM99.2662 49.672C98.9231 49.672 98.6222 49.6267 98.3636 49.5352V48.7727C98.6507 48.9044 98.942 48.9693 99.2386 48.9693C99.5782 48.9693 99.8498 48.8933 100.053 48.7402C100.26 48.5838 100.465 48.2932 100.669 47.8683L98.0343 42.8675H98.905L100.905 46.6835C100.983 46.8331 101.043 46.9801 101.086 47.1246H101.123C101.209 46.8673 101.27 46.7049 101.303 46.6373L102.965 42.8675H103.799L101.637 47.6708C101.377 48.2436 101.143 48.659 100.933 48.9189C100.747 49.1625 100.506 49.3593 100.229 49.4934C99.9696 49.613 99.6489 49.6729 99.2662 49.6729V49.672ZM110.069 51.3304H109.319V49.5806H104.614V51.3296H103.864V48.8736H104.387C104.863 48.0803 105.269 47.1161 105.605 45.9808C105.945 44.8456 106.133 43.8078 106.17 42.8675H109.212V48.8736H110.069V51.3296V51.3304ZM108.425 48.8736V43.5702H106.883C106.827 44.3113 106.64 45.2021 106.322 46.2424C106.005 47.2802 105.634 48.1572 105.211 48.8736H108.425ZM117.088 46.2151C117.088 47.2896 116.814 48.1342 116.264 48.7497C115.717 49.3651 114.957 49.6729 113.981 49.6729C112.984 49.6729 112.214 49.3711 111.67 48.7676C111.13 48.1615 110.86 47.3075 110.86 46.2057C110.86 45.1132 111.132 44.2669 111.675 43.6668C112.219 43.0641 112.99 42.7624 113.99 42.7624C114.963 42.7624 115.722 43.0684 116.269 43.6805C116.814 44.2925 117.088 45.138 117.088 46.2151ZM111.694 46.2151C111.694 47.1238 111.888 47.8136 112.277 48.2855C112.669 48.7539 113.237 48.9882 113.981 48.9882C114.731 48.9882 115.297 48.7539 115.68 48.2855C116.063 47.8179 116.254 47.1272 116.254 46.2151C116.254 45.3123 116.063 44.6276 115.68 44.1634C115.301 43.6941 114.737 43.4599 113.99 43.4599C113.24 43.4599 112.669 43.6958 112.277 44.1669C111.888 44.6353 111.694 45.3183 111.694 46.2151ZM118.602 42.8675H120.514C121.413 42.8675 122.063 43.0009 122.464 43.2676C122.865 43.5334 123.065 43.9549 123.065 44.5302C123.065 44.9277 122.953 45.2568 122.727 45.5175C122.505 45.774 122.18 45.9407 121.751 46.0176V46.0638C122.778 46.2381 123.292 46.7733 123.292 47.6708C123.292 48.2701 123.087 48.7394 122.677 49.0753C122.269 49.4122 121.698 49.5806 120.964 49.5806H118.602V42.8684V42.8675ZM119.389 45.7423H120.686C121.241 45.7423 121.641 45.6568 121.885 45.485C122.129 45.3106 122.251 45.0183 122.251 44.608C122.251 44.2318 122.114 43.9608 121.843 43.7959C121.571 43.6275 121.139 43.5428 120.546 43.5428H119.389V45.7423ZM119.389 46.4031V48.9146H120.802C121.348 48.9146 121.758 48.8103 122.033 48.6026C122.311 48.3915 122.45 48.0624 122.45 47.6153C122.45 47.199 122.308 46.8929 122.024 46.6972C121.743 46.5006 121.314 46.4031 120.737 46.4031H119.389ZM129.007 49.5806L128.164 47.4452H125.451L124.618 49.5806H123.821L126.497 42.8402H127.159L129.822 49.5806H129.007ZM127.919 46.7425L127.132 44.6635C127.03 44.4002 126.925 44.0771 126.817 43.6941C126.749 43.9882 126.652 44.3113 126.526 44.6635L125.729 46.7433H127.919V46.7425ZM135.892 49.5806H135.105V46.4219H131.539V49.5806H130.752V42.8684H131.539V45.7235H135.105V42.8684H135.892V49.5806ZM137.763 42.8684H138.499V46.6006C138.499 47.2896 138.477 47.9119 138.434 48.4693H138.471L142.268 42.8675H143.129V49.5806H142.389V45.8842C142.389 45.2687 142.414 44.6233 142.467 43.9472H142.426L138.624 49.5806H137.763V42.8684ZM148.759 49.5806H144.986V42.8684H148.759V43.5608H145.773V45.7235H148.579V46.4125H145.773V48.883H148.759V49.5806Z" fill="#353535"/>
</svg>
