<svg width="181" height="78" viewBox="0 0 181 78" fill="none" xmlns="http://www.w3.org/2000/svg">
<path d="M69.0225 41.5801V41.6103C69.5052 41.6706 69.8672 41.9421 70.0784 42.3645C70.2292 42.6661 70.4102 43.3298 70.6214 44.2951C70.6817 44.5666 70.7119 44.7476 70.742 44.808H69.837C69.8068 44.7175 69.7767 44.5666 69.7465 44.3555C69.6862 44.1141 69.656 43.9331 69.6258 43.8426C69.5957 43.722 69.5655 43.5711 69.5353 43.3901C69.5052 43.2091 69.4449 43.0583 69.4147 42.998C69.3845 42.9075 69.3543 42.817 69.294 42.6661C69.2337 42.5455 69.2035 42.455 69.1432 42.3946C69.0828 42.3343 69.0225 42.274 68.9622 42.1835C68.9018 42.093 68.8113 42.0628 68.751 42.0326C68.6605 42.0025 68.6002 41.9723 68.4795 41.9421C68.389 41.912 68.2683 41.912 68.1477 41.912H67.5142C67.5142 42.0628 67.5142 42.3041 67.484 42.5756L67.1823 44.808H66.2773L67.1522 38.5635H68.0572L67.7857 40.4941C67.7555 40.7355 67.7253 40.9768 67.6348 41.188H68.2382C68.4795 41.188 68.6907 41.1276 68.8717 41.0371C69.0527 40.9466 69.2638 40.7656 69.4448 40.4941C69.6258 40.2226 69.8068 39.9813 69.8973 39.8003C70.018 39.6193 70.1688 39.2573 70.4102 38.7746C70.4403 38.6841 70.4705 38.6238 70.5007 38.5635H71.4359C71.3152 38.8048 71.2247 38.9858 71.1945 39.0763C71.1644 39.1668 71.0739 39.3176 70.9834 39.5288C70.8929 39.74 70.8024 39.8908 70.7722 39.9511C70.7119 40.0416 70.6515 40.1623 70.561 40.3131C70.4705 40.4941 70.38 40.5846 70.3498 40.645C70.3197 40.7053 70.2292 40.7958 70.1387 40.9165C70.0482 41.0371 69.9577 41.1276 69.8973 41.1578C69.837 41.2181 69.7465 41.2785 69.656 41.3388C69.5655 41.3991 69.475 41.4595 69.3543 41.4896C69.2337 41.55 69.113 41.5801 69.0225 41.5801Z" fill="#003C68"/>
<path d="M72.9749 40.4341L72.9146 41.3693C73.2162 41.0676 73.5179 40.8263 73.8799 40.6151C74.2419 40.404 74.5738 40.3135 74.8453 40.3135C75.2072 40.3135 75.4787 40.3738 75.6597 40.5246C75.8407 40.6453 75.9916 40.8866 76.0519 41.2486C76.1122 41.6106 76.1122 42.0933 76.0217 42.6966C75.9614 43.1793 75.8709 43.6016 75.7502 43.9033C75.6296 44.205 75.4787 44.4463 75.2676 44.5971C75.0866 44.748 74.8754 44.8385 74.6642 44.8988C74.4531 44.9591 74.1816 44.9591 73.8799 44.9591C73.4576 44.9591 73.0051 44.929 72.4923 44.8385C72.4923 45.2005 72.4621 45.472 72.4319 45.6831L72.2811 46.6485H71.4062L72.2811 40.404L72.9749 40.4341ZM72.9146 42.033L72.6129 44.2351C72.8844 44.2351 73.2163 44.2351 73.5481 44.2351C73.8497 44.2351 74.0911 44.2351 74.2721 44.1748C74.4229 44.1446 74.5738 44.0843 74.6944 43.9335C74.8151 43.7826 74.9056 43.662 74.9659 43.4508C75.0262 43.2396 75.0866 42.9681 75.1167 42.576C75.2072 41.9123 75.2072 41.49 75.1469 41.309C75.0866 41.128 74.9056 41.0375 74.6341 41.0375C74.4229 41.0375 74.1816 41.128 73.8799 41.2788C73.5782 41.49 73.2464 41.7313 72.9146 42.033Z" fill="#003C68"/>
<path d="M80.7857 44.8385H80.0919L80.1221 44.024C79.5791 44.6273 78.9456 44.9591 78.2216 44.9591C77.6786 44.9591 77.3166 44.7781 77.1356 44.4463C76.9546 44.0843 76.9244 43.481 77.0451 42.6061C77.1054 42.1235 77.1959 41.7313 77.3166 41.3995C77.4372 41.0978 77.5881 40.8565 77.7992 40.7056C78.0104 40.5548 78.1914 40.4643 78.4026 40.404C78.6137 40.3436 78.8852 40.3135 79.2171 40.3135C79.9411 40.3135 80.6349 40.404 81.3589 40.5548L80.7857 44.8385ZM80.1221 43.2698L80.4539 41.0676C79.9109 41.0676 79.5791 41.0375 79.5187 41.0375C79.2171 41.0375 78.9757 41.0676 78.7947 41.0978C78.6137 41.128 78.4931 41.2185 78.3724 41.3391C78.2517 41.4598 78.1612 41.6106 78.1009 41.8218C78.0406 42.0028 77.9802 42.3045 77.9501 42.6665C77.8596 43.3301 77.8596 43.7525 77.9199 43.9335C77.9802 44.1145 78.1612 44.205 78.4327 44.205C78.7042 44.205 79.0059 44.1145 79.2472 43.9636C79.4886 43.8128 79.7902 43.5715 80.1221 43.2698Z" fill="#003C68"/>
<path d="M85.5544 44.1145L85.6147 44.7178C85.1622 44.8686 84.6494 44.9591 84.0762 44.9591C83.2919 44.9591 82.779 44.7781 82.4774 44.4161C82.2059 44.0541 82.1154 43.4508 82.236 42.6061C82.3567 41.7615 82.598 41.1581 82.96 40.8263C83.322 40.4945 83.865 40.3135 84.6494 40.3135C85.2527 40.3135 85.7354 40.404 86.0974 40.5548L85.9465 41.0978C85.5845 41.0676 85.1924 41.0676 84.77 41.0676C84.227 41.0676 83.865 41.1883 83.6237 41.3995C83.3824 41.6106 83.2315 42.033 83.1712 42.6966C83.0807 43.3301 83.141 43.7525 83.2617 43.9636C83.4125 44.1748 83.7444 44.2653 84.227 44.2653C84.7399 44.2351 85.1924 44.205 85.5544 44.1145Z" fill="#003C68"/>
<path d="M91.1031 40.4341L90.4696 44.8384H89.5948L89.8965 42.8172H87.7245L87.453 44.8384H86.5781L87.2116 40.4341H88.0865L87.8451 42.1837H90.0171L90.2585 40.4341H91.1031Z" fill="#003C68"/>
<path d="M92.644 40.8263C93.006 40.4643 93.549 40.3135 94.3333 40.3135C95.0875 40.3135 95.6305 40.4945 95.902 40.8565C96.2036 41.2185 96.264 41.8218 96.1735 42.6665C96.0528 43.5111 95.8115 44.0843 95.4495 44.4463C95.0875 44.8083 94.5445 44.9591 93.7903 44.9591C93.0362 44.9591 92.5233 44.7781 92.2217 44.4161C91.92 44.0541 91.8295 43.4508 91.9502 42.6061C92.0708 41.7916 92.282 41.1883 92.644 40.8263ZM94.3333 41.0676C93.8808 41.0676 93.5188 41.1883 93.3076 41.3995C93.0965 41.6106 92.9456 42.0631 92.8551 42.6966C92.7646 43.3 92.7948 43.7223 92.9155 43.9335C93.0362 44.1446 93.3378 44.2653 93.7903 44.2653C94.273 44.2653 94.6048 44.1446 94.816 43.9033C95.0271 43.662 95.178 43.2396 95.2685 42.6363C95.359 42.033 95.3288 41.6106 95.2082 41.3995C95.0573 41.1581 94.7858 41.0676 94.3333 41.0676Z" fill="#003C68"/>
<path d="M101.148 40.4339L100.515 44.8382H99.6399L99.8813 43.2394H98.8556C98.4031 43.2394 98.1014 43.3902 97.9808 43.6919L97.5584 44.8684H96.6836L97.1361 43.5712C97.2266 43.36 97.3473 43.179 97.5283 43.0885C97.7093 42.998 97.8903 42.9377 98.1014 42.9377V42.9075C97.4679 42.7869 97.1964 42.3645 97.2869 41.6707C97.3473 41.1277 97.5283 40.7959 97.8601 40.6149C98.1919 40.464 98.7048 40.3735 99.4288 40.3735C100.062 40.3735 100.635 40.4037 101.148 40.4339ZM100.002 42.5757L100.213 41.0674H99.1271C98.7651 41.0674 98.5238 41.1277 98.4031 41.2182C98.2824 41.3087 98.1919 41.4897 98.1618 41.7914C98.1316 42.093 98.1618 42.3042 98.2523 42.4249C98.3428 42.5455 98.5539 42.6059 98.8556 42.6059H100.002V42.5757Z" fill="#003C68"/>
<path d="M103.201 40.4341L103.141 41.3693C103.443 41.0676 103.744 40.8263 104.106 40.6151C104.468 40.404 104.8 40.3135 105.072 40.3135C105.434 40.3135 105.705 40.3738 105.886 40.5246C106.067 40.6453 106.218 40.8866 106.278 41.2486C106.339 41.6106 106.339 42.0933 106.248 42.6966C106.188 43.1793 106.097 43.6016 105.977 43.9033C105.856 44.205 105.705 44.4463 105.494 44.5971C105.313 44.748 105.102 44.8385 104.891 44.8988C104.68 44.9591 104.408 44.9591 104.106 44.9591C103.684 44.9591 103.232 44.929 102.719 44.8385C102.719 45.2005 102.689 45.472 102.658 45.6831L102.508 46.6485H101.633L102.508 40.404L103.201 40.4341ZM103.171 42.033L102.87 44.2351C103.141 44.2351 103.473 44.2351 103.805 44.2351C104.106 44.2351 104.348 44.2351 104.529 44.1748C104.68 44.1446 104.83 44.0843 104.951 43.9335C105.072 43.7826 105.162 43.662 105.223 43.4508C105.283 43.2396 105.343 42.9681 105.373 42.576C105.464 41.9123 105.464 41.49 105.404 41.309C105.343 41.128 105.162 41.0375 104.891 41.0375C104.68 41.0375 104.438 41.128 104.137 41.2788C103.805 41.49 103.503 41.7313 103.171 42.033Z" fill="#003C68"/>
<path d="M110.562 44.1145L110.622 44.7178C110.17 44.8686 109.657 44.9591 109.084 44.9591C108.3 44.9591 107.787 44.7781 107.485 44.4161C107.214 44.0541 107.123 43.4508 107.244 42.6061C107.364 41.7615 107.606 41.1581 107.968 40.8263C108.33 40.4945 108.873 40.3135 109.657 40.3135C110.26 40.3135 110.743 40.404 111.105 40.5548L110.954 41.0978C110.592 41.0676 110.2 41.0676 109.778 41.0676C109.235 41.0676 108.873 41.1883 108.631 41.3995C108.39 41.6106 108.239 42.033 108.179 42.6966C108.088 43.3301 108.149 43.7525 108.269 43.9636C108.42 44.1748 108.752 44.2653 109.235 44.2653C109.748 44.2351 110.17 44.205 110.562 44.1145Z" fill="#003C68"/>
<path d="M114.032 42.5455C114.455 42.6059 114.726 42.7567 114.907 42.998C115.058 43.2695 115.239 43.7522 115.42 44.5365C115.45 44.6572 115.48 44.7779 115.48 44.8382H114.605C114.394 44.0539 114.274 43.5712 114.183 43.4204C114.032 43.1187 113.821 42.9377 113.55 42.9075C113.489 42.9075 113.399 42.8774 113.308 42.8774H112.675C112.675 43.0282 112.675 43.179 112.645 43.2997L112.433 44.808H111.559L112.192 40.4037H113.067L112.886 41.7009C112.856 41.8819 112.826 42.0629 112.765 42.1835H113.308C113.7 42.1835 114.002 42.0629 114.213 41.7914C114.424 41.55 114.696 41.0674 115.058 40.3735H115.993C115.601 41.1579 115.299 41.7009 115.058 41.9724C114.786 42.3344 114.455 42.4852 114.032 42.5455Z" fill="#003C68"/>
<path d="M120.879 40.434L120.276 44.8383H119.582L119.643 43.9031C118.919 44.597 118.255 44.959 117.621 44.959C117.229 44.959 116.928 44.8383 116.747 44.6271C116.566 44.416 116.505 44.1143 116.566 43.7221L117.018 40.4038H117.893L117.44 43.4808C117.41 43.7523 117.41 43.9333 117.501 44.0238C117.561 44.1143 117.712 44.1746 117.923 44.1746C118.164 44.1746 118.406 44.1143 118.647 43.9635C118.888 43.8126 119.22 43.5713 119.612 43.2093L120.005 40.4038H120.879V40.434V40.434Z" fill="#003C68"/>
<path d="M126.067 40.434L125.464 44.8383H124.77L124.83 43.9031C124.106 44.597 123.442 44.959 122.809 44.959C122.417 44.959 122.115 44.8383 121.934 44.6271C121.753 44.416 121.693 44.1143 121.753 43.7221L122.206 40.4038H123.08L122.628 43.4808C122.598 43.7523 122.598 43.9333 122.688 44.0238C122.749 44.1143 122.899 44.1746 123.111 44.1746C123.352 44.1746 123.593 44.1143 123.835 43.9635C124.076 43.8126 124.408 43.5713 124.8 43.2093L125.192 40.4038H126.067V40.434V40.434ZM125.102 38.4731H125.765C125.735 38.8351 125.584 39.167 125.313 39.3781C125.041 39.6195 124.709 39.7401 124.257 39.7401C123.804 39.7401 123.473 39.6195 123.231 39.3781C122.99 39.1368 122.93 38.8351 122.99 38.4731H123.654C123.563 38.986 123.804 39.2575 124.317 39.2575C124.8 39.2575 125.041 38.986 125.102 38.4731Z" fill="#003C68"/>
<path d="M131.256 42.5455C131.678 42.6059 131.95 42.7567 132.131 42.998C132.282 43.2695 132.463 43.7522 132.644 44.5365C132.674 44.6572 132.704 44.7779 132.704 44.8382H131.829C131.618 44.0539 131.497 43.5712 131.407 43.4204C131.256 43.1187 131.045 42.9377 130.773 42.9075C130.713 42.9075 130.623 42.8774 130.532 42.8774H129.899C129.899 43.0282 129.899 43.179 129.868 43.2997L129.657 44.808H128.812L129.446 40.4037H130.321L130.14 41.7009C130.11 41.8819 130.08 42.0629 130.019 42.1835H130.562C130.954 42.1835 131.256 42.0629 131.467 41.7914C131.678 41.55 131.95 41.0674 132.312 40.3735H133.247C132.855 41.1579 132.553 41.7009 132.312 41.9724C132.04 42.3344 131.709 42.4852 131.256 42.5455Z" fill="#003C68"/>
<path d="M134.998 40.4341L134.938 41.3693C135.24 41.0676 135.541 40.8263 135.903 40.6151C136.265 40.404 136.597 40.3135 136.869 40.3135C137.231 40.3135 137.502 40.3738 137.683 40.5246C137.864 40.6453 138.015 40.8866 138.075 41.2486C138.136 41.6106 138.136 42.0933 138.045 42.6966C137.985 43.1793 137.894 43.6016 137.774 43.9033C137.653 44.205 137.502 44.4463 137.291 44.5971C137.11 44.748 136.899 44.8385 136.688 44.8988C136.477 44.9591 136.205 44.9591 135.903 44.9591C135.481 44.9591 135.029 44.929 134.516 44.8385C134.516 45.2005 134.486 45.472 134.455 45.6831L134.305 46.6485H133.43L134.305 40.404L134.998 40.4341ZM134.938 42.033L134.636 44.2351C134.908 44.2351 135.24 44.2351 135.572 44.2351C135.873 44.2351 136.115 44.2351 136.296 44.1748C136.446 44.1446 136.597 44.0843 136.718 43.9335C136.839 43.7826 136.929 43.662 136.989 43.4508C137.05 43.2396 137.11 42.9681 137.14 42.576C137.231 41.9123 137.231 41.49 137.17 41.309C137.11 41.128 136.929 41.0375 136.658 41.0375C136.446 41.0375 136.205 41.128 135.903 41.2788C135.602 41.49 135.27 41.7313 134.938 42.033Z" fill="#003C68"/>
<path d="M142.782 44.8385H142.088L142.118 44.024C141.575 44.6273 140.942 44.9591 140.218 44.9591C139.675 44.9591 139.313 44.7781 139.132 44.4463C138.951 44.0843 138.92 43.481 139.041 42.6061C139.101 42.1235 139.192 41.7313 139.313 41.3995C139.433 41.0978 139.584 40.8565 139.795 40.7056C140.006 40.5548 140.187 40.4643 140.399 40.404C140.61 40.3436 140.881 40.3135 141.213 40.3135C141.937 40.3135 142.631 40.404 143.355 40.5548L142.782 44.8385ZM142.118 43.2698L142.45 41.0676C141.907 41.0676 141.575 41.0375 141.515 41.0375C141.213 41.0375 140.972 41.0676 140.791 41.0978C140.61 41.128 140.489 41.2185 140.368 41.3391C140.248 41.4598 140.157 41.6106 140.097 41.8218C140.037 42.0028 139.976 42.3045 139.946 42.6665C139.856 43.3301 139.856 43.7525 139.916 43.9335C139.976 44.1145 140.157 44.205 140.429 44.205C140.7 44.205 141.002 44.1145 141.243 43.9636C141.515 43.8128 141.786 43.5715 142.118 43.2698Z" fill="#003C68"/>
<path d="M148.602 40.434L147.999 44.8383H147.305L147.365 43.9031C146.641 44.597 145.978 44.959 145.344 44.959C144.952 44.959 144.65 44.8383 144.469 44.6271C144.288 44.416 144.228 44.1143 144.288 43.7221L144.741 40.4038H145.616L145.163 43.4808C145.133 43.7523 145.133 43.9333 145.224 44.0238C145.284 44.1143 145.435 44.1746 145.646 44.1746C145.887 44.1746 146.129 44.1143 146.37 43.9635C146.611 43.8126 146.943 43.5713 147.335 43.2093L147.727 40.4038H148.602V40.434V40.434ZM147.667 38.4731H148.331C148.301 38.8351 148.15 39.167 147.878 39.3781C147.607 39.6195 147.275 39.7401 146.822 39.7401C146.37 39.7401 146.038 39.6195 145.797 39.3781C145.555 39.1368 145.495 38.8351 145.555 38.4731H146.219C146.129 38.986 146.37 39.2575 146.883 39.2575C147.335 39.2575 147.607 38.986 147.667 38.4731Z" fill="#003C68"/>
<path d="M149.75 43.7222H149.991C150.203 43.7222 150.323 43.8428 150.263 44.054L150.172 44.6272C150.112 45.0495 149.931 45.5322 149.629 46.0752L149.207 45.9243C149.358 45.4417 149.448 45.0797 149.509 44.8082C149.418 44.8082 149.358 44.778 149.298 44.7478C149.237 44.6875 149.237 44.6272 149.237 44.5367L149.298 44.0238C149.328 43.9032 149.358 43.8127 149.418 43.7825C149.479 43.7523 149.629 43.7222 149.75 43.7222Z" fill="#003C68"/>
<path d="M74.0905 47.855L73.2157 54.0995H66.2773L67.1522 47.855H68.027L67.2427 53.3755H69.3845L70.1689 47.855H71.0437L70.2593 53.3755H72.4012L73.1855 47.855H74.0905Z" fill="#003C68"/>
<path d="M78.252 49.6953H79.157C78.8855 50.9925 78.4631 52.1991 77.9201 53.3455C77.6486 53.9488 77.347 54.4315 77.0453 54.8237C76.7436 55.2158 76.442 55.4873 76.1403 55.6683C75.8386 55.8192 75.5671 55.9398 75.2655 56.0002C74.9638 56.0605 74.6621 56.0605 74.3906 55.97L74.4811 55.246C75.2655 55.3968 75.9593 55.0047 76.5928 54.0997H76.1403C75.9895 54.0997 75.8688 54.0695 75.7783 53.979C75.6878 53.8885 75.6275 53.798 75.5973 53.6773L74.7526 49.6953H75.6878L76.3515 53.2852C76.3816 53.3757 76.442 53.436 76.5325 53.436H76.985L77.166 53.1041C77.6788 51.988 78.071 50.8718 78.252 49.6953Z" fill="#003C68"/>
<path d="M86.6406 49.6951L86.0071 54.0994H85.3133L85.3435 53.1643C84.6798 53.8581 84.0765 54.2201 83.5033 54.2201C83.1715 54.2201 82.9301 54.1296 82.7491 53.9486C82.5681 53.7676 82.4776 53.5263 82.4776 53.2246C81.8743 53.8883 81.271 54.1899 80.728 54.1899C80.3358 54.1899 80.0643 54.0693 79.8833 53.8581C79.7023 53.6469 79.642 53.3453 79.7023 52.9531L80.1548 49.6348H81.0296L80.6073 52.7118C80.5771 52.9531 80.5771 53.1341 80.6676 53.2246C80.7581 53.3151 80.8788 53.3754 81.09 53.3754C81.3011 53.3754 81.4821 53.3151 81.6631 53.1944C81.8441 53.0738 82.1458 52.8324 82.538 52.4403L82.9301 49.6348H83.7748L83.3525 52.7118C83.3223 52.9531 83.3525 53.1039 83.4128 53.2246C83.4731 53.3151 83.624 53.3754 83.8351 53.3754C83.986 53.3754 84.1368 53.3453 84.2876 53.2548C84.4385 53.1643 84.5591 53.1039 84.6798 53.0134C84.7703 52.9229 84.9815 52.7419 85.3133 52.4704L85.7055 49.6348H86.6406V49.6951V49.6951Z" fill="#003C68"/>
<path d="M91.0751 53.3752L91.1355 53.9785C90.7131 54.1595 90.1098 54.2199 89.3255 54.2199C88.5713 54.2199 88.0585 54.0087 87.7568 53.6165C87.4551 53.2244 87.3646 52.6211 87.4853 51.7764C87.606 50.9317 87.8473 50.3586 88.1791 50.0267C88.511 49.6949 89.1143 49.5742 89.9288 49.5742C90.6226 49.5742 91.0751 49.6949 91.3466 49.9362C91.588 50.1776 91.6785 50.5396 91.6181 50.9921C91.5578 51.4144 91.3768 51.7161 91.1053 51.9272C90.8338 52.1082 90.4416 52.2289 89.8685 52.2892L88.33 52.4401C88.33 52.8624 88.4205 53.1339 88.6015 53.2847C88.7825 53.4356 89.054 53.4959 89.4461 53.4959C89.8685 53.4959 90.4115 53.4355 91.0751 53.3752ZM88.3903 51.7764L89.8685 51.6256C90.14 51.5954 90.3511 51.5351 90.4718 51.4446C90.5925 51.3541 90.683 51.1731 90.7131 50.9317C90.7433 50.6602 90.7131 50.4792 90.5623 50.4189C90.4416 50.3586 90.1701 50.3284 89.778 50.3284C89.3255 50.3284 88.9936 50.4189 88.8126 50.5999C88.6015 50.7809 88.4808 51.1731 88.3903 51.7764Z" fill="#003C68"/>
<path d="M96.775 49.6953L96.1415 54.0997H95.2667L95.5683 52.0785H93.3963L93.1248 54.0997H92.25L92.8835 49.6953H93.7583L93.517 51.445H95.689L95.9303 49.6953H96.775Z" fill="#003C68"/>
<path d="M100.937 53.3752L100.998 53.9785C100.545 54.1294 100.032 54.2199 99.459 54.2199C98.6747 54.2199 98.1618 54.0389 97.8602 53.6769C97.5887 53.3149 97.4982 52.7115 97.6188 51.8669C97.7395 51.0222 97.9808 50.4189 98.3428 50.0871C98.7049 49.7552 99.2479 49.5742 100.032 49.5742C100.636 49.5742 101.118 49.6647 101.48 49.8156L101.329 50.3585C100.967 50.3284 100.575 50.3284 100.153 50.3284C99.6099 50.3284 99.2479 50.449 99.0065 50.6602C98.7652 50.8714 98.6144 51.2937 98.554 51.9574C98.4635 52.5909 98.5238 53.0132 98.6445 53.2244C98.7954 53.4355 99.1272 53.526 99.6099 53.526C100.123 53.4959 100.575 53.4657 100.937 53.3752Z" fill="#003C68"/>
<path d="M104.408 51.8068C104.831 51.8671 105.102 52.0179 105.283 52.2593C105.434 52.5308 105.615 53.0134 105.796 53.7978C105.826 53.9184 105.856 54.0391 105.856 54.0994H104.982C104.77 53.3151 104.65 52.8324 104.559 52.6816C104.408 52.3799 104.197 52.1989 103.926 52.1688C103.865 52.1688 103.775 52.1386 103.684 52.1386H103.051C103.051 52.2894 103.051 52.4403 103.021 52.5609L102.81 54.0693H101.965L102.598 49.6649H103.473L103.292 50.9621C103.262 51.1431 103.232 51.3241 103.172 51.4448H103.715C104.107 51.4448 104.408 51.3241 104.62 51.0526C104.831 50.8113 105.102 50.3286 105.464 49.6348H106.399C106.007 50.4191 105.706 50.9621 105.464 51.2336C105.193 51.5956 104.831 51.7464 104.408 51.8068Z" fill="#003C68"/>
<path d="M111.254 49.6952L110.651 54.0995H109.957L110.018 53.1644C109.294 53.8582 108.63 54.2202 107.996 54.2202C107.604 54.2202 107.303 54.0995 107.122 53.8884C106.941 53.6772 106.88 53.3755 106.941 52.9834L107.393 49.665H108.268L107.815 52.742C107.785 53.0135 107.785 53.1945 107.876 53.285C107.936 53.3755 108.087 53.4359 108.298 53.4359C108.539 53.4359 108.781 53.3755 109.022 53.2247C109.263 53.0739 109.595 52.8325 109.987 52.4705L110.38 49.665H111.254V49.6952V49.6952Z" fill="#003C68"/>
<path d="M116.446 49.6952L115.842 54.0996H115.149L115.209 53.1644C114.485 53.8582 113.821 54.2202 113.188 54.2202C112.796 54.2202 112.494 54.0996 112.313 53.8884C112.132 53.6772 112.072 53.3756 112.132 52.9834L112.585 49.665H113.459L113.007 52.742C112.977 53.0135 112.977 53.1946 113.067 53.2851C113.127 53.3756 113.278 53.4359 113.489 53.4359C113.731 53.4359 113.972 53.3755 114.213 53.2247C114.455 53.0739 114.787 52.8325 115.179 52.4705L115.571 49.665H116.446V49.6952V49.6952ZM115.511 47.7344H116.174C116.144 48.0964 115.993 48.4282 115.722 48.6394C115.45 48.8807 115.118 49.0014 114.666 49.0014C114.213 49.0014 113.882 48.8807 113.64 48.6394C113.399 48.398 113.339 48.0964 113.399 47.7344H114.063C113.972 48.2472 114.213 48.5187 114.726 48.5187C115.179 48.5187 115.45 48.2472 115.511 47.7344Z" fill="#003C68"/>
<path d="M120.518 49.6949L120.458 50.6301C120.759 50.3284 121.061 50.0871 121.423 49.8759C121.785 49.6647 122.117 49.5742 122.388 49.5742C122.75 49.5742 123.022 49.6346 123.203 49.7854C123.384 49.9061 123.535 50.1474 123.595 50.5094C123.655 50.8714 123.655 51.354 123.565 51.9574C123.504 52.44 123.414 52.8624 123.293 53.164C123.173 53.4657 123.022 53.707 122.811 53.8579C122.63 54.0087 122.418 54.0992 122.207 54.1595C121.996 54.2199 121.725 54.2199 121.423 54.2199C121.001 54.2199 120.548 54.1897 120.035 54.0992C120.035 54.4612 120.005 54.7327 119.975 54.9439L119.824 55.9092H118.949L119.824 49.6647H120.518V49.6949V49.6949ZM120.488 51.2937L120.186 53.4959C120.458 53.4959 120.789 53.4959 121.121 53.4959C121.423 53.4959 121.664 53.4959 121.845 53.4356C121.996 53.4054 122.147 53.345 122.268 53.1942C122.388 53.0434 122.479 52.9227 122.539 52.7115C122.599 52.5004 122.66 52.2289 122.69 51.8367C122.78 51.1731 122.78 50.7507 122.72 50.5697C122.66 50.3887 122.479 50.2982 122.207 50.2982C121.996 50.2982 121.755 50.3887 121.453 50.5396C121.121 50.7507 120.82 50.9921 120.488 51.2937Z" fill="#003C68"/>
<path d="M128.329 54.0992H127.635L127.665 53.2847C127.122 53.8881 126.489 54.2199 125.765 54.2199C125.222 54.2199 124.86 54.0389 124.679 53.7071C124.498 53.3451 124.467 52.7417 124.588 51.8669C124.648 51.3842 124.739 50.992 124.86 50.6602C124.98 50.3585 125.131 50.1172 125.342 49.9664C125.553 49.8156 125.734 49.7251 125.946 49.6647C126.157 49.6044 126.428 49.5742 126.76 49.5742C127.484 49.5742 128.178 49.6647 128.902 49.8156L128.329 54.0992ZM127.665 52.5004L127.997 50.2982C127.454 50.2982 127.122 50.2681 127.062 50.2681C126.76 50.2681 126.519 50.2982 126.338 50.3284C126.157 50.3586 126.036 50.4491 125.915 50.5697C125.795 50.6904 125.704 50.8412 125.644 51.0524C125.584 51.2334 125.523 51.5351 125.493 51.8971C125.403 52.5607 125.403 52.983 125.463 53.164C125.523 53.345 125.704 53.4356 125.976 53.4356C126.247 53.4356 126.549 53.3451 126.79 53.1942C127.032 53.0736 127.333 52.8322 127.665 52.5004Z" fill="#003C68"/>
<path d="M134.122 49.6952L133.518 54.0996H132.824L132.885 53.1644C132.161 53.8582 131.497 54.2202 130.864 54.2202C130.471 54.2202 130.17 54.0996 129.989 53.8884C129.808 53.6772 129.747 53.3756 129.808 52.9834L130.26 49.665H131.135L130.683 52.742C130.652 53.0135 130.652 53.1946 130.743 53.2851C130.803 53.3756 130.954 53.4359 131.165 53.4359C131.407 53.4359 131.648 53.3755 131.889 53.2247C132.131 53.0739 132.462 52.8325 132.855 52.4705L133.247 49.665H134.122V49.6952V49.6952ZM133.186 47.7344H133.85C133.82 48.0964 133.669 48.4282 133.398 48.6394C133.126 48.8807 132.794 49.0014 132.342 49.0014C131.889 49.0014 131.557 48.8807 131.316 48.6394C131.075 48.398 131.014 48.0964 131.075 47.7344H131.738C131.648 48.2472 131.889 48.5187 132.402 48.5187C132.855 48.5187 133.126 48.2472 133.186 47.7344Z" fill="#003C68"/>
<path d="M135.691 50.0875C136.053 49.7255 136.596 49.5747 137.38 49.5747C138.134 49.5747 138.677 49.7557 138.949 50.1177C139.251 50.4797 139.311 51.083 139.22 51.9277C139.1 52.7724 138.858 53.3455 138.496 53.7075C138.134 54.0695 137.591 54.2204 136.837 54.2204C136.083 54.2204 135.57 54.0394 135.269 53.6774C134.967 53.3154 134.876 52.712 134.997 51.8674C135.088 51.0529 135.329 50.4495 135.691 50.0875ZM137.35 50.3289C136.898 50.3289 136.536 50.4495 136.324 50.6607C136.113 50.8719 135.962 51.3244 135.872 51.9579C135.781 52.5612 135.812 52.9835 135.932 53.1947C136.053 53.4059 136.355 53.5265 136.807 53.5265C137.29 53.5265 137.622 53.4059 137.833 53.1645C138.044 52.9232 138.195 52.5009 138.285 51.8975C138.376 51.2942 138.346 50.8719 138.225 50.6607C138.104 50.4194 137.803 50.3289 137.35 50.3289Z" fill="#003C68"/>
<path d="M144.56 49.6953L143.927 54.0997H143.052L143.353 52.0785H141.181L140.91 54.0997H140.035L140.669 49.6953H141.543L141.302 51.445H143.474L143.715 49.6953H144.56Z" fill="#003C68"/>
<g opacity="0.9">
<path opacity="0.9" d="M39.2182 35.9394C39.2483 33.8881 38.826 31.9574 38.1925 30.0267C37.8607 29.0011 37.197 27.1006 36.8048 26.1051C31.948 27.9754 33.577 24.3855 29.8062 24.4157C28.1168 24.6872 27.5738 25.743 27.6643 25.6827C27.3928 26.5576 27.1213 27.4324 26.8498 28.3072C26.1258 30.5999 25.1303 32.8322 25.2208 35.3361C25.3113 37.5986 25.251 39.8912 25.251 42.1537C25.251 44.7782 25.251 47.4329 25.251 50.0574C25.251 51.0227 25.2812 51.0529 26.2767 51.0529C30.2285 51.0529 34.1803 51.0529 38.1322 51.0529C39.2182 51.0529 39.2182 51.0529 39.2182 49.9669C39.188 45.2911 39.1578 40.6152 39.2182 35.9394Z" fill="#003C68"/>
<path opacity="0.9" d="M32.3703 4.98828C17.1663 4.98828 4.82812 17.3264 4.82812 32.5304C4.82812 47.7345 17.1663 60.0726 32.3703 60.0726C47.5743 60.0726 59.9125 47.7345 59.9125 32.5304C59.9125 17.3264 47.6045 4.98828 32.3703 4.98828ZM26.4576 11.8964C26.4275 10.9311 26.88 10.4484 27.8453 10.4183C28.871 10.3881 29.9268 10.4183 30.9525 10.3881C32.7021 10.3881 34.482 10.3881 36.2316 10.3881C37.559 10.3881 37.9813 10.8104 37.9511 12.1076C37.9511 12.9523 38.2226 13.8874 37.378 14.5813H27.0308C26.156 13.8573 26.4878 12.8316 26.4576 11.8964ZM41.2091 50.1176C41.2091 52.0785 40.2438 53.0739 38.2528 53.0739C34.2105 53.0739 30.1983 53.0739 26.156 53.0739C24.165 53.0739 23.1996 52.1086 23.1996 50.1176C23.1996 47.4931 23.1996 44.8988 23.1996 42.2743C23.1996 39.9213 23.2298 37.5683 23.1996 35.2153C23.1695 33.4958 23.5013 31.8366 24.0443 30.2076C24.9191 27.5831 25.8845 25.0189 26.6688 22.3643C27.2721 20.3431 27.0911 18.2616 27.061 16.1801H37.3478C37.3176 18.5029 37.1668 20.8559 37.8908 23.1184C38.645 25.5016 39.6103 27.8245 40.3041 30.2076C40.7566 31.8366 41.1186 33.5259 41.1488 35.2153C41.2695 40.1928 41.2091 45.1703 41.2091 50.1176Z" fill="#003C68"/>
</g>
<path d="M74.5404 19.9809V20.0412C75.0532 20.1015 75.385 20.3127 75.5359 20.5842C75.6867 20.8859 75.8677 21.5797 76.0487 22.6959C76.109 23.0277 76.1694 23.2992 76.1995 23.5104H74.3594C74.299 23.2389 74.2387 22.8467 74.1784 22.3942C74.0577 21.6099 73.937 21.097 73.8465 20.916C73.756 20.7049 73.575 20.6144 73.3035 20.6144H73.0019C73.0019 20.8859 73.0019 21.097 72.9717 21.278L72.67 23.5104H70.8902L71.222 21.2177C71.2522 21.0065 71.3125 20.7954 71.3729 20.6144H71.1014C70.7997 20.6144 70.5584 20.7652 70.3472 21.0669C70.1662 21.3685 69.774 22.183 69.1405 23.5104H67.1797C67.3607 23.0579 67.5115 22.726 67.602 22.5149C67.6925 22.3037 67.8132 22.0624 67.9339 21.7607C68.0545 21.459 68.1752 21.278 68.2355 21.1574C68.2959 21.0367 68.3864 20.8859 68.507 20.735C68.6277 20.5842 68.7182 20.4635 68.8087 20.4032C68.8992 20.3429 68.9897 20.2825 69.1104 20.2222C69.231 20.1619 69.3517 20.1015 69.4724 20.0714C69.593 20.0412 69.7439 20.011 69.8947 19.9809V19.9205C69.7137 19.8904 69.5327 19.83 69.412 19.7999C69.2914 19.7395 69.1707 19.6792 69.0802 19.5887C68.9897 19.4982 68.8992 19.3775 68.8389 19.287C68.7785 19.1664 68.7182 19.0155 68.6579 18.8044C68.5975 18.5932 68.5674 18.382 68.507 18.1709C68.4769 17.9597 68.4165 17.658 68.3562 17.296C68.326 17.0849 68.2959 16.9039 68.2657 16.7832H70.0757C70.1059 16.9642 70.136 17.2055 70.1964 17.5374C70.317 18.3217 70.4075 18.8345 70.498 19.0759C70.5885 19.3172 70.7695 19.4379 71.041 19.4379H71.4634C71.4332 19.1664 71.4332 18.8647 71.4935 18.563L71.7349 16.8134H73.4845L73.213 18.6535C73.1527 18.9552 73.1225 19.2267 73.032 19.468H73.213C73.5147 19.468 73.756 19.3474 73.937 19.106C74.118 18.8647 74.3895 18.3217 74.7515 17.477C74.8722 17.2055 74.9627 16.9944 75.023 16.8435H76.9235C76.833 17.0245 76.7425 17.2357 76.6219 17.5072C76.5012 17.7787 76.4107 17.9597 76.3805 18.0804C76.3202 18.201 76.2599 18.3519 76.1694 18.563C76.0789 18.744 76.0185 18.8949 75.9582 18.9854C75.8979 19.0759 75.8375 19.1664 75.7772 19.287C75.6867 19.4077 75.6264 19.4982 75.566 19.5585C75.5057 19.6189 75.4454 19.6792 75.3549 19.7395C75.2644 19.7999 75.1739 19.8602 75.0834 19.8904C74.9929 19.9205 74.9024 19.9507 74.7817 19.9809C74.8119 19.9205 74.6912 19.9507 74.5404 19.9809Z" fill="#989898"/>
<path d="M82.8055 23.5103H81.0558L81.5385 20.1014C81.5988 19.7093 81.6893 19.3473 81.81 18.9853H81.7496C81.5083 19.4679 81.3273 19.7998 81.2066 19.9506L78.7631 23.5103H76.9531L77.8883 16.7529H79.6681L79.1855 20.0411C79.1553 20.3428 79.0346 20.7349 78.8838 21.2478H78.9743C79.1251 20.8556 79.3363 20.5238 79.5173 20.2221L81.9306 16.7529H83.7105L82.8055 23.5103Z" fill="#989898"/>
<path d="M84.0742 23.5099L85.0094 16.7526C85.6127 16.6923 86.4876 16.6621 87.6339 16.6621C88.5389 16.6621 89.1724 16.7828 89.5042 17.0543C89.8662 17.3258 89.9869 17.8084 89.8964 18.5023C89.8361 18.9849 89.6852 19.3469 89.5042 19.5883C89.2931 19.8296 88.9612 19.9503 88.5389 19.9804V20.0408C89.5042 20.1313 89.9266 20.7346 89.7456 21.9111C89.6551 22.5748 89.4137 23.0273 89.0517 23.2384C88.6897 23.4496 88.0562 23.6004 87.2116 23.6004C85.7937 23.5703 84.7681 23.5401 84.0742 23.5099ZM86.0351 22.2429H86.8496C87.2116 22.2429 87.4831 22.1826 87.6037 22.0619C87.7546 21.9413 87.8451 21.6999 87.8752 21.3681C87.9356 21.0363 87.9054 20.8251 87.8149 20.7346C87.7244 20.6441 87.5132 20.5838 87.2116 20.5838H86.2764L86.0351 22.2429ZM86.4272 19.4073H87.2417C87.5434 19.4073 87.7546 19.3469 87.8752 19.2564C87.9959 19.1659 88.0864 18.9246 88.1166 18.6229C88.1467 18.3816 88.1166 18.2006 88.0562 18.1101C87.9657 18.0196 87.8149 17.9894 87.5434 17.9894H86.6082L86.4272 19.4073Z" fill="#989898"/>
<path d="M93.9972 16.6021C95.1134 16.6021 95.8675 16.8736 96.2899 17.3864C96.7122 17.8992 96.8328 18.8344 96.6518 20.1919C96.5613 20.8857 96.4407 21.4287 96.2597 21.8812C96.0787 22.3337 95.8675 22.6656 95.596 22.9371C95.3245 23.2086 94.9927 23.3896 94.6307 23.4801C94.2687 23.5706 93.8162 23.6309 93.2732 23.6309C92.157 23.6309 91.3727 23.3594 90.9805 22.8466C90.5884 22.3337 90.4677 21.3986 90.6487 20.0411C90.8297 18.7137 91.1615 17.8087 91.6442 17.3261C92.157 16.8434 92.9414 16.6021 93.9972 16.6021ZM93.967 18.0199C93.5447 18.0199 93.243 18.1707 93.062 18.4422C92.881 18.7137 92.7302 19.3171 92.5794 20.1919C92.4587 21.0064 92.4587 21.5494 92.5492 21.8209C92.6397 22.0924 92.9112 22.2131 93.3335 22.2131C93.7559 22.2131 94.0877 22.0622 94.2687 21.7907C94.4497 21.5192 94.6005 20.9159 94.7514 20.0411C94.872 19.1964 94.872 18.6534 94.7815 18.4121C94.6609 18.1406 94.3894 18.0199 93.967 18.0199Z" fill="#989898"/>
<path d="M103.018 18.1708H101.087L100.333 23.5103H98.4927L99.2468 18.1708H97.3162L97.4972 16.7529H103.199L103.018 18.1708Z" fill="#989898"/>
<path d="M109.595 16.7529L108.66 23.5103H106.789L107.212 20.6143H105.251L104.828 23.5103H102.988L103.923 16.7529H105.764L105.432 19.2568H107.362L107.724 16.7529H109.595Z" fill="#989898"/>
<path d="M113.454 16.6021C114.57 16.6021 115.325 16.8736 115.747 17.3864C116.169 17.8992 116.29 18.8344 116.109 20.1919C116.018 20.8857 115.898 21.4287 115.717 21.8812C115.536 22.3337 115.325 22.6656 115.053 22.9371C114.782 23.2086 114.45 23.3896 114.088 23.4801C113.726 23.5706 113.273 23.6309 112.73 23.6309C111.614 23.6309 110.83 23.3594 110.438 22.8466C110.045 22.3337 109.925 21.3986 110.106 20.0411C110.287 18.7137 110.619 17.8087 111.101 17.3261C111.614 16.8434 112.398 16.6021 113.454 16.6021ZM113.424 18.0199C113.002 18.0199 112.7 18.1707 112.519 18.4422C112.338 18.7137 112.187 19.3171 112.036 20.1919C111.916 21.0064 111.916 21.5494 112.006 21.8209C112.097 22.0924 112.368 22.2131 112.791 22.2131C113.213 22.2131 113.545 22.0622 113.726 21.7907C113.907 21.5192 114.058 20.9159 114.208 20.0411C114.329 19.1964 114.329 18.6534 114.239 18.4121C114.118 18.1406 113.846 18.0199 113.424 18.0199Z" fill="#989898"/>
<path d="M116.621 23.5099L117.556 16.7526C118.16 16.6923 119.034 16.6621 120.181 16.6621C121.086 16.6621 121.719 16.7828 122.051 17.0543C122.413 17.3258 122.534 17.8084 122.443 18.5023C122.383 18.9849 122.232 19.3469 122.051 19.5883C121.84 19.8296 121.508 19.9503 121.086 19.9804V20.0408C122.051 20.1313 122.473 20.7346 122.292 21.9111C122.202 22.5748 121.961 23.0273 121.599 23.2384C121.237 23.4496 120.603 23.6004 119.758 23.6004C118.371 23.5703 117.315 23.5401 116.621 23.5099ZM118.582 22.2429H119.396C119.758 22.2429 120.03 22.1826 120.151 22.0619C120.301 21.9413 120.392 21.6999 120.422 21.3681C120.482 21.0363 120.452 20.8251 120.362 20.7346C120.271 20.6441 120.06 20.5838 119.758 20.5838H118.823L118.582 22.2429ZM119.004 19.4073H119.819C120.12 19.4073 120.332 19.3469 120.452 19.2564C120.573 19.1659 120.663 18.9246 120.694 18.6229C120.724 18.3816 120.694 18.2006 120.633 18.1101C120.543 18.0196 120.392 17.9894 120.12 17.9894H119.185L119.004 19.4073Z" fill="#989898"/>
<path d="M126.579 16.6021C127.695 16.6021 128.45 16.8736 128.872 17.3864C129.294 17.8992 129.415 18.8344 129.234 20.1919C129.143 20.8857 129.023 21.4287 128.842 21.8812C128.661 22.3337 128.45 22.6656 128.178 22.9371C127.907 23.2086 127.575 23.3896 127.213 23.4801C126.851 23.5706 126.398 23.6309 125.855 23.6309C124.739 23.6309 123.955 23.3594 123.563 22.8466C123.17 22.3337 123.05 21.3986 123.231 20.0411C123.412 18.7137 123.744 17.8087 124.226 17.3261C124.739 16.8434 125.493 16.6021 126.579 16.6021ZM126.549 18.0199C126.127 18.0199 125.825 18.1707 125.644 18.4422C125.463 18.7137 125.312 19.3171 125.161 20.1919C125.041 21.0064 125.041 21.5494 125.131 21.8209C125.222 22.0924 125.493 22.2131 125.916 22.2131C126.338 22.2131 126.67 22.0622 126.851 21.7907C127.032 21.5192 127.183 20.9159 127.333 20.0411C127.454 19.1964 127.454 18.6534 127.364 18.4121C127.213 18.1406 126.971 18.0199 126.549 18.0199Z" fill="#989898"/>
<path d="M136.292 23.4197L136.081 24.9582H134.723L134.784 23.48H130.56L130.229 24.9582H128.871L129.082 23.48L129.263 22.213H129.957C130.47 21.1873 130.953 19.8298 131.405 18.1103C131.646 17.1752 132.25 16.7227 133.215 16.7227H136.352L135.568 22.213H136.473L136.292 23.4197ZM133.698 22.2432L134.301 17.9897H133.788C133.607 17.9897 133.456 18.0198 133.336 18.1103C133.215 18.2008 133.155 18.3517 133.094 18.5628C132.732 20.1315 132.34 21.3683 131.888 22.213H133.698V22.2432Z" fill="#989898"/>
<path d="M143.048 16.7529L142.113 23.5103H140.273L140.635 20.8254C139.941 21.1573 139.308 21.3081 138.735 21.3081C138.101 21.3081 137.618 21.1573 137.347 20.8858C137.075 20.5841 136.985 20.1618 137.045 19.5886L137.437 16.7831H139.278L138.916 19.2869C138.885 19.4981 138.885 19.6489 138.976 19.7093C139.066 19.7696 139.217 19.8299 139.428 19.8299C139.851 19.8299 140.303 19.7394 140.756 19.5283L141.148 16.7831H143.048V16.7529Z" fill="#989898"/>
<path d="M148.781 18.1405H146.338C146.157 18.1405 146.036 18.1707 145.976 18.231C145.916 18.2913 145.855 18.412 145.825 18.593L145.704 19.4075H148.238L148.088 20.6745H145.523L145.373 21.7002C145.342 21.851 145.373 21.9717 145.433 22.032C145.493 22.0923 145.614 22.1225 145.765 22.1225H148.178L148.148 23.4498C147.605 23.5102 146.549 23.5403 145.011 23.5403C144.468 23.5403 144.045 23.3895 143.804 23.0577C143.532 22.756 143.442 22.3337 143.502 21.7907L144.015 18.1405C144.075 17.688 144.256 17.3562 144.558 17.0847C144.86 16.8433 145.222 16.7227 145.704 16.7227C147.273 16.7227 148.359 16.7528 148.962 16.8433L148.781 18.1405Z" fill="#989898"/>
<path d="M153.97 21.9718L154.03 23.3293C153.397 23.5103 152.642 23.631 151.768 23.631C150.682 23.631 149.927 23.3595 149.535 22.8165C149.143 22.2735 149.022 21.3685 149.203 20.0713C149.384 18.744 149.716 17.839 150.199 17.3563C150.682 16.8737 151.466 16.6323 152.552 16.6323C153.366 16.6323 154.06 16.7228 154.664 16.8737L154.452 18.201C153.759 18.1708 153.095 18.1708 152.461 18.1708C152.16 18.1708 151.949 18.2312 151.798 18.3217C151.647 18.4122 151.526 18.5932 151.406 18.8948C151.285 19.1965 151.194 19.6188 151.134 20.192C151.013 20.9462 151.013 21.4288 151.104 21.6702C151.194 21.9115 151.436 22.0322 151.858 22.0322C152.703 22.0623 153.397 22.0322 153.97 21.9718Z" fill="#989898"/>
<path d="M158.705 19.9809V20.0412C158.886 20.0714 159.067 20.1015 159.188 20.1619C159.308 20.2222 159.429 20.2524 159.55 20.3127C159.64 20.373 159.731 20.4635 159.821 20.5842C159.882 20.7049 159.942 20.8255 160.002 20.9764C160.063 21.097 160.123 21.3082 160.153 21.5495C160.213 21.7909 160.244 22.0322 160.304 22.2735C160.364 22.5149 160.394 22.8165 160.455 23.2087C160.485 23.3595 160.485 23.45 160.515 23.5104H158.645C158.464 22.2434 158.343 21.5194 158.313 21.3384C158.222 20.9764 158.072 20.7652 157.83 20.7049C157.71 20.6747 157.559 20.6445 157.378 20.6445H156.986C157.016 20.8859 157.016 21.097 156.986 21.3082L156.684 23.5405H154.844L155.779 16.7832H157.619L157.348 18.6234C157.287 18.9552 157.227 19.2267 157.167 19.4379H157.468C157.891 19.4379 158.222 19.2569 158.434 18.9552C158.645 18.6234 158.977 17.9295 159.369 16.8134H161.269C160.787 17.9899 160.455 18.7139 160.334 18.9552C160.093 19.4077 159.791 19.7094 159.429 19.8602C159.218 19.8602 158.977 19.9205 158.705 19.9809Z" fill="#989898"/>
<path d="M167.063 23.5103H165.314L165.796 20.1014C165.857 19.7093 165.947 19.3473 166.068 18.9853H166.007C165.766 19.4679 165.585 19.7998 165.464 19.9506L163.021 23.5103H161.211L162.146 16.7529H163.926L163.443 20.0411C163.413 20.3428 163.292 20.7349 163.142 21.2478H163.232C163.383 20.8556 163.594 20.5238 163.775 20.2221L166.188 16.7529H167.968L167.063 23.5103Z" fill="#989898"/>
<path d="M174.122 23.5102H172.372L172.855 20.1014C172.915 19.7092 173.006 19.3472 173.126 18.9852H173.066C172.825 19.4679 172.644 19.7997 172.523 19.9506L170.08 23.5102H168.27L169.235 16.7529H171.015L170.532 20.0411C170.502 20.3427 170.381 20.7349 170.23 21.2477H170.321C170.472 20.8556 170.683 20.5237 170.864 20.2221L173.277 16.7529H175.057L174.122 23.5102ZM172.976 14.6714H174.062C174.062 15.1239 173.881 15.5161 173.549 15.8177C173.217 16.1194 172.795 16.2702 172.252 16.2702C171.678 16.2702 171.226 16.1194 170.924 15.8177C170.623 15.5161 170.562 15.1239 170.683 14.6714H171.829C171.739 14.9731 171.769 15.1541 171.829 15.2747C171.89 15.3954 172.071 15.4557 172.282 15.4557C172.734 15.4256 172.976 15.1842 172.976 14.6714Z" fill="#989898"/>
<path d="M71.6426 31.7157V31.7761C71.8236 31.8062 72.0046 31.8364 72.1253 31.8967C72.2459 31.9571 72.3666 31.9872 72.4873 32.0476C72.5778 32.1079 72.6682 32.1984 72.7587 32.3191C72.8191 32.4397 72.8794 32.5604 72.9398 32.7112C73.0001 32.8319 73.0604 33.0431 73.0906 33.2844C73.1509 33.5257 73.1811 33.7671 73.2414 34.0084C73.2716 34.2497 73.3319 34.5514 73.3923 34.9436C73.4224 35.0944 73.4224 35.1849 73.4526 35.2452H71.5823C71.4013 33.9782 71.2806 33.2542 71.2504 33.0732C71.1599 32.7112 71.0091 32.5001 70.7678 32.4397C70.6471 32.4096 70.4963 32.3794 70.3153 32.3794H69.9231C69.9533 32.6207 69.9533 32.8319 69.9231 33.0431L69.6214 35.2754H67.7812L68.7164 28.5181H70.5566L70.2851 30.3582C70.2248 30.6901 70.1644 30.9616 70.1041 31.1727H70.4057C70.8281 31.1727 71.1599 30.9917 71.3711 30.6901C71.5823 30.3582 71.9141 29.6644 72.3062 28.5482H74.2067C73.7241 29.7247 73.3922 30.4487 73.2716 30.6901C73.0302 31.1426 72.7286 31.4442 72.3666 31.5951C72.1554 31.6252 71.9141 31.6554 71.6426 31.7157Z" fill="#989898"/>
<path d="M77.6456 28.3672C78.7618 28.3672 79.516 28.6387 79.9383 29.1515C80.3606 29.6644 80.4813 30.5995 80.3003 31.957C80.2098 32.6509 80.0891 33.1939 79.9081 33.6464C79.7271 34.0989 79.516 34.4307 79.2445 34.7022C78.973 34.9737 78.6411 35.1547 78.2791 35.2452C77.9171 35.3357 77.4646 35.396 76.9216 35.396C75.8055 35.396 75.0211 35.1245 74.629 34.6117C74.2368 34.0989 74.1161 33.1637 74.2971 31.8062C74.4781 30.4789 74.81 29.5739 75.2926 29.0912C75.8055 28.6085 76.5898 28.3672 77.6456 28.3672ZM77.6155 29.7549C77.1931 29.7549 76.8915 29.9057 76.7105 30.1772C76.5295 30.4487 76.3786 31.052 76.2278 31.9269C76.1071 32.7414 76.1071 33.2844 76.1976 33.5559C76.2881 33.8274 76.5596 33.948 76.982 33.948C77.4043 33.948 77.7361 33.7972 77.9171 33.5257C78.0981 33.2542 78.249 32.6509 78.3998 31.776C78.5205 30.9314 78.5205 30.3884 78.43 30.147C78.3093 29.9057 78.0378 29.7549 77.6155 29.7549Z" fill="#989898"/>
<path d="M87.151 28.4878H88.8403C89.0515 28.4878 89.2023 28.5481 89.323 28.6688C89.4436 28.7895 89.4738 28.9705 89.4436 29.1816L88.8403 35.2451H87.1811L87.7241 29.9056H87.5733L86.2158 33.7066C86.0951 34.0686 85.8538 34.2496 85.4616 34.2496H84.4661C84.2851 34.2496 84.1041 34.1893 83.9835 34.0988C83.8628 33.9781 83.8025 33.8575 83.8025 33.6463L83.5008 29.9056H83.3198L82.3846 35.2451H80.6953L81.8115 29.1213C81.8416 28.9101 81.9321 28.7593 82.0226 28.6386C82.1131 28.518 82.2941 28.4878 82.5053 28.4878H84.1343C84.3153 28.4878 84.4661 28.5481 84.5868 28.6386C84.7075 28.7593 84.7678 28.88 84.7678 29.0911L85.0091 32.0776C85.0393 32.3793 85.0393 32.7111 85.0091 33.0731H85.1298C85.1901 32.8318 85.2806 32.5 85.4013 32.1078L86.427 29.0308C86.5175 28.6688 86.7588 28.4878 87.151 28.4878Z" fill="#989898"/>
<path d="M96.562 28.4878L95.6269 35.2451H93.7867L94.571 29.7548H92.6404L91.856 35.2451H90.0159L90.951 28.4878H96.562Z" fill="#989898"/>
<path d="M103.348 28.4878L102.413 35.2451H100.573L101.357 29.7548H100.845C100.633 29.7548 100.483 29.785 100.392 29.8755C100.302 29.966 100.211 30.1168 100.181 30.328C99.7888 32.1078 99.4268 33.2541 99.1855 33.7971C98.8537 34.4306 98.4917 34.8831 98.0392 35.0943C97.5867 35.3055 97.0738 35.3658 96.4705 35.2753L96.4102 33.8575C96.742 33.7971 96.9833 33.7368 97.104 33.6463C97.2548 33.5558 97.4057 33.3748 97.4962 33.1636C97.7677 32.6508 98.0995 31.5648 98.4313 29.8755C98.6425 28.9705 99.2157 28.4878 100.181 28.4878H103.348V28.4878Z" fill="#989898"/>
<path d="M109.082 29.8754H106.639C106.458 29.8754 106.337 29.9055 106.277 29.9659C106.216 30.0262 106.156 30.1469 106.126 30.3279L106.005 31.1424H108.539L108.388 32.4093H105.824L105.673 33.435C105.643 33.5859 105.673 33.7065 105.734 33.7668C105.794 33.8272 105.915 33.8573 106.066 33.8573H108.479L108.449 35.1847C107.906 35.245 106.85 35.2752 105.311 35.2752C104.768 35.2752 104.346 35.1244 104.105 34.7925C103.833 34.4909 103.743 34.0685 103.803 33.5255L104.316 29.8754C104.376 29.4229 104.557 29.091 104.859 28.8195C105.161 28.5782 105.523 28.4575 106.005 28.4575C107.574 28.4575 108.66 28.4877 109.263 28.5782L109.082 29.8754Z" fill="#989898"/>
<path d="M113.244 31.7157V31.7761C113.425 31.8062 113.606 31.8364 113.727 31.8967C113.847 31.9571 113.968 31.9872 114.089 32.0476C114.179 32.1079 114.27 32.1984 114.36 32.3191C114.421 32.4397 114.481 32.5604 114.541 32.7112C114.602 32.8319 114.662 33.0431 114.692 33.2844C114.752 33.5257 114.783 33.7671 114.843 34.0084C114.903 34.2497 114.933 34.5514 114.994 34.9436C115.024 35.0944 115.024 35.1849 115.054 35.2452H113.184C113.003 33.9782 112.882 33.2542 112.852 33.0732C112.761 32.7112 112.611 32.5001 112.369 32.4397C112.249 32.4096 112.098 32.3794 111.917 32.3794H111.525C111.555 32.6207 111.555 32.8319 111.525 33.0431L111.223 35.2754H109.383L110.318 28.5181H112.158L111.887 30.3582C111.826 30.6901 111.766 30.9616 111.706 31.1727H112.007C112.43 31.1727 112.761 30.9917 112.973 30.6901C113.184 30.3582 113.516 29.6644 113.908 28.5482H115.808C115.326 29.7247 114.994 30.4487 114.873 30.6901C114.632 31.1426 114.33 31.4442 113.968 31.5951C113.787 31.6252 113.546 31.6554 113.244 31.7157Z" fill="#989898"/>
<path d="M120.665 33.7067L120.725 35.0642C120.092 35.2452 119.338 35.3659 118.463 35.3659C117.377 35.3659 116.623 35.0944 116.231 34.5514C115.838 34.0084 115.718 33.1034 115.899 31.8062C116.08 30.4789 116.412 29.5739 116.894 29.0912C117.377 28.6085 118.161 28.3672 119.247 28.3672C120.062 28.3672 120.756 28.4577 121.359 28.6085L121.148 29.9359C120.454 29.9057 119.79 29.9057 119.157 29.9057C118.855 29.9057 118.644 29.966 118.493 30.0565C118.342 30.147 118.222 30.328 118.101 30.6297C117.98 30.9314 117.89 31.3537 117.829 31.9269C117.709 32.681 117.709 33.1637 117.799 33.405C117.89 33.6464 118.131 33.767 118.553 33.767C119.428 33.7972 120.122 33.767 120.665 33.7067Z" fill="#989898"/>
<path d="M74.0588 19.6191V19.6794C74.5716 19.7397 74.9035 19.9509 75.0543 20.2224C75.2051 20.5241 75.3861 21.2179 75.5671 22.3341C75.6275 22.6659 75.6878 22.9374 75.718 23.1486H73.8778C73.8175 22.8771 73.7571 22.4849 73.6968 22.0324C73.5761 21.2481 73.4555 20.7352 73.365 20.5542C73.2745 20.3431 73.0935 20.2526 72.822 20.2526H72.4901C72.4901 20.5241 72.4901 20.7352 72.46 20.9162L72.1583 23.1486H70.4086L70.7405 20.8559C70.7706 20.6447 70.831 20.4336 70.8913 20.2526H70.5896C70.288 20.2526 70.0466 20.4034 69.8355 20.7051C69.6545 21.0067 69.2623 21.8212 68.6288 23.1486H66.668C66.849 22.6961 66.9998 22.3642 67.0903 22.1531C67.1808 21.9419 67.3015 21.7006 67.4221 21.3989C67.5428 21.0972 67.6635 20.9162 67.7238 20.7956C67.7841 20.6749 67.8746 20.5241 67.9953 20.3732C68.116 20.2224 68.2065 20.1017 68.297 20.0414C68.3875 19.9811 68.478 19.9207 68.5986 19.8604C68.7193 19.8001 68.84 19.7397 68.9606 19.7096C69.0813 19.6794 69.2321 19.6492 69.383 19.6191V19.5587C69.202 19.5286 69.021 19.4682 68.9003 19.4381C68.7796 19.3777 68.659 19.3174 68.5685 19.2269C68.478 19.1364 68.3875 19.0157 68.3271 18.9252C68.2668 18.8046 68.2065 18.6537 68.1461 18.4426C68.0858 18.2314 68.0556 18.0202 67.9953 17.8091C67.9651 17.5979 67.9048 17.2962 67.8445 16.9342C67.8143 16.7231 67.7841 16.5421 67.754 16.4214H69.564C69.5941 16.6024 69.6243 16.8437 69.6846 17.1756C69.8053 17.9599 69.8958 18.4727 69.9863 18.7141C70.0768 18.9554 70.2578 19.0761 70.5293 19.0761H70.9516C70.9215 18.8046 70.9215 18.5029 70.9818 18.2012L71.2231 16.4516H72.9728L72.7013 18.2917C72.641 18.5934 72.6108 18.8649 72.5203 19.1062H72.7013C73.003 19.1062 73.2443 18.9856 73.4253 18.7442C73.6063 18.5029 73.8778 17.9599 74.2398 17.1152C74.3605 16.8437 74.451 16.6326 74.5113 16.4817H76.4118C76.3213 16.6627 76.2308 16.8739 76.1101 17.1454C75.9895 17.4169 75.899 17.5979 75.8688 17.7186C75.8085 17.8392 75.7481 17.9901 75.6576 18.2012C75.5671 18.3822 75.5068 18.5331 75.4465 18.6236C75.3861 18.7141 75.3258 18.8046 75.2655 18.9252C75.175 19.0459 75.1146 19.1364 75.0543 19.1967C74.994 19.2571 74.9336 19.3174 74.8431 19.3777C74.7526 19.4381 74.6621 19.4984 74.5716 19.5286C74.4811 19.5587 74.3906 19.5889 74.27 19.6191C74.3303 19.5587 74.2096 19.5889 74.0588 19.6191Z" fill="#003C68"/>
<path d="M82.325 23.1484H80.5753L81.058 19.7396C81.1183 19.3474 81.2088 18.9854 81.3295 18.6234H81.2692C81.0278 19.1061 80.8468 19.4379 80.7262 19.5888L78.2827 23.1484H76.4727L77.4078 16.3911H79.1877L78.705 19.6793C78.6748 19.9809 78.5542 20.3731 78.4033 20.8859H78.4938C78.6447 20.4938 78.8558 20.1619 79.0368 19.8603L81.4502 16.3911H83.23L82.325 23.1484Z" fill="#003C68"/>
<path d="M83.5625 23.1486L84.4977 16.3913C85.101 16.3309 85.9758 16.3008 87.1222 16.3008C88.0272 16.3008 88.6607 16.4214 88.9925 16.6929C89.3545 16.9644 89.4752 17.4471 89.3847 18.1409C89.3243 18.6236 89.1735 18.9856 88.9925 19.2269C88.7813 19.4683 88.4495 19.5889 88.0272 19.6191V19.6794C88.9925 19.7699 89.4148 20.3733 89.2338 21.5498C89.1433 22.2134 88.902 22.6659 88.54 22.8771C88.178 23.0883 87.5445 23.2391 86.6998 23.2391C85.3122 23.2089 84.2563 23.1788 83.5625 23.1486ZM85.5535 21.8816H86.368C86.73 21.8816 87.0015 21.8213 87.1222 21.7006C87.273 21.5799 87.3635 21.3386 87.3937 21.0068C87.454 20.6749 87.4238 20.4638 87.3333 20.3733C87.2428 20.2828 87.0317 20.2224 86.73 20.2224H85.7948L85.5535 21.8816ZM85.9457 19.0459H86.7602C87.0618 19.0459 87.273 18.9856 87.3937 18.8951C87.5143 18.8046 87.6048 18.5633 87.635 18.2616C87.6652 18.0203 87.635 17.8393 87.5747 17.7488C87.4842 17.6583 87.3333 17.6281 87.0618 17.6281H86.1267L85.9457 19.0459Z" fill="#003C68"/>
<path d="M93.5167 16.2402C94.6329 16.2402 95.3871 16.5117 95.8094 17.0246C96.2317 17.5374 96.3524 18.4726 96.1714 19.8301C96.0809 20.5239 95.9602 21.0669 95.7792 21.5194C95.5982 21.9719 95.3871 22.3037 95.1156 22.5752C94.8441 22.8467 94.5122 23.0277 94.1502 23.1182C93.7882 23.2087 93.3357 23.2691 92.7927 23.2691C91.6766 23.2691 90.8922 22.9976 90.5001 22.4847C90.1079 21.9719 89.9872 21.0367 90.1682 19.6792C90.3492 18.3519 90.6811 17.4469 91.1637 16.9642C91.6766 16.4816 92.4609 16.2402 93.5167 16.2402ZM93.4866 17.6581C93.0642 17.6581 92.7626 17.8089 92.5816 18.0804C92.4006 18.3519 92.2497 18.9552 92.0989 19.8301C91.9782 20.6446 91.9782 21.1876 92.0687 21.4591C92.1592 21.7306 92.4307 21.8512 92.8531 21.8512C93.2754 21.8512 93.6072 21.7004 93.7882 21.4289C93.9692 21.1574 94.1201 20.5541 94.2709 19.6792C94.3916 18.8346 94.3916 18.2916 94.3011 18.0502C94.1804 17.7787 93.9089 17.6581 93.4866 17.6581Z" fill="#003C68"/>
<path d="M102.537 17.8089H100.607L99.8526 23.1484H98.0124L98.7666 17.8089H96.8359L97.0169 16.3911H102.718L102.537 17.8089Z" fill="#003C68"/>
<path d="M109.111 16.3911L108.176 23.1484H106.336L106.758 20.2524H104.798L104.375 23.1484H102.535L103.47 16.3911H105.31L104.979 18.8949H106.909L107.271 16.3911H109.111V16.3911Z" fill="#003C68"/>
<path d="M112.974 16.2402C114.09 16.2402 114.844 16.5117 115.266 17.0246C115.689 17.5374 115.809 18.4726 115.628 19.8301C115.538 20.5239 115.417 21.0669 115.236 21.5194C115.055 21.9719 114.844 22.3037 114.573 22.5752C114.301 22.8467 113.969 23.0277 113.607 23.1182C113.245 23.2087 112.793 23.2691 112.25 23.2691C111.134 23.2691 110.349 22.9976 109.957 22.4847C109.565 21.9719 109.444 21.0367 109.625 19.6792C109.806 18.3519 110.138 17.4469 110.621 16.9642C111.134 16.4816 111.888 16.2402 112.974 16.2402ZM112.944 17.6581C112.521 17.6581 112.22 17.8089 112.039 18.0804C111.858 18.3519 111.707 18.9552 111.556 19.8301C111.435 20.6446 111.435 21.1876 111.526 21.4591C111.616 21.7306 111.888 21.8512 112.31 21.8512C112.732 21.8512 113.064 21.7004 113.245 21.4289C113.426 21.1574 113.577 20.5541 113.728 19.6792C113.849 18.8346 113.849 18.2916 113.758 18.0502C113.607 17.7787 113.366 17.6581 112.944 17.6581Z" fill="#003C68"/>
<path d="M116.141 23.1486L117.076 16.3913C117.679 16.3309 118.554 16.3008 119.7 16.3008C120.605 16.3008 121.239 16.4214 121.571 16.6929C121.933 16.9644 122.053 17.4471 121.963 18.1409C121.902 18.6236 121.752 18.9856 121.571 19.2269C121.359 19.4683 121.028 19.5889 120.605 19.6191V19.6794C121.571 19.7699 121.993 20.3733 121.812 21.5498C121.721 22.2134 121.48 22.6659 121.118 22.8771C120.756 23.0883 120.123 23.2391 119.278 23.2391C117.86 23.2089 116.834 23.1788 116.141 23.1486ZM118.101 21.8816H118.916C119.278 21.8816 119.549 21.8213 119.67 21.7006C119.821 21.5799 119.911 21.3386 119.942 21.0068C120.002 20.6749 119.972 20.4638 119.881 20.3733C119.791 20.2828 119.58 20.2224 119.278 20.2224H118.343L118.101 21.8816ZM118.524 19.0459H119.338C119.64 19.0459 119.851 18.9856 119.972 18.8951C120.092 18.8046 120.183 18.5633 120.213 18.2616C120.243 18.0203 120.213 17.8393 120.153 17.7488C120.062 17.6583 119.911 17.6281 119.64 17.6281H118.705L118.524 19.0459Z" fill="#003C68"/>
<path d="M126.095 16.2402C127.211 16.2402 127.965 16.5117 128.388 17.0246C128.81 17.5374 128.931 18.4726 128.75 19.8301C128.659 20.5239 128.538 21.0669 128.357 21.5194C128.176 21.9719 127.965 22.3037 127.694 22.5752C127.422 22.8467 127.09 23.0277 126.728 23.1182C126.366 23.2087 125.914 23.2691 125.371 23.2691C124.255 23.2691 123.47 22.9976 123.078 22.4847C122.686 21.9719 122.565 21.0367 122.746 19.6792C122.927 18.3519 123.259 17.4469 123.742 16.9642C124.255 16.4816 125.009 16.2402 126.095 16.2402ZM126.065 17.6581C125.642 17.6581 125.341 17.8089 125.16 18.0804C124.979 18.3519 124.828 18.9552 124.677 19.8301C124.556 20.6446 124.556 21.1876 124.647 21.4591C124.737 21.7306 125.009 21.8512 125.431 21.8512C125.854 21.8512 126.185 21.7004 126.366 21.4289C126.547 21.1574 126.698 20.5541 126.849 19.6792C126.97 18.8346 126.97 18.2916 126.879 18.0502C126.728 17.7787 126.487 17.6581 126.065 17.6581Z" fill="#003C68"/>
<path d="M135.812 23.0578L135.6 24.5963H134.243L134.303 23.1182H130.08L129.748 24.5963H128.391L128.602 23.1182L128.783 21.8512H129.477C129.989 20.8255 130.472 19.468 130.925 17.7485C131.166 16.8133 131.769 16.3608 132.735 16.3608H135.872L135.088 21.8512H135.993L135.812 23.0578ZM133.217 21.8813L133.821 17.6278H133.308C133.127 17.6278 132.976 17.658 132.855 17.7485C132.735 17.839 132.674 17.9898 132.614 18.201C132.252 19.7697 131.86 21.0065 131.407 21.8512H133.217V21.8813Z" fill="#003C68"/>
<path d="M142.568 16.3911L141.633 23.1484H139.793L140.155 20.4636C139.461 20.7954 138.827 20.9463 138.254 20.9463C137.621 20.9463 137.138 20.7954 136.866 20.5239C136.595 20.2223 136.504 19.7999 136.565 19.2268L136.957 16.4213H138.797L138.435 18.9251C138.405 19.1363 138.405 19.2871 138.495 19.3474C138.586 19.4078 138.737 19.4681 138.948 19.4681C139.37 19.4681 139.823 19.3776 140.275 19.1664L140.667 16.4213H142.568V16.3911Z" fill="#003C68"/>
<path d="M148.297 17.7787H145.854C145.673 17.7787 145.552 17.8088 145.492 17.8692C145.431 17.9295 145.371 18.0502 145.341 18.2312L145.22 19.0457H147.754L147.603 20.3127H145.039L144.888 21.3383C144.858 21.4892 144.888 21.6098 144.949 21.6702C145.009 21.7305 145.13 21.7607 145.28 21.7607H147.694L147.664 23.088C147.121 23.1483 146.065 23.1785 144.526 23.1785C143.983 23.1785 143.561 23.0277 143.32 22.6958C143.048 22.3942 142.958 21.9718 143.018 21.4288L143.531 17.7787C143.591 17.3262 143.772 16.9943 144.074 16.7228C144.375 16.4815 144.737 16.3608 145.22 16.3608C146.789 16.3608 147.875 16.391 148.478 16.4815L148.297 17.7787Z" fill="#003C68"/>
<path d="M153.489 21.61L153.55 22.9675C152.916 23.1485 152.162 23.2692 151.287 23.2692C150.201 23.2692 149.447 22.9977 149.055 22.4547C148.663 21.9117 148.542 21.0067 148.723 19.7095C148.904 18.3822 149.236 17.4772 149.718 16.9945C150.201 16.5118 150.985 16.2705 152.071 16.2705C152.886 16.2705 153.58 16.361 154.183 16.5118L153.972 17.8392C153.278 17.809 152.614 17.809 151.981 17.809C151.679 17.809 151.468 17.8693 151.317 17.9598C151.166 18.0503 151.046 18.2313 150.925 18.533C150.804 18.8347 150.714 19.257 150.654 19.8302C150.533 20.5843 150.533 21.067 150.623 21.3083C150.714 21.5497 150.955 21.6703 151.378 21.6703C152.222 21.7005 152.916 21.6703 153.489 21.61Z" fill="#003C68"/>
<path d="M158.193 19.6191V19.6794C158.374 19.7096 158.555 19.7397 158.676 19.8001C158.797 19.8604 158.917 19.8906 159.038 19.9509C159.129 20.0112 159.219 20.1017 159.309 20.2224C159.37 20.3431 159.43 20.4637 159.491 20.6146C159.551 20.7352 159.611 20.9464 159.641 21.1877C159.702 21.4291 159.732 21.6704 159.792 21.9117C159.853 22.1531 159.883 22.4547 159.943 22.8469C159.973 22.9977 159.973 23.0882 160.003 23.1486H158.133C157.952 21.8816 157.831 21.1576 157.801 20.9766C157.711 20.6146 157.56 20.4034 157.319 20.3431C157.198 20.3129 157.047 20.2827 156.866 20.2827H156.474C156.504 20.5241 156.504 20.7352 156.474 20.9464L156.172 23.1787H154.332L155.267 16.4214H157.107L156.836 18.2616C156.776 18.5934 156.715 18.8649 156.655 19.0761H156.957C157.379 19.0761 157.711 18.8951 157.922 18.5934C158.133 18.2616 158.465 17.5677 158.857 16.4516H160.758C160.275 17.6281 159.943 18.3521 159.822 18.5934C159.581 19.0459 159.279 19.3476 158.917 19.4984C158.736 19.4984 158.495 19.5587 158.193 19.6191Z" fill="#003C68"/>
<path d="M166.552 23.1484H164.802L165.285 19.7396C165.345 19.3474 165.435 18.9854 165.556 18.6234H165.496C165.254 19.1061 165.073 19.4379 164.953 19.5888L162.509 23.1484H160.699L161.634 16.3911H163.414L162.932 19.6793C162.901 19.9809 162.781 20.3731 162.63 20.8859H162.72C162.871 20.4938 163.082 20.1619 163.263 19.8603L165.677 16.3911H167.457L166.552 23.1484Z" fill="#003C68"/>
<path d="M173.637 23.1484H171.888L172.37 19.7396C172.431 19.3474 172.521 18.9854 172.642 18.6234H172.582C172.34 19.1061 172.159 19.4379 172.039 19.5887L169.595 23.1484H167.785L168.72 16.3911H170.5L170.017 19.6792C169.987 19.9809 169.867 20.3731 169.716 20.8859H169.806C169.957 20.4937 170.168 20.1619 170.349 19.8602L172.763 16.3911H174.542L173.637 23.1484ZM172.491 14.3096H173.577C173.577 14.7621 173.396 15.1542 173.064 15.4559C172.732 15.7576 172.31 15.9084 171.767 15.9084C171.194 15.9084 170.741 15.7576 170.44 15.4559C170.138 15.1542 170.078 14.7621 170.198 14.3096H171.345C171.254 14.6112 171.284 14.7922 171.345 14.9129C171.405 15.0336 171.586 15.0939 171.797 15.0939C172.25 15.0637 172.491 14.8224 172.491 14.3096Z" fill="#003C68"/>
<path d="M71.1621 31.3539V31.4143C71.3431 31.4444 71.5241 31.4746 71.6448 31.5349C71.7654 31.5953 71.8861 31.6254 72.0068 31.6858C72.0973 31.7461 72.1878 31.8366 72.2783 31.9572C72.3386 32.0779 72.3989 32.1986 72.4593 32.3494C72.5196 32.4701 72.5799 32.6813 72.6101 32.9226C72.6704 33.1639 72.7006 33.4053 72.7609 33.6466C72.7911 33.8879 72.8514 34.1896 72.9118 34.5818C72.9419 34.7326 72.9419 34.8231 72.9721 34.8834H71.1018C70.9208 33.6164 70.8001 32.8924 70.7699 32.7114C70.6794 32.3494 70.5286 32.1383 70.2873 32.0779C70.1666 32.0478 70.0158 32.0176 69.8348 32.0176H69.4426C69.4728 32.2589 69.4728 32.4701 69.4426 32.6813L69.1409 34.9136H67.3008L68.2359 28.1562H70.0761L69.8046 29.9964C69.7443 30.3282 69.6839 30.5998 69.6236 30.8109H69.9253C70.3476 30.8109 70.6794 30.6299 70.8906 30.3283C71.1018 29.9964 71.4336 29.3026 71.8258 28.1864H73.7263C73.2436 29.3629 72.9118 30.0869 72.7911 30.3283C72.5498 30.7808 72.2481 31.0824 71.8861 31.2333C71.6749 31.2634 71.4336 31.2936 71.1621 31.3539Z" fill="#003C68"/>
<path d="M77.1652 28.0054C78.2813 28.0054 79.0355 28.2769 79.4578 28.7897C79.8801 29.3025 80.0008 30.2377 79.8198 31.5952C79.7293 32.289 79.6086 32.832 79.4276 33.2845C79.2466 33.737 79.0355 34.0689 78.764 34.3404C78.4925 34.6119 78.1607 34.7929 77.7987 34.8834C77.4367 34.9739 76.9842 35.0342 76.4412 35.0342C75.325 35.0342 74.5407 34.7627 74.1485 34.2499C73.7563 33.737 73.6357 32.8019 73.8167 31.4444C73.9977 30.117 74.3295 29.212 74.8122 28.7294C75.325 28.2467 76.1093 28.0054 77.1652 28.0054ZM77.135 29.393C76.7127 29.393 76.411 29.5439 76.23 29.8154C76.049 30.0869 75.8982 30.6902 75.7473 31.565C75.6267 32.3795 75.6267 32.9225 75.7172 33.194C75.8077 33.4655 76.0792 33.5862 76.5015 33.5862C76.9238 33.5862 77.2557 33.4354 77.4367 33.1639C77.6177 32.8924 77.7685 32.289 77.9193 31.4142C78.04 30.5695 78.04 30.0265 77.9495 29.7852C77.8288 29.5439 77.5573 29.393 77.135 29.393Z" fill="#003C68"/>
<path d="M86.6694 28.126H88.3588C88.5699 28.126 88.7208 28.1863 88.8414 28.307C88.9621 28.4276 88.9923 28.6086 88.9621 28.8198L88.3588 34.8833H86.6996L87.2426 29.5438H87.0918L85.7343 33.3448C85.6136 33.7068 85.3723 33.8878 84.9801 33.8878H83.9544C83.7734 33.8878 83.5924 33.8275 83.4718 33.737C83.3511 33.6163 83.2908 33.4956 83.2908 33.2845L82.9891 29.5438H82.8081L81.8729 34.8833H80.1836L81.2998 28.7595C81.3299 28.5483 81.4204 28.3975 81.5109 28.2768C81.6014 28.1561 81.7824 28.126 81.9936 28.126H83.6226C83.8036 28.126 83.9544 28.1863 84.0751 28.2768C84.1958 28.3975 84.2561 28.5181 84.2561 28.7293L84.4974 31.7158C84.5276 32.0175 84.5276 32.3493 84.4974 32.7113H84.6181C84.6784 32.47 84.7689 32.1381 84.8896 31.746L85.9153 28.669C86.0359 28.307 86.2773 28.126 86.6694 28.126Z" fill="#003C68"/>
<path d="M96.0813 28.126L95.1462 34.8833H93.306L94.0903 29.393H92.1597L91.3753 34.8833H89.5352L90.4703 28.126H96.0813Z" fill="#003C68"/>
<path d="M102.868 28.126L101.933 34.8833H100.093L100.877 29.393H100.364C100.153 29.393 100.002 29.4231 99.9117 29.5136C99.8212 29.6041 99.7307 29.755 99.7005 29.9661C99.3083 31.746 98.9464 32.8923 98.705 33.4353C98.3732 34.0688 98.0112 34.5213 97.5587 34.7325C97.1062 34.9436 96.5934 35.004 95.99 34.9135L95.9297 33.4956C96.2615 33.4353 96.5028 33.375 96.6235 33.2845C96.7743 33.194 96.9252 33.013 97.0157 32.8018C97.2872 32.289 97.619 31.203 97.9509 29.5136C98.162 28.6086 98.7352 28.126 99.7005 28.126H102.868V28.126Z" fill="#003C68"/>
<path d="M108.598 29.5135H106.154C105.973 29.5135 105.853 29.5437 105.792 29.604C105.732 29.6644 105.672 29.785 105.641 29.966L105.521 30.7805H108.055L107.904 32.0475H105.34L105.189 33.0732C105.159 33.224 105.189 33.3447 105.249 33.405C105.31 33.4654 105.43 33.4955 105.581 33.4955H107.994L107.964 34.8229C107.421 34.8832 106.365 34.9134 104.827 34.9134C104.284 34.9134 103.862 34.7625 103.62 34.4307C103.349 34.129 103.258 33.7067 103.319 33.1637L103.831 29.5135C103.892 29.061 104.073 28.7292 104.374 28.4577C104.676 28.2164 105.038 28.0957 105.521 28.0957C107.089 28.0957 108.175 28.1259 108.779 28.2164L108.598 29.5135Z" fill="#003C68"/>
<path d="M112.763 31.3539V31.4143C112.944 31.4444 113.125 31.4746 113.245 31.5349C113.366 31.5953 113.487 31.6254 113.607 31.6858C113.698 31.7461 113.788 31.8366 113.879 31.9572C113.939 32.0779 113.999 32.1986 114.06 32.3494C114.12 32.4701 114.18 32.6813 114.211 32.9226C114.271 33.1639 114.301 33.4053 114.361 33.6466C114.422 33.8879 114.452 34.1896 114.512 34.5818C114.542 34.7326 114.542 34.8231 114.573 34.8834H112.702C112.521 33.6164 112.401 32.8924 112.37 32.7114C112.28 32.3494 112.129 32.1383 111.888 32.0779C111.767 32.0478 111.616 32.0176 111.435 32.0176H111.013C111.043 32.2589 111.043 32.4701 111.013 32.6813L110.711 34.9136H108.871L109.806 28.1562H111.646L111.375 29.9964C111.315 30.3282 111.254 30.5998 111.194 30.8109H111.496C111.918 30.8109 112.25 30.6299 112.461 30.3283C112.672 29.9964 113.004 29.3026 113.396 28.1864H115.297C114.814 29.3629 114.482 30.0869 114.361 30.3283C114.12 30.7808 113.818 31.0824 113.456 31.2333C113.306 31.2634 113.064 31.2936 112.763 31.3539Z" fill="#003C68"/>
<path d="M120.185 33.3449L120.245 34.7024C119.611 34.8834 118.857 35.004 117.982 35.004C116.896 35.004 116.142 34.7325 115.75 34.1895C115.358 33.6465 115.237 32.7415 115.418 31.4444C115.599 30.117 115.931 29.212 116.414 28.7294C116.896 28.2467 117.681 28.0054 118.767 28.0054C119.581 28.0054 120.275 28.0959 120.878 28.2467L120.667 29.574C119.973 29.5439 119.31 29.5439 118.676 29.5439C118.375 29.5439 118.163 29.6042 118.013 29.6947C117.862 29.7852 117.741 29.9662 117.62 30.2679C117.5 30.5695 117.409 30.9919 117.349 31.565C117.228 32.3192 117.228 32.8019 117.319 33.0432C117.409 33.2845 117.651 33.4052 118.073 33.4052C118.918 33.4354 119.642 33.4052 120.185 33.3449Z" fill="#003C68"/>
</svg>
