<svg width="172" height="57" viewBox="0 0 172 57" fill="none" xmlns="http://www.w3.org/2000/svg">
<path d="M65.0225 37.5801V37.6103C65.5052 37.6706 65.8672 37.9421 66.0784 38.3645C66.2292 38.6661 66.4102 39.3298 66.6214 40.2951C66.6817 40.5666 66.7119 40.7476 66.742 40.808H65.837C65.8068 40.7175 65.7767 40.5666 65.7465 40.3555C65.6862 40.1141 65.656 39.9331 65.6258 39.8426C65.5957 39.722 65.5655 39.5711 65.5353 39.3901C65.5052 39.2091 65.4449 39.0583 65.4147 38.998C65.3845 38.9075 65.3543 38.817 65.294 38.6661C65.2337 38.5455 65.2035 38.455 65.1432 38.3946C65.0828 38.3343 65.0225 38.274 64.9622 38.1835C64.9018 38.093 64.8113 38.0628 64.751 38.0326C64.6605 38.0025 64.6002 37.9723 64.4795 37.9421C64.389 37.912 64.2683 37.912 64.1477 37.912H63.5142C63.5142 38.0628 63.5142 38.3041 63.484 38.5756L63.1823 40.808H62.2773L63.1522 34.5635H64.0572L63.7857 36.4941C63.7555 36.7355 63.7253 36.9768 63.6348 37.188H64.2382C64.4795 37.188 64.6907 37.1276 64.8717 37.0371C65.0527 36.9466 65.2638 36.7656 65.4448 36.4941C65.6258 36.2226 65.8068 35.9813 65.8973 35.8003C66.018 35.6193 66.1688 35.2573 66.4102 34.7746C66.4403 34.6841 66.4705 34.6238 66.5007 34.5635H67.4359C67.3152 34.8048 67.2247 34.9858 67.1945 35.0763C67.1644 35.1668 67.0739 35.3176 66.9834 35.5288C66.8929 35.74 66.8024 35.8908 66.7722 35.9511C66.7119 36.0416 66.6515 36.1623 66.561 36.3131C66.4705 36.4941 66.38 36.5846 66.3498 36.645C66.3197 36.7053 66.2292 36.7958 66.1387 36.9165C66.0482 37.0371 65.9577 37.1276 65.8973 37.1578C65.837 37.2181 65.7465 37.2785 65.656 37.3388C65.5655 37.3991 65.475 37.4595 65.3543 37.4896C65.2337 37.55 65.113 37.5801 65.0225 37.5801Z" fill="#003C68"/>
<path d="M68.9749 36.4341L68.9146 37.3693C69.2162 37.0676 69.5179 36.8263 69.8799 36.6151C70.2419 36.404 70.5738 36.3135 70.8453 36.3135C71.2072 36.3135 71.4787 36.3738 71.6597 36.5246C71.8407 36.6453 71.9916 36.8866 72.0519 37.2486C72.1122 37.6106 72.1122 38.0933 72.0217 38.6966C71.9614 39.1793 71.8709 39.6016 71.7502 39.9033C71.6296 40.205 71.4787 40.4463 71.2676 40.5971C71.0866 40.748 70.8754 40.8385 70.6642 40.8988C70.4531 40.9591 70.1816 40.9591 69.8799 40.9591C69.4576 40.9591 69.0051 40.929 68.4923 40.8385C68.4923 41.2005 68.4621 41.472 68.4319 41.6831L68.2811 42.6485H67.4062L68.2811 36.404L68.9749 36.4341ZM68.9146 38.033L68.6129 40.2351C68.8844 40.2351 69.2163 40.2351 69.5481 40.2351C69.8498 40.2351 70.0911 40.2351 70.2721 40.1748C70.4229 40.1446 70.5738 40.0843 70.6944 39.9335C70.8151 39.7826 70.9056 39.662 70.9659 39.4508C71.0262 39.2396 71.0866 38.9681 71.1167 38.576C71.2072 37.9123 71.2072 37.49 71.1469 37.309C71.0866 37.128 70.9056 37.0375 70.6341 37.0375C70.4229 37.0375 70.1816 37.128 69.8799 37.2788C69.5782 37.49 69.2464 37.7313 68.9146 38.033Z" fill="#003C68"/>
<path d="M76.7857 40.8385H76.0919L76.1221 40.024C75.5791 40.6273 74.9456 40.9591 74.2216 40.9591C73.6786 40.9591 73.3166 40.7781 73.1356 40.4463C72.9546 40.0843 72.9244 39.481 73.0451 38.6061C73.1054 38.1235 73.1959 37.7313 73.3166 37.3995C73.4372 37.0978 73.5881 36.8565 73.7992 36.7056C74.0104 36.5548 74.1914 36.4643 74.4026 36.404C74.6137 36.3436 74.8852 36.3135 75.2171 36.3135C75.9411 36.3135 76.6349 36.404 77.3589 36.5548L76.7857 40.8385ZM76.1221 39.2698L76.4539 37.0676C75.9109 37.0676 75.5791 37.0375 75.5187 37.0375C75.2171 37.0375 74.9757 37.0676 74.7947 37.0978C74.6137 37.128 74.4931 37.2185 74.3724 37.3391C74.2517 37.4598 74.1612 37.6106 74.1009 37.8218C74.0406 38.0028 73.9802 38.3045 73.9501 38.6665C73.8596 39.3301 73.8596 39.7525 73.9199 39.9335C73.9802 40.1145 74.1612 40.205 74.4327 40.205C74.7042 40.205 75.0059 40.1145 75.2472 39.9636C75.4886 39.8128 75.7902 39.5715 76.1221 39.2698Z" fill="#003C68"/>
<path d="M81.5544 40.1145L81.6147 40.7178C81.1622 40.8686 80.6494 40.9591 80.0762 40.9591C79.2919 40.9591 78.779 40.7781 78.4774 40.4161C78.2059 40.0541 78.1154 39.4508 78.236 38.6061C78.3567 37.7615 78.598 37.1581 78.96 36.8263C79.322 36.4945 79.865 36.3135 80.6494 36.3135C81.2527 36.3135 81.7354 36.404 82.0974 36.5548L81.9465 37.0978C81.5845 37.0676 81.1924 37.0676 80.77 37.0676C80.227 37.0676 79.865 37.1883 79.6237 37.3995C79.3824 37.6106 79.2315 38.033 79.1712 38.6966C79.0807 39.3301 79.141 39.7525 79.2617 39.9636C79.4125 40.1748 79.7444 40.2653 80.227 40.2653C80.7399 40.2351 81.1924 40.205 81.5544 40.1145Z" fill="#003C68"/>
<path d="M87.1031 36.4341L86.4696 40.8384H85.5948L85.8965 38.8172H83.7245L83.453 40.8384H82.5781L83.2116 36.4341H84.0865L83.8451 38.1837H86.0171L86.2585 36.4341H87.1031Z" fill="#003C68"/>
<path d="M88.644 36.8263C89.006 36.4643 89.549 36.3135 90.3333 36.3135C91.0875 36.3135 91.6305 36.4945 91.902 36.8565C92.2036 37.2185 92.264 37.8218 92.1735 38.6665C92.0528 39.5111 91.8115 40.0843 91.4495 40.4463C91.0875 40.8083 90.5445 40.9591 89.7903 40.9591C89.0362 40.9591 88.5233 40.7781 88.2217 40.4161C87.92 40.0541 87.8295 39.4508 87.9502 38.6061C88.0708 37.7916 88.282 37.1883 88.644 36.8263ZM90.3333 37.0676C89.8808 37.0676 89.5188 37.1883 89.3076 37.3995C89.0965 37.6106 88.9456 38.0631 88.8551 38.6966C88.7646 39.3 88.7948 39.7223 88.9155 39.9335C89.0362 40.1446 89.3378 40.2653 89.7903 40.2653C90.273 40.2653 90.6048 40.1446 90.816 39.9033C91.0271 39.662 91.178 39.2396 91.2685 38.6363C91.359 38.033 91.3288 37.6106 91.2082 37.3995C91.0573 37.1581 90.7858 37.0676 90.3333 37.0676Z" fill="#003C68"/>
<path d="M97.1483 36.4339L96.5148 40.8382H95.6399L95.8813 39.2394H94.8556C94.4031 39.2394 94.1014 39.3902 93.9808 39.6919L93.5584 40.8684H92.6836L93.1361 39.5712C93.2266 39.36 93.3473 39.179 93.5283 39.0885C93.7093 38.998 93.8903 38.9377 94.1014 38.9377V38.9075C93.4679 38.7869 93.1964 38.3645 93.2869 37.6707C93.3473 37.1277 93.5283 36.7959 93.8601 36.6149C94.1919 36.464 94.7048 36.3735 95.4288 36.3735C96.0623 36.3735 96.6354 36.4037 97.1483 36.4339ZM96.0019 38.5757L96.2131 37.0674H95.1271C94.7651 37.0674 94.5238 37.1277 94.4031 37.2182C94.2824 37.3087 94.1919 37.4897 94.1618 37.7914C94.1316 38.093 94.1618 38.3042 94.2523 38.4249C94.3428 38.5455 94.5539 38.6059 94.8556 38.6059H96.0019V38.5757Z" fill="#003C68"/>
<path d="M99.2014 36.4341L99.141 37.3693C99.4427 37.0676 99.7444 36.8263 100.106 36.6151C100.468 36.404 100.8 36.3135 101.072 36.3135C101.434 36.3135 101.705 36.3738 101.886 36.5246C102.067 36.6453 102.218 36.8866 102.278 37.2486C102.339 37.6106 102.339 38.0933 102.248 38.6966C102.188 39.1793 102.097 39.6016 101.977 39.9033C101.856 40.205 101.705 40.4463 101.494 40.5971C101.313 40.748 101.102 40.8385 100.891 40.8988C100.68 40.9591 100.408 40.9591 100.106 40.9591C99.684 40.9591 99.2315 40.929 98.7187 40.8385C98.7187 41.2005 98.6885 41.472 98.6584 41.6831L98.5075 42.6485H97.6327L98.5075 36.404L99.2014 36.4341ZM99.1712 38.033L98.8695 40.2351C99.141 40.2351 99.4729 40.2351 99.8047 40.2351C100.106 40.2351 100.348 40.2351 100.529 40.1748C100.68 40.1446 100.83 40.0843 100.951 39.9335C101.072 39.7826 101.162 39.662 101.223 39.4508C101.283 39.2396 101.343 38.9681 101.373 38.576C101.464 37.9123 101.464 37.49 101.404 37.309C101.343 37.128 101.162 37.0375 100.891 37.0375C100.68 37.0375 100.438 37.128 100.137 37.2788C99.8047 37.49 99.503 37.7313 99.1712 38.033Z" fill="#003C68"/>
<path d="M106.562 40.1145L106.622 40.7178C106.17 40.8686 105.657 40.9591 105.084 40.9591C104.3 40.9591 103.787 40.7781 103.485 40.4161C103.214 40.0541 103.123 39.4508 103.244 38.6061C103.364 37.7615 103.606 37.1581 103.968 36.8263C104.33 36.4945 104.873 36.3135 105.657 36.3135C106.26 36.3135 106.743 36.404 107.105 36.5548L106.954 37.0978C106.592 37.0676 106.2 37.0676 105.778 37.0676C105.235 37.0676 104.873 37.1883 104.631 37.3995C104.39 37.6106 104.239 38.033 104.179 38.6966C104.088 39.3301 104.149 39.7525 104.269 39.9636C104.42 40.1748 104.752 40.2653 105.235 40.2653C105.748 40.2351 106.17 40.205 106.562 40.1145Z" fill="#003C68"/>
<path d="M110.032 38.5455C110.455 38.6059 110.726 38.7567 110.907 38.998C111.058 39.2695 111.239 39.7522 111.42 40.5365C111.45 40.6572 111.48 40.7779 111.48 40.8382H110.605C110.394 40.0539 110.274 39.5712 110.183 39.4204C110.032 39.1187 109.821 38.9377 109.55 38.9075C109.489 38.9075 109.399 38.8774 109.308 38.8774H108.675C108.675 39.0282 108.675 39.179 108.645 39.2997L108.433 40.808H107.559L108.192 36.4037H109.067L108.886 37.7009C108.856 37.8819 108.826 38.0629 108.765 38.1835H109.308C109.7 38.1835 110.002 38.0629 110.213 37.7914C110.424 37.55 110.696 37.0674 111.058 36.3735H111.993C111.601 37.1579 111.299 37.7009 111.058 37.9724C110.786 38.3344 110.455 38.4852 110.032 38.5455Z" fill="#003C68"/>
<path d="M116.879 36.434L116.276 40.8383H115.582L115.643 39.9031C114.919 40.597 114.255 40.959 113.621 40.959C113.229 40.959 112.928 40.8383 112.747 40.6271C112.566 40.416 112.505 40.1143 112.566 39.7221L113.018 36.4038H113.893L113.44 39.4808C113.41 39.7523 113.41 39.9333 113.501 40.0238C113.561 40.1143 113.712 40.1746 113.923 40.1746C114.164 40.1746 114.406 40.1143 114.647 39.9635C114.888 39.8126 115.22 39.5713 115.612 39.2093L116.005 36.4038H116.879V36.434Z" fill="#003C68"/>
<path d="M122.067 36.434L121.464 40.8383H120.77L120.83 39.9031C120.106 40.597 119.442 40.959 118.809 40.959C118.417 40.959 118.115 40.8383 117.934 40.6271C117.753 40.416 117.693 40.1143 117.753 39.7221L118.206 36.4038H119.08L118.628 39.4808C118.598 39.7523 118.598 39.9333 118.688 40.0238C118.749 40.1143 118.899 40.1746 119.111 40.1746C119.352 40.1746 119.593 40.1143 119.835 39.9635C120.076 39.8126 120.408 39.5713 120.8 39.2093L121.192 36.4038H122.067V36.434ZM121.102 34.4731H121.765C121.735 34.8351 121.584 35.167 121.313 35.3781C121.041 35.6195 120.709 35.7401 120.257 35.7401C119.804 35.7401 119.473 35.6195 119.231 35.3781C118.99 35.1368 118.93 34.8351 118.99 34.4731H119.654C119.563 34.986 119.804 35.2575 120.317 35.2575C120.8 35.2575 121.041 34.986 121.102 34.4731Z" fill="#003C68"/>
<path d="M127.256 38.5455C127.678 38.6059 127.95 38.7567 128.131 38.998C128.282 39.2695 128.463 39.7522 128.644 40.5365C128.674 40.6572 128.704 40.7779 128.704 40.8382H127.829C127.618 40.0539 127.497 39.5712 127.407 39.4204C127.256 39.1187 127.045 38.9377 126.773 38.9075C126.713 38.9075 126.623 38.8774 126.532 38.8774H125.899C125.899 39.0282 125.899 39.179 125.868 39.2997L125.657 40.808H124.812L125.446 36.4037H126.321L126.14 37.7009C126.11 37.8819 126.08 38.0629 126.019 38.1835H126.562C126.954 38.1835 127.256 38.0629 127.467 37.7914C127.678 37.55 127.95 37.0674 128.312 36.3735H129.247C128.855 37.1579 128.553 37.7009 128.312 37.9724C128.04 38.3344 127.709 38.4852 127.256 38.5455Z" fill="#003C68"/>
<path d="M130.998 36.4341L130.938 37.3693C131.24 37.0676 131.541 36.8263 131.903 36.6151C132.265 36.404 132.597 36.3135 132.869 36.3135C133.231 36.3135 133.502 36.3738 133.683 36.5246C133.864 36.6453 134.015 36.8866 134.075 37.2486C134.136 37.6106 134.136 38.0933 134.045 38.6966C133.985 39.1793 133.894 39.6016 133.774 39.9033C133.653 40.205 133.502 40.4463 133.291 40.5971C133.11 40.748 132.899 40.8385 132.688 40.8988C132.477 40.9591 132.205 40.9591 131.903 40.9591C131.481 40.9591 131.029 40.929 130.516 40.8385C130.516 41.2005 130.486 41.472 130.455 41.6831L130.305 42.6485H129.43L130.305 36.404L130.998 36.4341ZM130.938 38.033L130.636 40.2351C130.908 40.2351 131.24 40.2351 131.572 40.2351C131.873 40.2351 132.115 40.2351 132.296 40.1748C132.446 40.1446 132.597 40.0843 132.718 39.9335C132.839 39.7826 132.929 39.662 132.989 39.4508C133.05 39.2396 133.11 38.9681 133.14 38.576C133.231 37.9123 133.231 37.49 133.17 37.309C133.11 37.128 132.929 37.0375 132.658 37.0375C132.446 37.0375 132.205 37.128 131.903 37.2788C131.602 37.49 131.27 37.7313 130.938 38.033Z" fill="#003C68"/>
<path d="M138.782 40.8385H138.088L138.118 40.024C137.575 40.6273 136.942 40.9591 136.218 40.9591C135.675 40.9591 135.313 40.7781 135.132 40.4463C134.951 40.0843 134.92 39.481 135.041 38.6061C135.101 38.1235 135.192 37.7313 135.313 37.3995C135.433 37.0978 135.584 36.8565 135.795 36.7056C136.006 36.5548 136.187 36.4643 136.399 36.404C136.61 36.3436 136.881 36.3135 137.213 36.3135C137.937 36.3135 138.631 36.404 139.355 36.5548L138.782 40.8385ZM138.118 39.2698L138.45 37.0676C137.907 37.0676 137.575 37.0375 137.515 37.0375C137.213 37.0375 136.972 37.0676 136.791 37.0978C136.61 37.128 136.489 37.2185 136.368 37.3391C136.248 37.4598 136.157 37.6106 136.097 37.8218C136.037 38.0028 135.976 38.3045 135.946 38.6665C135.856 39.3301 135.856 39.7525 135.916 39.9335C135.976 40.1145 136.157 40.205 136.429 40.205C136.7 40.205 137.002 40.1145 137.243 39.9636C137.515 39.8128 137.786 39.5715 138.118 39.2698Z" fill="#003C68"/>
<path d="M144.602 36.434L143.999 40.8383H143.305L143.365 39.9031C142.641 40.597 141.978 40.959 141.344 40.959C140.952 40.959 140.65 40.8383 140.469 40.6271C140.288 40.416 140.228 40.1143 140.288 39.7221L140.741 36.4038H141.616L141.163 39.4808C141.133 39.7523 141.133 39.9333 141.224 40.0238C141.284 40.1143 141.435 40.1746 141.646 40.1746C141.887 40.1746 142.129 40.1143 142.37 39.9635C142.611 39.8126 142.943 39.5713 143.335 39.2093L143.727 36.4038H144.602V36.434ZM143.667 34.4731H144.331C144.301 34.8351 144.15 35.167 143.878 35.3781C143.607 35.6195 143.275 35.7401 142.822 35.7401C142.37 35.7401 142.038 35.6195 141.797 35.3781C141.555 35.1368 141.495 34.8351 141.555 34.4731H142.219C142.129 34.986 142.37 35.2575 142.883 35.2575C143.335 35.2575 143.607 34.986 143.667 34.4731Z" fill="#003C68"/>
<path d="M145.75 39.7222H145.991C146.203 39.7222 146.323 39.8428 146.263 40.054L146.172 40.6272C146.112 41.0495 145.931 41.5322 145.629 42.0752L145.207 41.9243C145.358 41.4417 145.448 41.0797 145.509 40.8082C145.418 40.8082 145.358 40.778 145.298 40.7478C145.237 40.6875 145.237 40.6272 145.237 40.5367L145.298 40.0238C145.328 39.9032 145.358 39.8127 145.418 39.7825C145.479 39.7523 145.629 39.7222 145.75 39.7222Z" fill="#003C68"/>
<path d="M70.0905 43.855L69.2157 50.0995H62.2773L63.1522 43.855H64.027L63.2427 49.3755H65.3845L66.1689 43.855H67.0437L66.2593 49.3755H68.4012L69.1855 43.855H70.0905Z" fill="#003C68"/>
<path d="M74.252 45.6953H75.157C74.8855 46.9925 74.4631 48.1991 73.9201 49.3455C73.6486 49.9488 73.347 50.4315 73.0453 50.8236C72.7436 51.2158 72.442 51.4873 72.1403 51.6683C71.8386 51.8192 71.5671 51.9398 71.2655 52.0002C70.9638 52.0605 70.6621 52.0605 70.3906 51.97L70.4811 51.246C71.2655 51.3968 71.9593 51.0047 72.5928 50.0997H72.1403C71.9895 50.0997 71.8688 50.0695 71.7783 49.979C71.6878 49.8885 71.6275 49.798 71.5973 49.6773L70.7526 45.6953H71.6878L72.3515 49.2852C72.3816 49.3757 72.442 49.436 72.5325 49.436H72.985L73.166 49.1041C73.6788 47.988 74.071 46.8718 74.252 45.6953Z" fill="#003C68"/>
<path d="M82.6406 45.6951L82.0071 50.0994H81.3133L81.3435 49.1643C80.6798 49.8581 80.0765 50.2201 79.5033 50.2201C79.1715 50.2201 78.9301 50.1296 78.7491 49.9486C78.5681 49.7676 78.4776 49.5263 78.4776 49.2246C77.8743 49.8883 77.271 50.1899 76.728 50.1899C76.3358 50.1899 76.0643 50.0693 75.8833 49.8581C75.7023 49.6469 75.642 49.3453 75.7023 48.9531L76.1548 45.6348H77.0296L76.6073 48.7118C76.5771 48.9531 76.5771 49.1341 76.6676 49.2246C76.7581 49.3151 76.8788 49.3754 77.09 49.3754C77.3011 49.3754 77.4821 49.3151 77.6631 49.1944C77.8441 49.0738 78.1458 48.8324 78.538 48.4403L78.9301 45.6348H79.7748L79.3525 48.7118C79.3223 48.9531 79.3525 49.1039 79.4128 49.2246C79.4731 49.3151 79.624 49.3754 79.8351 49.3754C79.986 49.3754 80.1368 49.3453 80.2876 49.2548C80.4385 49.1643 80.5591 49.1039 80.6798 49.0134C80.7703 48.9229 80.9815 48.7419 81.3133 48.4704L81.7055 45.6348H82.6406V45.6951Z" fill="#003C68"/>
<path d="M87.0751 49.3752L87.1355 49.9785C86.7131 50.1595 86.1098 50.2199 85.3255 50.2199C84.5713 50.2199 84.0585 50.0087 83.7568 49.6165C83.4551 49.2244 83.3646 48.6211 83.4853 47.7764C83.606 46.9317 83.8473 46.3586 84.1791 46.0267C84.511 45.6949 85.1143 45.5742 85.9288 45.5742C86.6226 45.5742 87.0751 45.6949 87.3466 45.9362C87.588 46.1776 87.6785 46.5396 87.6181 46.9921C87.5578 47.4144 87.3768 47.7161 87.1053 47.9272C86.8338 48.1082 86.4416 48.2289 85.8685 48.2892L84.33 48.4401C84.33 48.8624 84.4205 49.1339 84.6015 49.2847C84.7825 49.4356 85.054 49.4959 85.4461 49.4959C85.8685 49.4959 86.4115 49.4355 87.0751 49.3752ZM84.3903 47.7764L85.8685 47.6256C86.14 47.5954 86.3511 47.5351 86.4718 47.4446C86.5925 47.3541 86.683 47.1731 86.7131 46.9317C86.7433 46.6602 86.7131 46.4792 86.5623 46.4189C86.4416 46.3586 86.1701 46.3284 85.778 46.3284C85.3255 46.3284 84.9936 46.4189 84.8126 46.5999C84.6015 46.7809 84.4808 47.1731 84.3903 47.7764Z" fill="#003C68"/>
<path d="M92.775 45.6953L92.1415 50.0997H91.2667L91.5683 48.0785H89.3963L89.1248 50.0997H88.25L88.8835 45.6953H89.7583L89.517 47.445H91.689L91.9303 45.6953H92.775Z" fill="#003C68"/>
<path d="M96.9372 49.3752L96.9975 49.9785C96.545 50.1294 96.0322 50.2199 95.459 50.2199C94.6747 50.2199 94.1618 50.0389 93.8602 49.6769C93.5887 49.3149 93.4982 48.7115 93.6188 47.8669C93.7395 47.0222 93.9808 46.4189 94.3428 46.0871C94.7049 45.7552 95.2479 45.5742 96.0322 45.5742C96.6355 45.5742 97.1182 45.6647 97.4802 45.8156L97.3294 46.3585C96.9674 46.3284 96.5752 46.3284 96.1529 46.3284C95.6099 46.3284 95.2479 46.449 95.0065 46.6602C94.7652 46.8714 94.6144 47.2937 94.554 47.9574C94.4635 48.5909 94.5238 49.0132 94.6445 49.2244C94.7954 49.4355 95.1272 49.526 95.6099 49.526C96.1227 49.4959 96.5752 49.4657 96.9372 49.3752Z" fill="#003C68"/>
<path d="M100.408 47.8068C100.831 47.8671 101.102 48.0179 101.283 48.2593C101.434 48.5308 101.615 49.0134 101.796 49.7978C101.826 49.9184 101.856 50.0391 101.856 50.0994H100.982C100.77 49.3151 100.65 48.8324 100.559 48.6816C100.408 48.3799 100.197 48.1989 99.9257 48.1688C99.8653 48.1688 99.7748 48.1386 99.6843 48.1386H99.0508C99.0508 48.2894 99.0508 48.4403 99.0207 48.5609L98.8095 50.0693H97.9648L98.5983 45.6649H99.4732L99.2922 46.9621C99.262 47.1431 99.2318 47.3241 99.1715 47.4448H99.7145C100.107 47.4448 100.408 47.3241 100.62 47.0526C100.831 46.8113 101.102 46.3286 101.464 45.6348H102.399C102.007 46.4191 101.706 46.9621 101.464 47.2336C101.193 47.5956 100.831 47.7464 100.408 47.8068Z" fill="#003C68"/>
<path d="M107.254 45.6952L106.651 50.0995H105.957L106.018 49.1644C105.294 49.8582 104.63 50.2202 103.996 50.2202C103.604 50.2202 103.303 50.0995 103.122 49.8884C102.941 49.6772 102.88 49.3755 102.941 48.9834L103.393 45.665H104.268L103.815 48.742C103.785 49.0135 103.785 49.1945 103.876 49.285C103.936 49.3755 104.087 49.4359 104.298 49.4359C104.539 49.4359 104.781 49.3755 105.022 49.2247C105.263 49.0739 105.595 48.8325 105.987 48.4705L106.38 45.665H107.254V45.6952Z" fill="#003C68"/>
<path d="M112.446 45.6952L111.842 50.0996H111.149L111.209 49.1644C110.485 49.8582 109.821 50.2202 109.188 50.2202C108.796 50.2202 108.494 50.0996 108.313 49.8884C108.132 49.6772 108.072 49.3756 108.132 48.9834L108.585 45.665H109.459L109.007 48.742C108.977 49.0135 108.977 49.1946 109.067 49.285C109.127 49.3756 109.278 49.4359 109.489 49.4359C109.731 49.4359 109.972 49.3755 110.213 49.2247C110.455 49.0739 110.787 48.8325 111.179 48.4705L111.571 45.665H112.446V45.6952ZM111.511 43.7344H112.174C112.144 44.0964 111.993 44.4282 111.722 44.6394C111.45 44.8807 111.118 45.0014 110.666 45.0014C110.213 45.0014 109.882 44.8807 109.64 44.6394C109.399 44.398 109.339 44.0964 109.399 43.7344H110.063C109.972 44.2472 110.213 44.5187 110.726 44.5187C111.179 44.5187 111.45 44.2472 111.511 43.7344Z" fill="#003C68"/>
<path d="M116.518 45.6949L116.458 46.6301C116.759 46.3284 117.061 46.0871 117.423 45.8759C117.785 45.6647 118.117 45.5742 118.388 45.5742C118.75 45.5742 119.022 45.6346 119.203 45.7854C119.384 45.9061 119.535 46.1474 119.595 46.5094C119.655 46.8714 119.655 47.354 119.565 47.9574C119.504 48.44 119.414 48.8624 119.293 49.164C119.173 49.4657 119.022 49.707 118.811 49.8579C118.63 50.0087 118.418 50.0992 118.207 50.1595C117.996 50.2199 117.725 50.2199 117.423 50.2199C117.001 50.2199 116.548 50.1897 116.035 50.0992C116.035 50.4612 116.005 50.7327 115.975 50.9439L115.824 51.9092H114.949L115.824 45.6647H116.518V45.6949ZM116.488 47.2937L116.186 49.4959C116.458 49.4959 116.789 49.4959 117.121 49.4959C117.423 49.4959 117.664 49.4959 117.845 49.4355C117.996 49.4054 118.147 49.345 118.268 49.1942C118.388 49.0434 118.479 48.9227 118.539 48.7115C118.599 48.5004 118.66 48.2289 118.69 47.8367C118.78 47.1731 118.78 46.7507 118.72 46.5697C118.66 46.3887 118.479 46.2982 118.207 46.2982C117.996 46.2982 117.755 46.3887 117.453 46.5396C117.121 46.7507 116.82 46.9921 116.488 47.2937Z" fill="#003C68"/>
<path d="M124.329 50.0992H123.635L123.665 49.2847C123.122 49.8881 122.489 50.2199 121.765 50.2199C121.222 50.2199 120.86 50.0389 120.679 49.7071C120.498 49.3451 120.467 48.7417 120.588 47.8669C120.648 47.3842 120.739 46.992 120.86 46.6602C120.98 46.3585 121.131 46.1172 121.342 45.9664C121.553 45.8156 121.734 45.7251 121.946 45.6647C122.157 45.6044 122.428 45.5742 122.76 45.5742C123.484 45.5742 124.178 45.6647 124.902 45.8156L124.329 50.0992ZM123.665 48.5004L123.997 46.2982C123.454 46.2982 123.122 46.2681 123.062 46.2681C122.76 46.2681 122.519 46.2982 122.338 46.3284C122.157 46.3586 122.036 46.4491 121.915 46.5697C121.795 46.6904 121.704 46.8412 121.644 47.0524C121.584 47.2334 121.523 47.5351 121.493 47.8971C121.403 48.5607 121.403 48.983 121.463 49.164C121.523 49.345 121.704 49.4356 121.976 49.4356C122.247 49.4356 122.549 49.3451 122.79 49.1942C123.032 49.0736 123.333 48.8322 123.665 48.5004Z" fill="#003C68"/>
<path d="M130.122 45.6952L129.518 50.0996H128.824L128.885 49.1644C128.161 49.8582 127.497 50.2202 126.864 50.2202C126.471 50.2202 126.17 50.0996 125.989 49.8884C125.808 49.6772 125.747 49.3756 125.808 48.9834L126.26 45.665H127.135L126.683 48.742C126.652 49.0135 126.652 49.1946 126.743 49.285C126.803 49.3756 126.954 49.4359 127.165 49.4359C127.407 49.4359 127.648 49.3755 127.889 49.2247C128.131 49.0739 128.462 48.8325 128.855 48.4705L129.247 45.665H130.122V45.6952ZM129.186 43.7344H129.85C129.82 44.0964 129.669 44.4282 129.398 44.6394C129.126 44.8807 128.794 45.0014 128.342 45.0014C127.889 45.0014 127.557 44.8807 127.316 44.6394C127.075 44.398 127.014 44.0964 127.075 43.7344H127.738C127.648 44.2472 127.889 44.5187 128.402 44.5187C128.855 44.5187 129.126 44.2472 129.186 43.7344Z" fill="#003C68"/>
<path d="M131.691 46.0875C132.053 45.7255 132.596 45.5747 133.38 45.5747C134.134 45.5747 134.677 45.7557 134.949 46.1177C135.251 46.4797 135.311 47.083 135.22 47.9277C135.1 48.7724 134.858 49.3455 134.496 49.7075C134.134 50.0695 133.591 50.2204 132.837 50.2204C132.083 50.2204 131.57 50.0394 131.269 49.6774C130.967 49.3154 130.876 48.712 130.997 47.8674C131.088 47.0529 131.329 46.4495 131.691 46.0875ZM133.35 46.3289C132.898 46.3289 132.536 46.4495 132.324 46.6607C132.113 46.8719 131.962 47.3244 131.872 47.9579C131.781 48.5612 131.812 48.9835 131.932 49.1947C132.053 49.4059 132.355 49.5265 132.807 49.5265C133.29 49.5265 133.622 49.4059 133.833 49.1645C134.044 48.9232 134.195 48.5009 134.285 47.8975C134.376 47.2942 134.346 46.8719 134.225 46.6607C134.104 46.4194 133.803 46.3289 133.35 46.3289Z" fill="#003C68"/>
<path d="M140.56 45.6953L139.927 50.0997H139.052L139.353 48.0785H137.181L136.91 50.0997H136.035L136.669 45.6953H137.543L137.302 47.445H139.474L139.715 45.6953H140.56Z" fill="#003C68"/>
<g opacity="0.9">
<path opacity="0.9" d="M35.2182 31.9394C35.2483 29.8881 34.826 27.9574 34.1925 26.0267C33.8607 25.0011 33.197 23.1006 32.8048 22.1051C27.948 23.9754 29.577 20.3855 25.8062 20.4157C24.1168 20.6872 23.5738 21.743 23.6643 21.6827C23.3928 22.5576 23.1213 23.4324 22.8498 24.3072C22.1258 26.5999 21.1303 28.8322 21.2208 31.3361C21.3113 33.5986 21.251 35.8912 21.251 38.1537C21.251 40.7782 21.251 43.4329 21.251 46.0574C21.251 47.0227 21.2812 47.0529 22.2767 47.0529C26.2285 47.0529 30.1803 47.0529 34.1322 47.0529C35.2182 47.0529 35.2182 47.0529 35.2182 45.9669C35.188 41.2911 35.1578 36.6152 35.2182 31.9394Z" fill="#003C68"/>
<path opacity="0.9" d="M28.3703 0.988281C13.1663 0.988281 0.828125 13.3264 0.828125 28.5304C0.828125 43.7345 13.1663 56.0726 28.3703 56.0726C43.5743 56.0726 55.9125 43.7345 55.9125 28.5304C55.9125 13.3264 43.6045 0.988281 28.3703 0.988281ZM22.4576 7.89645C22.4275 6.93112 22.88 6.44845 23.8453 6.41828C24.871 6.38811 25.9268 6.41828 26.9525 6.38812C28.7021 6.38812 30.482 6.38812 32.2316 6.38812C33.559 6.38812 33.9813 6.81045 33.9511 8.10761C33.9511 8.95228 34.2226 9.88745 33.378 10.5813H23.0308C22.156 9.85728 22.4878 8.83162 22.4576 7.89645ZM37.2091 46.1176C37.2091 48.0785 36.2438 49.0739 34.2528 49.0739C30.2105 49.0739 26.1983 49.0739 22.156 49.0739C20.165 49.0739 19.1996 48.1086 19.1996 46.1176C19.1996 43.4931 19.1996 40.8988 19.1996 38.2743C19.1996 35.9213 19.2298 33.5683 19.1996 31.2153C19.1695 29.4958 19.5013 27.8366 20.0443 26.2076C20.9191 23.5831 21.8845 21.0189 22.6688 18.3643C23.2721 16.3431 23.0911 14.2616 23.061 12.1801H33.3478C33.3176 14.5029 33.1668 16.8559 33.8908 19.1184C34.645 21.5016 35.6103 23.8245 36.3041 26.2076C36.7566 27.8366 37.1186 29.5259 37.1488 31.2153C37.2695 36.1928 37.2091 41.1703 37.2091 46.1176Z" fill="#003C68"/>
</g>
<path d="M70.5404 15.9809V16.0412C71.0532 16.1015 71.385 16.3127 71.5359 16.5842C71.6867 16.8859 71.8677 17.5797 72.0487 18.6959C72.109 19.0277 72.1694 19.2992 72.1995 19.5104H70.3594C70.299 19.2389 70.2387 18.8467 70.1784 18.3942C70.0577 17.6099 69.937 17.097 69.8465 16.916C69.756 16.7049 69.575 16.6144 69.3035 16.6144H69.0019C69.0019 16.8859 69.0019 17.097 68.9717 17.278L68.67 19.5104H66.8902L67.222 17.2177C67.2522 17.0065 67.3125 16.7954 67.3729 16.6144H67.1014C66.7997 16.6144 66.5584 16.7652 66.3472 17.0669C66.1662 17.3685 65.774 18.183 65.1405 19.5104H63.1797C63.3607 19.0579 63.5115 18.726 63.602 18.5149C63.6925 18.3037 63.8132 18.0624 63.9339 17.7607C64.0545 17.459 64.1752 17.278 64.2355 17.1574C64.2959 17.0367 64.3864 16.8859 64.507 16.735C64.6277 16.5842 64.7182 16.4635 64.8087 16.4032C64.8992 16.3429 64.9897 16.2825 65.1104 16.2222C65.231 16.1619 65.3517 16.1015 65.4724 16.0714C65.593 16.0412 65.7439 16.011 65.8947 15.9809V15.9205C65.7137 15.8904 65.5327 15.83 65.412 15.7999C65.2914 15.7395 65.1707 15.6792 65.0802 15.5887C64.9897 15.4982 64.8992 15.3775 64.8389 15.287C64.7785 15.1664 64.7182 15.0155 64.6579 14.8044C64.5975 14.5932 64.5674 14.382 64.507 14.1709C64.4769 13.9597 64.4165 13.658 64.3562 13.296C64.326 13.0849 64.2959 12.9039 64.2657 12.7832H66.0757C66.1059 12.9642 66.136 13.2055 66.1964 13.5374C66.317 14.3217 66.4075 14.8345 66.498 15.0759C66.5885 15.3172 66.7695 15.4379 67.041 15.4379H67.4634C67.4332 15.1664 67.4332 14.8647 67.4935 14.563L67.7349 12.8134H69.4845L69.213 14.6535C69.1527 14.9552 69.1225 15.2267 69.032 15.468H69.213C69.5147 15.468 69.756 15.3474 69.937 15.106C70.118 14.8647 70.3895 14.3217 70.7515 13.477C70.8722 13.2055 70.9627 12.9944 71.023 12.8435H72.9235C72.833 13.0245 72.7425 13.2357 72.6219 13.5072C72.5012 13.7787 72.4107 13.9597 72.3805 14.0804C72.3202 14.201 72.2599 14.3519 72.1694 14.563C72.0789 14.744 72.0185 14.8949 71.9582 14.9854C71.8979 15.0759 71.8375 15.1664 71.7772 15.287C71.6867 15.4077 71.6264 15.4982 71.566 15.5585C71.5057 15.6189 71.4454 15.6792 71.3549 15.7395C71.2644 15.7999 71.1739 15.8602 71.0834 15.8904C70.9929 15.9205 70.9024 15.9507 70.7817 15.9809C70.8119 15.9205 70.6912 15.9507 70.5404 15.9809Z" fill="#989898"/>
<path d="M78.8055 19.5103H77.0558L77.5385 16.1014C77.5988 15.7093 77.6893 15.3473 77.81 14.9853H77.7496C77.5083 15.4679 77.3273 15.7998 77.2066 15.9506L74.7631 19.5103H72.9531L73.8883 12.7529H75.6681L75.1855 16.0411C75.1553 16.3428 75.0346 16.7349 74.8838 17.2478H74.9743C75.1251 16.8556 75.3363 16.5238 75.5173 16.2221L77.9306 12.7529H79.7105L78.8055 19.5103Z" fill="#989898"/>
<path d="M80.0742 19.5099L81.0094 12.7526C81.6127 12.6923 82.4876 12.6621 83.6339 12.6621C84.5389 12.6621 85.1724 12.7828 85.5042 13.0543C85.8662 13.3258 85.9869 13.8084 85.8964 14.5023C85.8361 14.9849 85.6852 15.3469 85.5042 15.5883C85.2931 15.8296 84.9612 15.9503 84.5389 15.9804V16.0408C85.5042 16.1313 85.9266 16.7346 85.7456 17.9111C85.6551 18.5748 85.4137 19.0273 85.0517 19.2384C84.6897 19.4496 84.0562 19.6004 83.2116 19.6004C81.7937 19.5703 80.7681 19.5401 80.0742 19.5099ZM82.0351 18.2429H82.8496C83.2116 18.2429 83.4831 18.1826 83.6037 18.0619C83.7546 17.9413 83.8451 17.6999 83.8752 17.3681C83.9356 17.0363 83.9054 16.8251 83.8149 16.7346C83.7244 16.6441 83.5132 16.5838 83.2116 16.5838H82.2764L82.0351 18.2429ZM82.4272 15.4073H83.2417C83.5434 15.4073 83.7546 15.3469 83.8752 15.2564C83.9959 15.1659 84.0864 14.9246 84.1166 14.6229C84.1467 14.3816 84.1166 14.2006 84.0562 14.1101C83.9657 14.0196 83.8149 13.9894 83.5434 13.9894H82.6082L82.4272 15.4073Z" fill="#989898"/>
<path d="M89.9972 12.6021C91.1134 12.6021 91.8675 12.8736 92.2899 13.3864C92.7122 13.8992 92.8328 14.8344 92.6518 16.1919C92.5613 16.8857 92.4407 17.4287 92.2597 17.8812C92.0787 18.3337 91.8675 18.6656 91.596 18.9371C91.3245 19.2086 90.9927 19.3896 90.6307 19.4801C90.2687 19.5706 89.8162 19.6309 89.2732 19.6309C88.157 19.6309 87.3727 19.3594 86.9805 18.8466C86.5884 18.3337 86.4677 17.3986 86.6487 16.0411C86.8297 14.7137 87.1615 13.8087 87.6442 13.3261C88.157 12.8434 88.9414 12.6021 89.9972 12.6021ZM89.967 14.0199C89.5447 14.0199 89.243 14.1707 89.062 14.4422C88.881 14.7137 88.7302 15.3171 88.5794 16.1919C88.4587 17.0064 88.4587 17.5494 88.5492 17.8209C88.6397 18.0924 88.9112 18.2131 89.3335 18.2131C89.7559 18.2131 90.0877 18.0622 90.2687 17.7907C90.4497 17.5192 90.6005 16.9159 90.7514 16.0411C90.872 15.1964 90.872 14.6534 90.7815 14.4121C90.6609 14.1406 90.3894 14.0199 89.967 14.0199Z" fill="#989898"/>
<path d="M99.0177 14.1708H97.087L96.3328 19.5103H94.4927L95.2468 14.1708H93.3162L93.4972 12.7529H99.1987L99.0177 14.1708Z" fill="#989898"/>
<path d="M105.595 12.7529L104.66 19.5103H102.789L103.212 16.6143H101.251L100.828 19.5103H98.9883L99.9234 12.7529H101.764L101.432 15.2568H103.362L103.724 12.7529H105.595Z" fill="#989898"/>
<path d="M109.454 12.6021C110.57 12.6021 111.325 12.8736 111.747 13.3864C112.169 13.8992 112.29 14.8344 112.109 16.1919C112.018 16.8857 111.898 17.4287 111.717 17.8812C111.536 18.3337 111.325 18.6656 111.053 18.9371C110.782 19.2086 110.45 19.3896 110.088 19.4801C109.726 19.5706 109.273 19.6309 108.73 19.6309C107.614 19.6309 106.83 19.3594 106.438 18.8466C106.045 18.3337 105.925 17.3986 106.106 16.0411C106.287 14.7137 106.619 13.8087 107.101 13.3261C107.614 12.8434 108.398 12.6021 109.454 12.6021ZM109.424 14.0199C109.002 14.0199 108.7 14.1707 108.519 14.4422C108.338 14.7137 108.187 15.3171 108.036 16.1919C107.916 17.0064 107.916 17.5494 108.006 17.8209C108.097 18.0924 108.368 18.2131 108.791 18.2131C109.213 18.2131 109.545 18.0622 109.726 17.7907C109.907 17.5192 110.058 16.9159 110.208 16.0411C110.329 15.1964 110.329 14.6534 110.239 14.4121C110.118 14.1406 109.846 14.0199 109.424 14.0199Z" fill="#989898"/>
<path d="M112.621 19.5099L113.556 12.7526C114.16 12.6923 115.034 12.6621 116.181 12.6621C117.086 12.6621 117.719 12.7828 118.051 13.0543C118.413 13.3258 118.534 13.8084 118.443 14.5023C118.383 14.9849 118.232 15.3469 118.051 15.5883C117.84 15.8296 117.508 15.9503 117.086 15.9804V16.0408C118.051 16.1313 118.473 16.7346 118.292 17.9111C118.202 18.5748 117.961 19.0273 117.599 19.2384C117.237 19.4496 116.603 19.6004 115.758 19.6004C114.371 19.5703 113.315 19.5401 112.621 19.5099ZM114.582 18.2429H115.396C115.758 18.2429 116.03 18.1826 116.151 18.0619C116.301 17.9413 116.392 17.6999 116.422 17.3681C116.482 17.0363 116.452 16.8251 116.362 16.7346C116.271 16.6441 116.06 16.5838 115.758 16.5838H114.823L114.582 18.2429ZM115.004 15.4073H115.819C116.12 15.4073 116.332 15.3469 116.452 15.2564C116.573 15.1659 116.663 14.9246 116.694 14.6229C116.724 14.3816 116.694 14.2006 116.633 14.1101C116.543 14.0196 116.392 13.9894 116.12 13.9894H115.185L115.004 15.4073Z" fill="#989898"/>
<path d="M122.579 12.6021C123.695 12.6021 124.45 12.8736 124.872 13.3864C125.294 13.8992 125.415 14.8344 125.234 16.1919C125.143 16.8857 125.023 17.4287 124.842 17.8812C124.661 18.3337 124.45 18.6656 124.178 18.9371C123.907 19.2086 123.575 19.3896 123.213 19.4801C122.851 19.5706 122.398 19.6309 121.855 19.6309C120.739 19.6309 119.955 19.3594 119.563 18.8466C119.17 18.3337 119.05 17.3986 119.231 16.0411C119.412 14.7137 119.744 13.8087 120.226 13.3261C120.739 12.8434 121.493 12.6021 122.579 12.6021ZM122.549 14.0199C122.127 14.0199 121.825 14.1707 121.644 14.4422C121.463 14.7137 121.312 15.3171 121.161 16.1919C121.041 17.0064 121.041 17.5494 121.131 17.8209C121.222 18.0924 121.493 18.2131 121.916 18.2131C122.338 18.2131 122.67 18.0622 122.851 17.7907C123.032 17.5192 123.183 16.9159 123.333 16.0411C123.454 15.1964 123.454 14.6534 123.364 14.4121C123.213 14.1406 122.971 14.0199 122.549 14.0199Z" fill="#989898"/>
<path d="M132.292 19.4197L132.081 20.9582H130.723L130.784 19.48H126.56L126.229 20.9582H124.871L125.082 19.48L125.263 18.213H125.957C126.47 17.1873 126.953 15.8298 127.405 14.1103C127.646 13.1752 128.25 12.7227 129.215 12.7227H132.352L131.568 18.213H132.473L132.292 19.4197ZM129.698 18.2432L130.301 13.9897H129.788C129.607 13.9897 129.456 14.0198 129.336 14.1103C129.215 14.2008 129.155 14.3517 129.094 14.5628C128.732 16.1315 128.34 17.3683 127.888 18.213H129.698V18.2432Z" fill="#989898"/>
<path d="M139.048 12.7529L138.113 19.5103H136.273L136.635 16.8254C135.941 17.1573 135.308 17.3081 134.735 17.3081C134.101 17.3081 133.618 17.1573 133.347 16.8858C133.075 16.5841 132.985 16.1618 133.045 15.5886L133.437 12.7831H135.278L134.916 15.2869C134.885 15.4981 134.885 15.6489 134.976 15.7093C135.066 15.7696 135.217 15.8299 135.428 15.8299C135.851 15.8299 136.303 15.7394 136.756 15.5283L137.148 12.7831H139.048V12.7529Z" fill="#989898"/>
<path d="M144.781 14.1405H142.338C142.157 14.1405 142.036 14.1707 141.976 14.231C141.916 14.2913 141.855 14.412 141.825 14.593L141.704 15.4075H144.238L144.088 16.6745H141.523L141.373 17.7002C141.342 17.851 141.373 17.9717 141.433 18.032C141.493 18.0923 141.614 18.1225 141.765 18.1225H144.178L144.148 19.4498C143.605 19.5102 142.549 19.5403 141.011 19.5403C140.468 19.5403 140.045 19.3895 139.804 19.0577C139.532 18.756 139.442 18.3337 139.502 17.7907L140.015 14.1405C140.075 13.688 140.256 13.3562 140.558 13.0847C140.86 12.8433 141.222 12.7227 141.704 12.7227C143.273 12.7227 144.359 12.7528 144.962 12.8433L144.781 14.1405Z" fill="#989898"/>
<path d="M149.97 17.9718L150.03 19.3293C149.397 19.5103 148.642 19.631 147.768 19.631C146.682 19.631 145.927 19.3595 145.535 18.8165C145.143 18.2735 145.022 17.3685 145.203 16.0713C145.384 14.744 145.716 13.839 146.199 13.3563C146.682 12.8737 147.466 12.6323 148.552 12.6323C149.366 12.6323 150.06 12.7228 150.664 12.8737L150.452 14.201C149.759 14.1708 149.095 14.1708 148.461 14.1708C148.16 14.1708 147.949 14.2312 147.798 14.3217C147.647 14.4122 147.526 14.5932 147.406 14.8948C147.285 15.1965 147.194 15.6188 147.134 16.192C147.013 16.9462 147.013 17.4288 147.104 17.6702C147.194 17.9115 147.436 18.0322 147.858 18.0322C148.703 18.0623 149.397 18.0322 149.97 17.9718Z" fill="#989898"/>
<path d="M154.705 15.9809V16.0412C154.886 16.0714 155.067 16.1015 155.188 16.1619C155.308 16.2222 155.429 16.2524 155.55 16.3127C155.64 16.373 155.731 16.4635 155.821 16.5842C155.882 16.7049 155.942 16.8255 156.002 16.9764C156.063 17.097 156.123 17.3082 156.153 17.5495C156.213 17.7909 156.244 18.0322 156.304 18.2735C156.364 18.5149 156.394 18.8165 156.455 19.2087C156.485 19.3595 156.485 19.45 156.515 19.5104H154.645C154.464 18.2434 154.343 17.5194 154.313 17.3384C154.222 16.9764 154.072 16.7652 153.83 16.7049C153.71 16.6747 153.559 16.6445 153.378 16.6445H152.986C153.016 16.8859 153.016 17.097 152.986 17.3082L152.684 19.5405H150.844L151.779 12.7832H153.619L153.348 14.6234C153.287 14.9552 153.227 15.2267 153.167 15.4379H153.468C153.891 15.4379 154.222 15.2569 154.434 14.9552C154.645 14.6234 154.977 13.9295 155.369 12.8134H157.269C156.787 13.9899 156.455 14.7139 156.334 14.9552C156.093 15.4077 155.791 15.7094 155.429 15.8602C155.218 15.8602 154.977 15.9205 154.705 15.9809Z" fill="#989898"/>
<path d="M163.063 19.5103H161.314L161.796 16.1014C161.857 15.7093 161.947 15.3473 162.068 14.9853H162.007C161.766 15.4679 161.585 15.7998 161.464 15.9506L159.021 19.5103H157.211L158.146 12.7529H159.926L159.443 16.0411C159.413 16.3428 159.292 16.7349 159.142 17.2478H159.232C159.383 16.8556 159.594 16.5238 159.775 16.2221L162.188 12.7529H163.968L163.063 19.5103Z" fill="#989898"/>
<path d="M170.122 19.5102H168.372L168.855 16.1014C168.915 15.7092 169.006 15.3472 169.126 14.9852H169.066C168.825 15.4679 168.644 15.7997 168.523 15.9506L166.08 19.5102H164.27L165.235 12.7529H167.015L166.532 16.0411C166.502 16.3427 166.381 16.7349 166.23 17.2477H166.321C166.472 16.8556 166.683 16.5237 166.864 16.2221L169.277 12.7529H171.057L170.122 19.5102ZM168.976 10.6714H170.062C170.062 11.1239 169.881 11.5161 169.549 11.8177C169.217 12.1194 168.795 12.2702 168.252 12.2702C167.678 12.2702 167.226 12.1194 166.924 11.8177C166.623 11.5161 166.562 11.1239 166.683 10.6714H167.829C167.739 10.9731 167.769 11.1541 167.829 11.2747C167.89 11.3954 168.071 11.4557 168.282 11.4557C168.734 11.4256 168.976 11.1842 168.976 10.6714Z" fill="#989898"/>
<path d="M67.6426 27.7157V27.7761C67.8236 27.8062 68.0046 27.8364 68.1253 27.8967C68.2459 27.9571 68.3666 27.9872 68.4873 28.0476C68.5778 28.1079 68.6682 28.1984 68.7587 28.3191C68.8191 28.4397 68.8794 28.5604 68.9398 28.7112C69.0001 28.8319 69.0604 29.0431 69.0906 29.2844C69.1509 29.5257 69.1811 29.7671 69.2414 30.0084C69.2716 30.2497 69.3319 30.5514 69.3923 30.9436C69.4224 31.0944 69.4224 31.1849 69.4526 31.2452H67.5823C67.4013 29.9782 67.2806 29.2542 67.2504 29.0732C67.1599 28.7112 67.0091 28.5001 66.7678 28.4397C66.6471 28.4096 66.4963 28.3794 66.3153 28.3794H65.9231C65.9533 28.6207 65.9533 28.8319 65.9231 29.0431L65.6214 31.2754H63.7812L64.7164 24.5181H66.5566L66.2851 26.3582C66.2248 26.6901 66.1644 26.9616 66.1041 27.1727H66.4057C66.8281 27.1727 67.1599 26.9917 67.3711 26.6901C67.5823 26.3582 67.9141 25.6644 68.3062 24.5482H70.2067C69.7241 25.7247 69.3922 26.4487 69.2716 26.6901C69.0302 27.1426 68.7286 27.4442 68.3666 27.5951C68.1554 27.6252 67.9141 27.6554 67.6426 27.7157Z" fill="#989898"/>
<path d="M73.6456 24.3672C74.7618 24.3672 75.516 24.6387 75.9383 25.1515C76.3606 25.6644 76.4813 26.5995 76.3003 27.957C76.2098 28.6509 76.0891 29.1939 75.9081 29.6464C75.7271 30.0989 75.516 30.4307 75.2445 30.7022C74.973 30.9737 74.6411 31.1547 74.2791 31.2452C73.9171 31.3357 73.4646 31.396 72.9216 31.396C71.8055 31.396 71.0211 31.1245 70.629 30.6117C70.2368 30.0989 70.1161 29.1637 70.2971 27.8062C70.4781 26.4789 70.81 25.5739 71.2926 25.0912C71.8055 24.6085 72.5898 24.3672 73.6456 24.3672ZM73.6155 25.7549C73.1931 25.7549 72.8915 25.9057 72.7105 26.1772C72.5295 26.4487 72.3786 27.052 72.2278 27.9269C72.1071 28.7414 72.1071 29.2844 72.1976 29.5559C72.2881 29.8274 72.5596 29.948 72.982 29.948C73.4043 29.948 73.7361 29.7972 73.9171 29.5257C74.0981 29.2542 74.249 28.6509 74.3998 27.776C74.5205 26.9314 74.5205 26.3884 74.43 26.147C74.3093 25.9057 74.0378 25.7549 73.6155 25.7549Z" fill="#989898"/>
<path d="M83.151 24.4878H84.8403C85.0515 24.4878 85.2023 24.5481 85.323 24.6688C85.4436 24.7895 85.4738 24.9705 85.4436 25.1816L84.8403 31.2451H83.1811L83.7241 25.9056H83.5733L82.2158 29.7066C82.0951 30.0686 81.8538 30.2496 81.4616 30.2496H80.4661C80.2851 30.2496 80.1041 30.1893 79.9835 30.0988C79.8628 29.9781 79.8025 29.8575 79.8025 29.6463L79.5008 25.9056H79.3198L78.3846 31.2451H76.6953L77.8115 25.1213C77.8416 24.9101 77.9321 24.7593 78.0226 24.6386C78.1131 24.518 78.2941 24.4878 78.5053 24.4878H80.1343C80.3153 24.4878 80.4661 24.5481 80.5868 24.6386C80.7075 24.7593 80.7678 24.88 80.7678 25.0911L81.0091 28.0776C81.0393 28.3793 81.0393 28.7111 81.0091 29.0731H81.1298C81.1901 28.8318 81.2806 28.5 81.4013 28.1078L82.427 25.0308C82.5175 24.6688 82.7588 24.4878 83.151 24.4878Z" fill="#989898"/>
<path d="M92.562 24.4878L91.6269 31.2451H89.7867L90.571 25.7548H88.6404L87.856 31.2451H86.0159L86.951 24.4878H92.562Z" fill="#989898"/>
<path d="M99.3485 24.4878L98.4133 31.2451H96.5732L97.3575 25.7548H96.8446C96.6335 25.7548 96.4826 25.785 96.3921 25.8755C96.3016 25.966 96.2112 26.1168 96.181 26.328C95.7888 28.1078 95.4268 29.2541 95.1855 29.7971C94.8537 30.4306 94.4917 30.8831 94.0392 31.0943C93.5867 31.3055 93.0738 31.3658 92.4705 31.2753L92.4102 29.8575C92.742 29.7971 92.9833 29.7368 93.104 29.6463C93.2548 29.5558 93.4057 29.3748 93.4962 29.1636C93.7677 28.6508 94.0995 27.5648 94.4313 25.8755C94.6425 24.9705 95.2157 24.4878 96.181 24.4878H99.3485Z" fill="#989898"/>
<path d="M105.082 25.8754H102.639C102.458 25.8754 102.337 25.9055 102.277 25.9659C102.216 26.0262 102.156 26.1469 102.126 26.3279L102.005 27.1423H104.539L104.388 28.4093H101.824L101.673 29.435C101.643 29.5859 101.673 29.7065 101.734 29.7668C101.794 29.8272 101.915 29.8573 102.066 29.8573H104.479L104.449 31.1847C103.906 31.245 102.85 31.2752 101.311 31.2752C100.768 31.2752 100.346 31.1244 100.105 30.7925C99.8332 30.4909 99.7427 30.0685 99.803 29.5255L100.316 25.8754C100.376 25.4229 100.557 25.091 100.859 24.8195C101.161 24.5782 101.523 24.4575 102.005 24.4575C103.574 24.4575 104.66 24.4877 105.263 24.5782L105.082 25.8754Z" fill="#989898"/>
<path d="M109.244 27.7157V27.7761C109.425 27.8062 109.606 27.8364 109.727 27.8967C109.847 27.9571 109.968 27.9872 110.089 28.0476C110.179 28.1079 110.27 28.1984 110.36 28.3191C110.421 28.4397 110.481 28.5604 110.541 28.7112C110.602 28.8319 110.662 29.0431 110.692 29.2844C110.752 29.5257 110.783 29.7671 110.843 30.0084C110.903 30.2497 110.933 30.5514 110.994 30.9436C111.024 31.0944 111.024 31.1849 111.054 31.2452H109.184C109.003 29.9782 108.882 29.2542 108.852 29.0732C108.761 28.7112 108.611 28.5001 108.369 28.4397C108.249 28.4096 108.098 28.3794 107.917 28.3794H107.525C107.555 28.6207 107.555 28.8319 107.525 29.0431L107.223 31.2754H105.383L106.318 24.5181H108.158L107.887 26.3582C107.826 26.6901 107.766 26.9616 107.706 27.1727H108.007C108.43 27.1727 108.761 26.9917 108.973 26.6901C109.184 26.3582 109.516 25.6644 109.908 24.5482H111.808C111.326 25.7247 110.994 26.4487 110.873 26.6901C110.632 27.1426 110.33 27.4442 109.968 27.5951C109.787 27.6252 109.546 27.6554 109.244 27.7157Z" fill="#989898"/>
<path d="M116.665 29.7067L116.725 31.0642C116.092 31.2452 115.338 31.3659 114.463 31.3659C113.377 31.3659 112.623 31.0944 112.231 30.5514C111.838 30.0084 111.718 29.1034 111.899 27.8062C112.08 26.4789 112.412 25.5739 112.894 25.0912C113.377 24.6085 114.161 24.3672 115.247 24.3672C116.062 24.3672 116.756 24.4577 117.359 24.6085L117.148 25.9359C116.454 25.9057 115.79 25.9057 115.157 25.9057C114.855 25.9057 114.644 25.966 114.493 26.0565C114.342 26.147 114.222 26.328 114.101 26.6297C113.98 26.9314 113.89 27.3537 113.829 27.9269C113.709 28.681 113.709 29.1637 113.799 29.405C113.89 29.6464 114.131 29.767 114.553 29.767C115.428 29.7972 116.122 29.767 116.665 29.7067Z" fill="#989898"/>
<path d="M70.0588 15.6191V15.6794C70.5716 15.7397 70.9035 15.9509 71.0543 16.2224C71.2051 16.5241 71.3861 17.2179 71.5671 18.3341C71.6275 18.6659 71.6878 18.9374 71.718 19.1486H69.8778C69.8175 18.8771 69.7571 18.4849 69.6968 18.0324C69.5761 17.2481 69.4555 16.7352 69.365 16.5542C69.2745 16.3431 69.0935 16.2526 68.822 16.2526H68.4901C68.4901 16.5241 68.4901 16.7352 68.46 16.9162L68.1583 19.1486H66.4086L66.7405 16.8559C66.7706 16.6447 66.831 16.4336 66.8913 16.2526H66.5896C66.288 16.2526 66.0466 16.4034 65.8355 16.7051C65.6545 17.0067 65.2623 17.8212 64.6288 19.1486H62.668C62.849 18.6961 62.9998 18.3642 63.0903 18.1531C63.1808 17.9419 63.3015 17.7006 63.4221 17.3989C63.5428 17.0972 63.6635 16.9162 63.7238 16.7956C63.7841 16.6749 63.8746 16.5241 63.9953 16.3732C64.116 16.2224 64.2065 16.1017 64.297 16.0414C64.3875 15.9811 64.478 15.9207 64.5986 15.8604C64.7193 15.8001 64.84 15.7397 64.9606 15.7096C65.0813 15.6794 65.2321 15.6492 65.383 15.6191V15.5587C65.202 15.5286 65.021 15.4682 64.9003 15.4381C64.7796 15.3777 64.659 15.3174 64.5685 15.2269C64.478 15.1364 64.3875 15.0157 64.3271 14.9252C64.2668 14.8046 64.2065 14.6537 64.1461 14.4426C64.0858 14.2314 64.0556 14.0202 63.9953 13.8091C63.9651 13.5979 63.9048 13.2962 63.8445 12.9342C63.8143 12.7231 63.7841 12.5421 63.754 12.4214H65.564C65.5941 12.6024 65.6243 12.8437 65.6846 13.1756C65.8053 13.9599 65.8958 14.4727 65.9863 14.7141C66.0768 14.9554 66.2578 15.0761 66.5293 15.0761H66.9516C66.9215 14.8046 66.9215 14.5029 66.9818 14.2012L67.2231 12.4516H68.9728L68.7013 14.2917C68.641 14.5934 68.6108 14.8649 68.5203 15.1062H68.7013C69.003 15.1062 69.2443 14.9856 69.4253 14.7442C69.6063 14.5029 69.8778 13.9599 70.2398 13.1152C70.3605 12.8437 70.451 12.6326 70.5113 12.4817H72.4118C72.3213 12.6627 72.2308 12.8739 72.1101 13.1454C71.9895 13.4169 71.899 13.5979 71.8688 13.7186C71.8085 13.8392 71.7481 13.9901 71.6576 14.2012C71.5671 14.3822 71.5068 14.5331 71.4465 14.6236C71.3861 14.7141 71.3258 14.8046 71.2655 14.9252C71.175 15.0459 71.1146 15.1364 71.0543 15.1967C70.994 15.2571 70.9336 15.3174 70.8431 15.3777C70.7526 15.4381 70.6621 15.4984 70.5716 15.5286C70.4811 15.5587 70.3906 15.5889 70.27 15.6191C70.3303 15.5587 70.2096 15.5889 70.0588 15.6191Z" fill="#003C68"/>
<path d="M78.325 19.1484H76.5753L77.058 15.7396C77.1183 15.3474 77.2088 14.9854 77.3295 14.6234H77.2692C77.0278 15.1061 76.8468 15.4379 76.7262 15.5888L74.2827 19.1484H72.4727L73.4078 12.3911H75.1877L74.705 15.6793C74.6748 15.9809 74.5542 16.3731 74.4033 16.8859H74.4938C74.6447 16.4938 74.8558 16.1619 75.0368 15.8603L77.4502 12.3911H79.23L78.325 19.1484Z" fill="#003C68"/>
<path d="M79.5625 19.1486L80.4977 12.3913C81.101 12.3309 81.9758 12.3008 83.1222 12.3008C84.0272 12.3008 84.6607 12.4214 84.9925 12.6929C85.3545 12.9644 85.4752 13.4471 85.3847 14.1409C85.3243 14.6236 85.1735 14.9856 84.9925 15.2269C84.7813 15.4683 84.4495 15.5889 84.0272 15.6191V15.6794C84.9925 15.7699 85.4148 16.3733 85.2338 17.5498C85.1433 18.2134 84.902 18.6659 84.54 18.8771C84.178 19.0883 83.5445 19.2391 82.6998 19.2391C81.3122 19.2089 80.2563 19.1788 79.5625 19.1486ZM81.5535 17.8816H82.368C82.73 17.8816 83.0015 17.8213 83.1222 17.7006C83.273 17.5799 83.3635 17.3386 83.3937 17.0068C83.454 16.6749 83.4238 16.4638 83.3333 16.3733C83.2428 16.2828 83.0317 16.2224 82.73 16.2224H81.7948L81.5535 17.8816ZM81.9457 15.0459H82.7602C83.0618 15.0459 83.273 14.9856 83.3937 14.8951C83.5143 14.8046 83.6048 14.5633 83.635 14.2616C83.6652 14.0203 83.635 13.8393 83.5747 13.7488C83.4842 13.6583 83.3333 13.6281 83.0618 13.6281H82.1267L81.9457 15.0459Z" fill="#003C68"/>
<path d="M89.5167 12.2402C90.6329 12.2402 91.3871 12.5117 91.8094 13.0246C92.2317 13.5374 92.3524 14.4726 92.1714 15.8301C92.0809 16.5239 91.9602 17.0669 91.7792 17.5194C91.5982 17.9719 91.3871 18.3037 91.1156 18.5752C90.8441 18.8467 90.5122 19.0277 90.1502 19.1182C89.7882 19.2087 89.3357 19.2691 88.7927 19.2691C87.6766 19.2691 86.8922 18.9976 86.5001 18.4847C86.1079 17.9719 85.9872 17.0367 86.1682 15.6792C86.3492 14.3519 86.6811 13.4469 87.1637 12.9642C87.6766 12.4816 88.4609 12.2402 89.5167 12.2402ZM89.4866 13.6581C89.0642 13.6581 88.7626 13.8089 88.5816 14.0804C88.4006 14.3519 88.2497 14.9552 88.0989 15.8301C87.9782 16.6446 87.9782 17.1876 88.0687 17.4591C88.1592 17.7306 88.4307 17.8512 88.8531 17.8512C89.2754 17.8512 89.6072 17.7004 89.7882 17.4289C89.9692 17.1574 90.1201 16.5541 90.2709 15.6792C90.3916 14.8346 90.3916 14.2916 90.3011 14.0502C90.1804 13.7787 89.9089 13.6581 89.4866 13.6581Z" fill="#003C68"/>
<path d="M98.5375 13.8089H96.6068L95.8526 19.1484H94.0124L94.7666 13.8089H92.8359L93.0169 12.3911H98.7185L98.5375 13.8089Z" fill="#003C68"/>
<path d="M105.111 12.3911L104.176 19.1484H102.336L102.758 16.2524H100.798L100.375 19.1484H98.5352L99.4703 12.3911H101.31L100.979 14.8949H102.909L103.271 12.3911H105.111Z" fill="#003C68"/>
<path d="M108.974 12.2402C110.09 12.2402 110.844 12.5117 111.266 13.0246C111.689 13.5374 111.809 14.4726 111.628 15.8301C111.538 16.5239 111.417 17.0669 111.236 17.5194C111.055 17.9719 110.844 18.3037 110.573 18.5752C110.301 18.8467 109.969 19.0277 109.607 19.1182C109.245 19.2087 108.793 19.2691 108.25 19.2691C107.134 19.2691 106.349 18.9976 105.957 18.4847C105.565 17.9719 105.444 17.0367 105.625 15.6792C105.806 14.3519 106.138 13.4469 106.621 12.9642C107.134 12.4816 107.888 12.2402 108.974 12.2402ZM108.944 13.6581C108.521 13.6581 108.22 13.8089 108.039 14.0804C107.858 14.3519 107.707 14.9552 107.556 15.8301C107.435 16.6446 107.435 17.1876 107.526 17.4591C107.616 17.7306 107.888 17.8512 108.31 17.8512C108.732 17.8512 109.064 17.7004 109.245 17.4289C109.426 17.1574 109.577 16.5541 109.728 15.6792C109.849 14.8346 109.849 14.2916 109.758 14.0502C109.607 13.7787 109.366 13.6581 108.944 13.6581Z" fill="#003C68"/>
<path d="M112.141 19.1486L113.076 12.3913C113.679 12.3309 114.554 12.3008 115.7 12.3008C116.605 12.3008 117.239 12.4214 117.571 12.6929C117.933 12.9644 118.053 13.4471 117.963 14.1409C117.902 14.6236 117.752 14.9856 117.571 15.2269C117.359 15.4683 117.028 15.5889 116.605 15.6191V15.6794C117.571 15.7699 117.993 16.3733 117.812 17.5498C117.721 18.2134 117.48 18.6659 117.118 18.8771C116.756 19.0883 116.123 19.2391 115.278 19.2391C113.86 19.2089 112.834 19.1788 112.141 19.1486ZM114.101 17.8816H114.916C115.278 17.8816 115.549 17.8213 115.67 17.7006C115.821 17.5799 115.911 17.3386 115.942 17.0068C116.002 16.6749 115.972 16.4638 115.881 16.3733C115.791 16.2828 115.58 16.2224 115.278 16.2224H114.343L114.101 17.8816ZM114.524 15.0459H115.338C115.64 15.0459 115.851 14.9856 115.972 14.8951C116.092 14.8046 116.183 14.5633 116.213 14.2616C116.243 14.0203 116.213 13.8393 116.153 13.7488C116.062 13.6583 115.911 13.6281 115.64 13.6281H114.705L114.524 15.0459Z" fill="#003C68"/>
<path d="M122.095 12.2402C123.211 12.2402 123.965 12.5117 124.388 13.0246C124.81 13.5374 124.931 14.4726 124.75 15.8301C124.659 16.5239 124.538 17.0669 124.357 17.5194C124.176 17.9719 123.965 18.3037 123.694 18.5752C123.422 18.8467 123.09 19.0277 122.728 19.1182C122.366 19.2087 121.914 19.2691 121.371 19.2691C120.255 19.2691 119.47 18.9976 119.078 18.4847C118.686 17.9719 118.565 17.0367 118.746 15.6792C118.927 14.3519 119.259 13.4469 119.742 12.9642C120.255 12.4816 121.009 12.2402 122.095 12.2402ZM122.065 13.6581C121.642 13.6581 121.341 13.8089 121.16 14.0804C120.979 14.3519 120.828 14.9552 120.677 15.8301C120.556 16.6446 120.556 17.1876 120.647 17.4591C120.737 17.7306 121.009 17.8512 121.431 17.8512C121.854 17.8512 122.185 17.7004 122.366 17.4289C122.547 17.1574 122.698 16.5541 122.849 15.6792C122.97 14.8346 122.97 14.2916 122.879 14.0502C122.728 13.7787 122.487 13.6581 122.065 13.6581Z" fill="#003C68"/>
<path d="M131.812 19.0578L131.6 20.5963H130.243L130.303 19.1182H126.08L125.748 20.5963H124.391L124.602 19.1182L124.783 17.8512H125.477C125.989 16.8255 126.472 15.468 126.925 13.7485C127.166 12.8133 127.769 12.3608 128.735 12.3608H131.872L131.088 17.8512H131.993L131.812 19.0578ZM129.217 17.8813L129.821 13.6278H129.308C129.127 13.6278 128.976 13.658 128.855 13.7485C128.735 13.839 128.674 13.9898 128.614 14.201C128.252 15.7697 127.86 17.0065 127.407 17.8512H129.217V17.8813Z" fill="#003C68"/>
<path d="M138.568 12.3911L137.633 19.1484H135.793L136.155 16.4636C135.461 16.7954 134.827 16.9463 134.254 16.9463C133.621 16.9463 133.138 16.7954 132.866 16.5239C132.595 16.2223 132.504 15.7999 132.565 15.2268L132.957 12.4213H134.797L134.435 14.9251C134.405 15.1363 134.405 15.2871 134.495 15.3474C134.586 15.4078 134.737 15.4681 134.948 15.4681C135.37 15.4681 135.823 15.3776 136.275 15.1664L136.667 12.4213H138.568V12.3911Z" fill="#003C68"/>
<path d="M144.297 13.7787H141.854C141.673 13.7787 141.552 13.8088 141.492 13.8692C141.431 13.9295 141.371 14.0502 141.341 14.2312L141.22 15.0457H143.754L143.603 16.3127H141.039L140.888 17.3383C140.858 17.4892 140.888 17.6098 140.949 17.6702C141.009 17.7305 141.13 17.7607 141.28 17.7607H143.694L143.664 19.088C143.121 19.1483 142.065 19.1785 140.526 19.1785C139.983 19.1785 139.561 19.0277 139.32 18.6958C139.048 18.3942 138.958 17.9718 139.018 17.4288L139.531 13.7787C139.591 13.3262 139.772 12.9943 140.074 12.7228C140.375 12.4815 140.737 12.3608 141.22 12.3608C142.789 12.3608 143.875 12.391 144.478 12.4815L144.297 13.7787Z" fill="#003C68"/>
<path d="M149.489 17.61L149.55 18.9675C148.916 19.1485 148.162 19.2692 147.287 19.2692C146.201 19.2692 145.447 18.9977 145.055 18.4547C144.663 17.9117 144.542 17.0067 144.723 15.7095C144.904 14.3822 145.236 13.4772 145.718 12.9945C146.201 12.5118 146.985 12.2705 148.071 12.2705C148.886 12.2705 149.58 12.361 150.183 12.5118L149.972 13.8392C149.278 13.809 148.614 13.809 147.981 13.809C147.679 13.809 147.468 13.8693 147.317 13.9598C147.166 14.0503 147.046 14.2313 146.925 14.533C146.804 14.8347 146.714 15.257 146.654 15.8302C146.533 16.5843 146.533 17.067 146.623 17.3083C146.714 17.5497 146.955 17.6703 147.378 17.6703C148.222 17.7005 148.916 17.6703 149.489 17.61Z" fill="#003C68"/>
<path d="M154.193 15.6191V15.6794C154.374 15.7096 154.555 15.7397 154.676 15.8001C154.797 15.8604 154.917 15.8906 155.038 15.9509C155.129 16.0112 155.219 16.1017 155.309 16.2224C155.37 16.3431 155.43 16.4637 155.491 16.6146C155.551 16.7352 155.611 16.9464 155.641 17.1877C155.702 17.4291 155.732 17.6704 155.792 17.9117C155.853 18.1531 155.883 18.4547 155.943 18.8469C155.973 18.9977 155.973 19.0882 156.003 19.1486H154.133C153.952 17.8816 153.831 17.1576 153.801 16.9766C153.711 16.6146 153.56 16.4034 153.319 16.3431C153.198 16.3129 153.047 16.2827 152.866 16.2827H152.474C152.504 16.5241 152.504 16.7352 152.474 16.9464L152.172 19.1787H150.332L151.267 12.4214H153.107L152.836 14.2616C152.776 14.5934 152.715 14.8649 152.655 15.0761H152.957C153.379 15.0761 153.711 14.8951 153.922 14.5934C154.133 14.2616 154.465 13.5677 154.857 12.4516H156.758C156.275 13.6281 155.943 14.3521 155.822 14.5934C155.581 15.0459 155.279 15.3476 154.917 15.4984C154.736 15.4984 154.495 15.5587 154.193 15.6191Z" fill="#003C68"/>
<path d="M162.552 19.1484H160.802L161.285 15.7396C161.345 15.3474 161.435 14.9854 161.556 14.6234H161.496C161.254 15.1061 161.073 15.4379 160.953 15.5888L158.509 19.1484H156.699L157.634 12.3911H159.414L158.932 15.6793C158.901 15.9809 158.781 16.3731 158.63 16.8859H158.72C158.871 16.4938 159.082 16.1619 159.263 15.8603L161.677 12.3911H163.457L162.552 19.1484Z" fill="#003C68"/>
<path d="M169.637 19.1484H167.888L168.37 15.7396C168.431 15.3474 168.521 14.9854 168.642 14.6234H168.582C168.34 15.1061 168.159 15.4379 168.039 15.5887L165.595 19.1484H163.785L164.72 12.3911H166.5L166.017 15.6792C165.987 15.9809 165.867 16.3731 165.716 16.8859H165.806C165.957 16.4937 166.168 16.1619 166.349 15.8602L168.763 12.3911H170.542L169.637 19.1484ZM168.491 10.3096H169.577C169.577 10.7621 169.396 11.1542 169.064 11.4559C168.732 11.7576 168.31 11.9084 167.767 11.9084C167.194 11.9084 166.741 11.7576 166.44 11.4559C166.138 11.1542 166.078 10.7621 166.198 10.3096H167.345C167.254 10.6112 167.284 10.7922 167.345 10.9129C167.405 11.0336 167.586 11.0939 167.797 11.0939C168.25 11.0637 168.491 10.8224 168.491 10.3096Z" fill="#003C68"/>
<path d="M67.1621 27.3539V27.4143C67.3431 27.4444 67.5241 27.4746 67.6448 27.5349C67.7654 27.5953 67.8861 27.6254 68.0068 27.6858C68.0973 27.7461 68.1878 27.8366 68.2783 27.9572C68.3386 28.0779 68.3989 28.1986 68.4593 28.3494C68.5196 28.4701 68.5799 28.6813 68.6101 28.9226C68.6704 29.1639 68.7006 29.4053 68.7609 29.6466C68.7911 29.8879 68.8514 30.1896 68.9118 30.5818C68.9419 30.7326 68.9419 30.8231 68.9721 30.8834H67.1018C66.9208 29.6164 66.8001 28.8924 66.7699 28.7114C66.6794 28.3494 66.5286 28.1383 66.2873 28.0779C66.1666 28.0478 66.0158 28.0176 65.8348 28.0176H65.4426C65.4728 28.2589 65.4728 28.4701 65.4426 28.6813L65.1409 30.9136H63.3008L64.2359 24.1562H66.0761L65.8046 25.9964C65.7443 26.3282 65.6839 26.5998 65.6236 26.8109H65.9253C66.3476 26.8109 66.6794 26.6299 66.8906 26.3283C67.1018 25.9964 67.4336 25.3026 67.8258 24.1864H69.7263C69.2436 25.3629 68.9118 26.0869 68.7911 26.3283C68.5498 26.7808 68.2481 27.0824 67.8861 27.2333C67.6749 27.2634 67.4336 27.2936 67.1621 27.3539Z" fill="#003C68"/>
<path d="M73.1652 24.0054C74.2813 24.0054 75.0355 24.2769 75.4578 24.7897C75.8801 25.3025 76.0008 26.2377 75.8198 27.5952C75.7293 28.289 75.6086 28.832 75.4276 29.2845C75.2466 29.737 75.0355 30.0689 74.764 30.3404C74.4925 30.6119 74.1607 30.7929 73.7987 30.8834C73.4367 30.9739 72.9842 31.0342 72.4412 31.0342C71.325 31.0342 70.5407 30.7627 70.1485 30.2499C69.7563 29.737 69.6357 28.8019 69.8167 27.4444C69.9977 26.117 70.3295 25.212 70.8122 24.7294C71.325 24.2467 72.1093 24.0054 73.1652 24.0054ZM73.135 25.393C72.7127 25.393 72.411 25.5439 72.23 25.8154C72.049 26.0869 71.8982 26.6902 71.7473 27.565C71.6267 28.3795 71.6267 28.9225 71.7172 29.194C71.8077 29.4655 72.0792 29.5862 72.5015 29.5862C72.9238 29.5862 73.2557 29.4354 73.4367 29.1639C73.6177 28.8924 73.7685 28.289 73.9193 27.4142C74.04 26.5695 74.04 26.0265 73.9495 25.7852C73.8288 25.5439 73.5573 25.393 73.135 25.393Z" fill="#003C68"/>
<path d="M82.6694 24.126H84.3588C84.5699 24.126 84.7208 24.1863 84.8414 24.307C84.9621 24.4276 84.9923 24.6086 84.9621 24.8198L84.3588 30.8833H82.6996L83.2426 25.5438H83.0918L81.7343 29.3448C81.6136 29.7068 81.3723 29.8878 80.9801 29.8878H79.9544C79.7734 29.8878 79.5924 29.8275 79.4718 29.737C79.3511 29.6163 79.2908 29.4956 79.2908 29.2845L78.9891 25.5438H78.8081L77.8729 30.8833H76.1836L77.2998 24.7595C77.3299 24.5483 77.4204 24.3975 77.5109 24.2768C77.6014 24.1561 77.7824 24.126 77.9936 24.126H79.6226C79.8036 24.126 79.9544 24.1863 80.0751 24.2768C80.1958 24.3975 80.2561 24.5181 80.2561 24.7293L80.4974 27.7158C80.5276 28.0175 80.5276 28.3493 80.4974 28.7113H80.6181C80.6784 28.47 80.7689 28.1381 80.8896 27.746L81.9153 24.669C82.0359 24.307 82.2773 24.126 82.6694 24.126Z" fill="#003C68"/>
<path d="M92.0813 24.126L91.1462 30.8833H89.306L90.0903 25.393H88.1597L87.3753 30.8833H85.5352L86.4703 24.126H92.0813Z" fill="#003C68"/>
<path d="M98.868 24.126L97.9328 30.8833H96.0927L96.877 25.393H96.3642C96.153 25.393 96.0022 25.4231 95.9117 25.5136C95.8212 25.6041 95.7307 25.755 95.7005 25.9661C95.3083 27.746 94.9464 28.8923 94.705 29.4353C94.3732 30.0688 94.0112 30.5213 93.5587 30.7325C93.1062 30.9436 92.5934 31.004 91.99 30.9135L91.9297 29.4956C92.2615 29.4353 92.5028 29.375 92.6235 29.2845C92.7743 29.194 92.9252 29.013 93.0157 28.8018C93.2872 28.289 93.619 27.203 93.9509 25.5136C94.162 24.6086 94.7352 24.126 95.7005 24.126H98.868Z" fill="#003C68"/>
<path d="M104.598 25.5135H102.154C101.973 25.5135 101.853 25.5437 101.792 25.604C101.732 25.6644 101.672 25.785 101.641 25.966L101.521 26.7805H104.055L103.904 28.0475H101.34L101.189 29.0732C101.159 29.224 101.189 29.3447 101.249 29.405C101.31 29.4654 101.43 29.4955 101.581 29.4955H103.994L103.964 30.8229C103.421 30.8832 102.365 30.9134 100.827 30.9134C100.284 30.9134 99.8616 30.7625 99.6203 30.4307C99.3488 30.129 99.2583 29.7067 99.3186 29.1637L99.8315 25.5135C99.8918 25.061 100.073 24.7292 100.374 24.4577C100.676 24.2164 101.038 24.0957 101.521 24.0957C103.089 24.0957 104.175 24.1259 104.779 24.2164L104.598 25.5135Z" fill="#003C68"/>
<path d="M108.763 27.3539V27.4143C108.944 27.4444 109.125 27.4746 109.245 27.5349C109.366 27.5953 109.487 27.6254 109.607 27.6858C109.698 27.7461 109.788 27.8366 109.879 27.9572C109.939 28.0779 109.999 28.1986 110.06 28.3494C110.12 28.4701 110.18 28.6813 110.211 28.9226C110.271 29.1639 110.301 29.4053 110.361 29.6466C110.422 29.8879 110.452 30.1896 110.512 30.5818C110.542 30.7326 110.542 30.8231 110.573 30.8834H108.702C108.521 29.6164 108.401 28.8924 108.37 28.7114C108.28 28.3494 108.129 28.1383 107.888 28.0779C107.767 28.0478 107.616 28.0176 107.435 28.0176H107.013C107.043 28.2589 107.043 28.4701 107.013 28.6813L106.711 30.9136H104.871L105.806 24.1562H107.646L107.375 25.9964C107.315 26.3282 107.254 26.5998 107.194 26.8109H107.496C107.918 26.8109 108.25 26.6299 108.461 26.3283C108.672 25.9964 109.004 25.3026 109.396 24.1864H111.297C110.814 25.3629 110.482 26.0869 110.361 26.3283C110.12 26.7808 109.818 27.0824 109.456 27.2333C109.306 27.2634 109.064 27.2936 108.763 27.3539Z" fill="#003C68"/>
<path d="M116.185 29.3449L116.245 30.7024C115.611 30.8834 114.857 31.004 113.982 31.004C112.896 31.004 112.142 30.7325 111.75 30.1895C111.358 29.6465 111.237 28.7415 111.418 27.4444C111.599 26.117 111.931 25.212 112.414 24.7294C112.896 24.2467 113.681 24.0054 114.767 24.0054C115.581 24.0054 116.275 24.0959 116.878 24.2467L116.667 25.574C115.973 25.5439 115.31 25.5439 114.676 25.5439C114.375 25.5439 114.163 25.6042 114.013 25.6947C113.862 25.7852 113.741 25.9662 113.62 26.2679C113.5 26.5695 113.409 26.9919 113.349 27.565C113.228 28.3192 113.228 28.8019 113.319 29.0432C113.409 29.2845 113.651 29.4052 114.073 29.4052C114.918 29.4354 115.642 29.4052 116.185 29.3449Z" fill="#003C68"/>
</svg>
